<svg width="68" height="38" viewBox="0 0 68 38" fill="none" xmlns="http://www.w3.org/2000/svg">
<path d="M42 13.0002C42 13.0002 59.5 -5.00001 65.5 3.00002C71.5 11 64.5 9.38466 64.5 19.0002C64.5 28.6158 70.3168 29 66.5 34.5C59.0887 45.1796 42 25.0002 42 25.0002V13.0002Z" fill="#EF9CA5"/>
<path d="M25 13.159C25 13.159 8.12762 -5.00436 2.34282 3.06815C-3.44199 11.1407 3.30695 9.51064 3.30695 19.2133C3.30695 28.916 -2.30122 29.3037 1.37868 34.8535C8.52411 45.6299 25 25.2677 25 25.2677V13.159Z" fill="#EF9CA5"/>
<rect x="24" y="10" width="19" height="18" rx="2" fill="#E67884"/>
</svg>
