<svg width="78" height="32" viewBox="0 0 78 32" fill="none" xmlns="http://www.w3.org/2000/svg">
<path d="M2.90388 11.853C2.45289 11.1286 2.18625 10.3774 2.10396 9.59934C2.02167 8.82129 2.16036 8.0753 2.52005 7.36135C2.87973 6.64741 3.49252 6.02719 4.35841 5.50071C5.20619 4.98549 6.03602 4.7139 6.84789 4.68594C7.67445 4.6614 8.43223 4.8493 9.12122 5.24965C9.81022 5.64999 10.3859 6.22143 10.8481 6.96397C11.3273 7.73367 11.59 8.4685 11.6362 9.16846C11.6915 9.86279 11.583 10.4958 11.3106 11.0674C11.053 11.6425 10.6914 12.1314 10.226 12.5342L9.00834 10.5783C9.32425 10.3188 9.49606 10.0296 9.52376 9.71084C9.5571 9.40109 9.51466 9.10083 9.39646 8.81004C9.29295 8.52266 9.17918 8.27937 9.05516 8.08015C8.61545 7.37384 8.10285 6.9642 7.51737 6.85122C6.94094 6.73261 6.32673 6.87625 5.67475 7.28214C4.95938 7.72749 4.50677 8.2417 4.31691 8.82479C4.12706 9.40788 4.25481 10.0571 4.70016 10.7725C4.82981 10.9807 5.00355 11.1993 5.22136 11.4281C5.44823 11.6512 5.71705 11.8105 6.02781 11.9061C6.34421 12.0106 6.69761 11.9728 7.08801 11.7926L8.31413 13.7621C7.72349 14.0042 7.09972 14.1224 6.44281 14.1167C5.79496 14.1054 5.16438 13.9199 4.55106 13.5604C3.94338 13.21 3.39432 12.6409 2.90388 11.853ZM6.80586 17.2423L13.0875 10.7859L14.7388 12.3926L12.2284 14.9728L12.2514 14.9951C12.2514 14.9951 12.3114 14.9717 12.4314 14.9248C12.5589 14.8702 12.7282 14.834 12.9391 14.816C13.1577 14.8054 13.3997 14.8474 13.665 14.9418C13.9377 15.0286 14.2194 15.2133 14.5099 15.4959C14.8463 15.8232 15.0583 16.156 15.1459 16.4942C15.241 16.8248 15.2454 17.1491 15.1593 17.4671C15.0882 17.7849 14.964 18.0808 14.7867 18.3548C14.6171 18.6362 14.4357 18.8839 14.2425 19.0977C14.0644 19.3114 13.9121 19.4832 13.7857 19.6131L11.5765 21.8838L10.0169 20.3664L12.2372 18.0843C12.4008 17.9161 12.5455 17.7368 12.6711 17.5465C12.8044 17.3637 12.8695 17.1666 12.8666 16.9555C12.8712 16.7367 12.7435 16.5008 12.4835 16.2479C12.2313 16.0024 11.9958 15.885 11.7772 15.8955C11.566 15.8984 11.3709 15.969 11.1917 16.1072C11.0126 16.2455 10.8412 16.3987 10.6776 16.5669L8.45724 18.849L6.80586 17.2423ZM15.9835 25.1274C15.3237 24.7139 14.8488 24.2463 14.5589 23.7247C14.2746 23.1941 14.16 22.6439 14.2149 22.0741C14.2699 21.5043 14.4702 20.9438 14.8157 20.3924C15.1669 19.832 15.5869 19.4029 16.0757 19.105C16.5645 18.8071 17.1068 18.6749 17.7026 18.7084C18.3041 18.7329 18.9348 18.9519 19.5946 19.3654C20.5617 19.9715 21.1267 20.697 21.2896 21.5418C21.4672 22.3832 21.2841 23.2378 20.7403 24.1054C20.4005 24.6477 19.9861 25.0678 19.4973 25.3657C19.0175 25.6693 18.4814 25.8117 17.889 25.7929C17.2965 25.774 16.6614 25.5522 15.9835 25.1274ZM16.9691 23.5547C17.3035 23.7643 17.5946 23.8523 17.8422 23.8187C18.0899 23.785 18.3014 23.6784 18.4769 23.4989C18.6671 23.316 18.8302 23.116 18.9661 22.8991C19.1077 22.6731 19.2165 22.4392 19.2926 22.1974C19.3777 21.9612 19.3814 21.7243 19.3036 21.4868C19.2316 21.2402 19.0283 21.0121 18.6939 20.8025C18.3595 20.5929 18.0611 20.5066 17.7988 20.5436C17.5511 20.5772 17.335 20.681 17.1505 20.8549C16.975 21.0345 16.8165 21.2372 16.6749 21.4632C16.5389 21.6801 16.4256 21.9112 16.3348 22.1564C16.2588 22.3983 16.2596 22.638 16.3373 22.8755C16.4241 23.1187 16.6347 23.3451 16.9691 23.5547ZM23.8245 28.9633C23.0922 28.6986 22.5292 28.342 22.1356 27.8934C21.7456 27.4349 21.5173 26.9213 21.4506 26.3528C21.3839 25.7842 21.4612 25.194 21.6824 24.5821C21.9072 23.9602 22.227 23.4519 22.6418 23.0575C23.0567 22.663 23.5588 22.4192 24.1482 22.326C24.7413 22.2228 25.404 22.3036 26.1363 22.5683C27.2096 22.9564 27.9152 23.546 28.253 24.3373C28.6044 25.1222 28.606 25.9961 28.2579 26.9592C28.0403 27.561 27.7241 28.0592 27.3093 28.4537C26.9045 28.8518 26.4106 29.1042 25.8276 29.211C25.2445 29.3179 24.5768 29.2353 23.8245 28.9633ZM24.4555 27.2179C24.8266 27.352 25.1297 27.3765 25.3646 27.2913C25.5996 27.2061 25.7839 27.0572 25.9174 26.8446C26.0646 26.6257 26.1818 26.3958 26.2688 26.155C26.3595 25.9042 26.4164 25.6526 26.4396 25.4001C26.4729 25.1513 26.4264 24.919 26.3002 24.7032C26.1777 24.4775 25.9308 24.2975 25.5597 24.1633C25.1885 24.0291 24.8786 24.0079 24.63 24.0995C24.3951 24.1847 24.2058 24.3317 24.0622 24.5407C23.9286 24.7533 23.8165 24.985 23.7259 25.2358C23.6388 25.4765 23.5769 25.7263 23.54 25.9852C23.5168 26.2377 23.5683 26.4718 23.6944 26.6875C23.8306 26.9069 24.0843 27.0837 24.4555 27.2179ZM31.9363 31.06C31.8625 31.0489 31.7058 31.0146 31.4664 30.957C31.2359 30.9116 30.9733 30.8291 30.6785 30.7093C30.3958 30.5806 30.1255 30.4051 29.8676 30.1831C29.6097 29.961 29.4088 29.6827 29.2649 29.3483C29.1331 29.0049 29.1044 28.5853 29.1788 28.0896L31.2041 28.3937C31.2025 28.4042 31.1946 28.457 31.1804 28.5519C31.1767 28.6484 31.1925 28.7587 31.2278 28.8826C31.2737 29.0081 31.358 29.1287 31.4809 29.2442C31.6159 29.3508 31.8258 29.4254 32.1106 29.4682C32.3532 29.5046 32.532 29.4991 32.647 29.4517C32.7726 29.4058 32.8567 29.3483 32.8994 29.2792C32.9422 29.2101 32.9667 29.1545 32.973 29.1123C32.9968 28.9541 32.9261 28.814 32.7611 28.6922C32.596 28.5703 32.3766 28.4511 32.1029 28.3345C31.8307 28.2073 31.5383 28.0717 31.2256 27.9277C30.9249 27.7747 30.6441 27.5977 30.3831 27.3967C30.1236 27.1852 29.924 26.9341 29.7843 26.6434C29.6445 26.3528 29.6056 26.0018 29.6673 25.5904C29.7687 24.9153 30.0902 24.462 30.632 24.2306C31.1842 24.0007 31.8401 23.9428 32.5996 24.0568C33.0742 24.1281 33.498 24.251 33.8709 24.4257C34.2453 24.5898 34.5583 24.8039 34.8099 25.0682C35.063 25.322 35.2441 25.6242 35.3533 25.975C35.4745 26.3168 35.5088 26.6994 35.4559 27.1229L33.4623 26.8236C33.4892 26.6443 33.4798 26.4918 33.4339 26.3663C33.3896 26.2302 33.3142 26.1218 33.2077 26.0411C33.1133 25.9514 32.9999 25.8805 32.8675 25.8282C32.7457 25.7776 32.6109 25.7412 32.4632 25.719C32.1573 25.6731 31.949 25.6957 31.8382 25.7869C31.729 25.8676 31.6665 25.9607 31.6507 26.0662C31.6222 26.2561 31.6889 26.4225 31.8508 26.5654C32.0248 26.6994 32.2479 26.83 32.52 26.9571C32.8027 27.0859 33.1004 27.2223 33.4132 27.3663C33.7365 27.5119 34.0286 27.6852 34.2897 27.8862C34.5629 28.0782 34.7701 28.3143 34.9114 28.5944C35.0649 28.8655 35.1123 29.1962 35.0537 29.5865C34.9919 29.9979 34.8236 30.3286 34.5488 30.5785C34.2861 30.8195 33.9327 30.9822 33.4886 31.0665C33.0444 31.1508 32.527 31.1487 31.9363 31.06ZM39.8378 31.4276C39.0386 31.4631 38.3868 31.3319 37.8824 31.034C37.3781 30.7361 36.9975 30.3419 36.7408 29.8515C36.4944 29.3499 36.3481 28.8225 36.3022 28.2694C36.2487 27.5457 36.3489 26.9166 36.6028 26.3822C36.8562 25.8371 37.2272 25.4149 37.7157 25.1156C38.2144 24.8051 38.7941 24.6352 39.4548 24.6059C40.0835 24.578 40.6489 24.6863 41.1509 24.931C41.6631 25.1645 42.0684 25.5148 42.3667 25.9821C42.6757 26.4488 42.8452 27.0179 42.875 27.6892C42.875 27.6892 42.8776 27.7478 42.8828 27.865C42.8875 27.9716 42.8911 28.0515 42.8934 28.1048L38.4178 28.3035C38.4386 28.7724 38.5657 29.1084 38.7989 29.3116C39.0428 29.5143 39.3459 29.6077 39.7082 29.5916C40.0173 29.5778 40.2593 29.4977 40.4343 29.3511C40.6195 29.1934 40.7231 29.002 40.7451 28.7768L42.903 28.6809C42.8918 29.1512 42.7727 29.5943 42.5456 30.0101C42.318 30.4153 41.9803 30.7452 41.5325 31C41.0847 31.2548 40.5198 31.3973 39.8378 31.4276ZM38.41 27.407L40.6159 27.3091C40.6159 27.3091 40.6084 27.2613 40.5935 27.1659C40.5892 27.07 40.5523 26.9595 40.4827 26.8345C40.4131 26.7095 40.3015 26.6023 40.1481 26.513C39.9947 26.4237 39.7741 26.3855 39.4864 26.3983C39.1986 26.411 38.977 26.4689 38.8214 26.5719C38.6658 26.6749 38.5589 26.7918 38.5006 26.9225C38.453 27.0527 38.426 27.1661 38.4196 27.2624C38.4132 27.3588 38.41 27.407 38.41 27.407ZM53.047 28.5443C51.6455 29.09 50.4241 29.1133 49.3828 28.6144C48.3377 28.1056 47.5539 27.1802 47.0315 25.8383C46.6909 24.9636 46.552 24.1363 46.6147 23.3565C46.6774 22.5766 46.9571 21.8839 47.454 21.2784C47.9569 20.6591 48.6855 20.1637 49.6397 19.7922C50.5741 19.4284 51.4309 19.3066 52.2103 19.4267C52.9857 19.5369 53.6602 19.8581 54.2337 20.3903C54.8132 20.9087 55.2752 21.6102 55.6196 22.4949C55.9563 23.3597 56.0902 24.1889 56.0215 24.9826C55.9588 25.7624 55.681 26.4601 55.188 27.0755C54.695 27.691 53.9814 28.1806 53.047 28.5443ZM54.9919 29.9677C54.7732 30.0529 54.5407 30.1319 54.2944 30.2049C54.0481 30.2779 53.7955 30.2904 53.5364 30.2425C53.2774 30.1945 53.0194 30.0317 52.7625 29.754C52.5094 29.4862 52.2668 29.0541 52.0346 28.4577L51.7154 27.6377L53.6984 26.8657L53.9538 27.5217C54.0699 27.8199 54.158 28.0317 54.2183 28.157C54.2785 28.2824 54.3622 28.3356 54.4694 28.3168C54.5804 28.3079 54.7701 28.2513 55.0384 28.1468C54.9987 28.1623 55.0614 28.1321 55.2265 28.0564C55.4054 27.9868 55.5893 27.9152 55.7781 27.8416L56.3578 29.4188C56.328 29.4304 56.2336 29.4672 56.0745 29.5291C55.9254 29.5871 55.7614 29.651 55.5825 29.7206C55.4074 29.8002 55.2553 29.8652 55.1261 29.9155C55.0068 29.9619 54.9621 29.9793 54.9919 29.9677ZM52.2161 26.4984C52.9517 26.212 53.4133 25.7805 53.6008 25.2038C53.7884 24.6272 53.741 23.976 53.4585 23.2504C53.176 22.5248 52.7707 22.0129 52.2426 21.7149C51.7106 21.4069 51.0768 21.3961 50.3413 21.6825C49.6355 21.9572 49.182 22.3799 48.9806 22.9505C48.7753 23.5111 48.8217 24.1742 49.1197 24.9395C49.4022 25.6651 49.8075 26.177 50.3356 26.475C50.8637 26.7731 51.4905 26.7809 52.2161 26.4984ZM60.93 24.5635C60.5374 24.8395 60.1698 24.9936 59.8273 25.0258C59.4935 25.0518 59.1845 25.0017 58.9003 24.8756C58.6186 24.7346 58.367 24.5529 58.1455 24.3305C57.9178 24.0994 57.7168 23.8691 57.5425 23.6396C57.3707 23.3953 57.2265 23.1902 57.11 23.0244L55.196 20.3019L56.9761 19.0504L58.8993 21.7861C59.0281 21.9693 59.1731 22.1477 59.3342 22.3213C59.498 22.48 59.6869 22.5819 59.9011 22.6269C60.1179 22.657 60.3703 22.5709 60.6582 22.3685C60.9462 22.166 61.1083 21.9608 61.1446 21.7527C61.1747 21.536 61.1385 21.3267 61.0358 21.1251C60.9271 20.9147 60.8083 20.7179 60.6794 20.5346L58.7563 17.799L60.6411 16.4739L64.4506 21.8929L62.8669 23.0063L61.9585 22.354L61.9323 22.3725C61.9323 22.3725 61.9429 22.4432 61.9642 22.5847C61.988 22.7114 61.9849 22.8831 61.9547 23.0999C61.9246 23.3167 61.8329 23.5572 61.6796 23.8214C61.5289 24.0707 61.2791 24.3181 60.93 24.5635ZM68.2093 18.3997C67.6613 18.9825 67.1027 19.3431 66.5335 19.4814C65.9643 19.6197 65.4167 19.6026 64.8907 19.4302C64.3642 19.2426 63.8916 18.9667 63.4729 18.6023C62.9298 18.121 62.5629 17.6003 62.372 17.0403C62.1734 16.4729 62.1448 15.9116 62.2862 15.3564C62.427 14.7861 62.724 14.26 63.177 13.7782C63.6081 13.3197 64.0888 13.003 64.6192 12.8282C65.1491 12.6383 65.6839 12.6067 66.2236 12.7334C66.7705 12.8524 67.2888 13.142 67.7784 13.6023C67.7784 13.6023 67.8212 13.6425 67.9067 13.7229C67.9844 13.796 68.0427 13.8508 68.0815 13.8873L65.0128 17.1513C65.3548 17.4727 65.6802 17.6249 65.989 17.6079C66.3052 17.583 66.5875 17.4385 66.8359 17.1743C67.0478 16.9489 67.1653 16.7227 67.1885 16.4956C67.2112 16.2534 67.1519 16.0439 67.0107 15.8672L68.4902 14.2935C68.8102 14.6383 69.0339 15.0389 69.1611 15.4953C69.2806 15.9443 69.2688 16.4163 69.1256 16.9112C68.9824 17.4062 68.6769 17.9023 68.2093 18.3997ZM64.3819 16.5142L65.8944 14.9055C65.8944 14.9055 65.8557 14.8765 65.7785 14.8186C65.7086 14.7528 65.605 14.6994 65.4679 14.6583C65.3308 14.6173 65.1762 14.6183 65.004 14.6613C64.8317 14.7044 64.647 14.8308 64.4497 15.0406C64.2524 15.2505 64.134 15.4465 64.0943 15.6289C64.0546 15.8112 64.0595 15.9695 64.1089 16.1038C64.1657 16.2303 64.2253 16.3304 64.288 16.4039C64.3506 16.4774 64.3819 16.5142 64.3819 16.5142ZM73.2466 11.9131C73.207 11.9764 73.113 12.1063 72.9647 12.3029C72.8311 12.4961 72.6505 12.7039 72.423 12.9264C72.1921 13.1342 71.9234 13.312 71.6168 13.4598C71.3103 13.6076 70.975 13.6807 70.6109 13.6792C70.2434 13.663 69.8473 13.5218 69.4224 13.2556L70.5097 11.5201C70.5188 11.5258 70.564 11.5541 70.6453 11.605C70.7323 11.647 70.8397 11.6765 70.9675 11.6936C71.1009 11.7016 71.2451 11.6724 71.4 11.6058C71.5516 11.5246 71.7039 11.3619 71.8568 11.1179C71.987 10.91 72.0533 10.7438 72.0557 10.6195C72.0638 10.4861 72.0447 10.386 71.9984 10.3192C71.9521 10.2525 71.9109 10.2077 71.8747 10.1851C71.7391 10.1002 71.5825 10.109 71.4049 10.2117C71.2273 10.3144 71.0304 10.468 70.8142 10.6724C70.589 10.8712 70.3479 11.0852 70.091 11.3144C69.8308 11.529 69.5564 11.7158 69.2679 11.8749C68.9704 12.0284 68.6605 12.1112 68.3382 12.1233C68.016 12.1353 67.6786 12.031 67.326 11.8101C66.7475 11.4477 66.4603 10.9719 66.4643 10.3829C66.474 9.78475 66.6827 9.16028 67.0904 8.50945C67.3452 8.10268 67.6271 7.76322 67.9361 7.49106C68.236 7.21323 68.5573 7.01175 68.9001 6.88661C69.2338 6.75581 69.5832 6.71039 69.9483 6.75035C70.3101 6.77561 70.6746 6.89698 71.0419 7.11446L69.9716 8.82288C69.8179 8.72661 69.6744 8.67445 69.541 8.66639C69.3985 8.65267 69.269 8.67854 69.1525 8.744C69.0326 8.79475 68.9223 8.87039 68.8215 8.97091C68.7265 9.06239 68.6393 9.17141 68.56 9.29796C68.3958 9.5601 68.3334 9.76016 68.3728 9.89814C68.4032 10.0305 68.4636 10.1249 68.554 10.1816C68.7167 10.2835 68.8959 10.2888 69.0916 10.1974C69.2839 10.0913 69.4927 9.93891 69.7179 9.74015C69.9488 9.53235 70.1927 9.31383 70.4496 9.08457C70.7121 8.84628 70.9877 8.64758 71.2762 8.48846C71.5613 8.31464 71.8604 8.21886 72.1736 8.2011C72.4835 8.16864 72.8056 8.25717 73.1401 8.4667C73.4926 8.68756 73.7286 8.97387 73.8481 9.32563C73.9642 9.66269 73.9723 10.0516 73.8723 10.4925C73.7723 10.9334 73.5638 11.4069 73.2466 11.9131ZM76.4435 5.39164C76.1972 5.98235 75.8643 6.39252 75.445 6.62216C75.0257 6.85179 74.4517 6.81472 73.7232 6.51095L70.7401 5.26711L71.5406 3.34731L74.8633 4.73278L75.4545 3.31508L77.0346 3.97395L76.4435 5.39164ZM70.5749 6.20368L69.172 5.61871C69.2459 5.4415 69.2968 5.27782 69.3248 5.12767C69.3429 4.97342 69.3232 4.82654 69.2658 4.68704C69.2027 4.53359 69.078 4.38914 68.8918 4.25371C68.7096 4.10843 68.4463 3.96396 68.1017 3.82028L68.779 2.19584L70.3297 2.84239L70.9023 1.469L72.3052 2.05397L70.5749 6.20368Z" fill="#FBF3D3"/>
</svg>
