<svg width="320" height="165" viewBox="0 0 320 165" fill="none" xmlns="http://www.w3.org/2000/svg" xmlns:xlink="http://www.w3.org/1999/xlink">
<rect x="32.8347" y="298.135" width="27.835" height="298.019" rx="2" transform="rotate(-179.756 32.8347 298.135)" fill="#264156"/>
<g id="Repeat group 2_inner" data-figma-trr="l18u1.7-0f_l4p6-0f">
<path d="M29.2119 103.558L29.2048 100.261" stroke="#FBF3D3" stroke-width="2"/>
</g>
<use xlink:href="#Repeat%20group%202_inner" transform="translate(0 5.60363)"/>
<use xlink:href="#Repeat%20group%202_inner" transform="translate(0 11.2073)"/>
<use xlink:href="#Repeat%20group%202_inner" transform="translate(0 16.8109)"/>
<use xlink:href="#Repeat%20group%202_inner" transform="translate(0 22.4145)"/>
<use xlink:href="#Repeat%20group%202_inner" transform="translate(0 28.0181)"/>
<use xlink:href="#Repeat%20group%202_inner" transform="translate(0 33.6217)"/>
<use xlink:href="#Repeat%20group%202_inner" transform="translate(0 39.2254)"/>
<use xlink:href="#Repeat%20group%202_inner" transform="translate(0 44.829)"/>
<use xlink:href="#Repeat%20group%202_inner" transform="translate(0 50.4326)"/>
<use xlink:href="#Repeat%20group%202_inner" transform="translate(0 56.0363)"/>
<use xlink:href="#Repeat%20group%202_inner" transform="translate(0 61.6399)"/>
<use xlink:href="#Repeat%20group%202_inner" transform="translate(0 67.2435)"/>
<use xlink:href="#Repeat%20group%202_inner" transform="translate(0 72.8471)"/>
<use xlink:href="#Repeat%20group%202_inner" transform="translate(0 78.4508)"/>
<use xlink:href="#Repeat%20group%202_inner" transform="translate(0 84.0544)"/>
<use xlink:href="#Repeat%20group%202_inner" transform="translate(0 89.658)"/>
<use xlink:href="#Repeat%20group%202_inner" transform="translate(0 95.2616)"/>
<use xlink:href="#Repeat%20group%202_inner" transform="translate(6)"/>
<use xlink:href="#Repeat%20group%202_inner" transform="translate(6 5.60363)"/>
<use xlink:href="#Repeat%20group%202_inner" transform="translate(6 11.2073)"/>
<use xlink:href="#Repeat%20group%202_inner" transform="translate(6 16.8109)"/>
<use xlink:href="#Repeat%20group%202_inner" transform="translate(6 22.4145)"/>
<use xlink:href="#Repeat%20group%202_inner" transform="translate(6 28.0181)"/>
<use xlink:href="#Repeat%20group%202_inner" transform="translate(6 33.6217)"/>
<use xlink:href="#Repeat%20group%202_inner" transform="translate(6 39.2254)"/>
<use xlink:href="#Repeat%20group%202_inner" transform="translate(6 44.829)"/>
<use xlink:href="#Repeat%20group%202_inner" transform="translate(6 50.4326)"/>
<use xlink:href="#Repeat%20group%202_inner" transform="translate(6 56.0363)"/>
<use xlink:href="#Repeat%20group%202_inner" transform="translate(6 61.6399)"/>
<use xlink:href="#Repeat%20group%202_inner" transform="translate(6 67.2435)"/>
<use xlink:href="#Repeat%20group%202_inner" transform="translate(6 72.8471)"/>
<use xlink:href="#Repeat%20group%202_inner" transform="translate(6 78.4508)"/>
<use xlink:href="#Repeat%20group%202_inner" transform="translate(6 84.0544)"/>
<use xlink:href="#Repeat%20group%202_inner" transform="translate(6 89.658)"/>
<use xlink:href="#Repeat%20group%202_inner" transform="translate(6 95.2616)"/>
<use xlink:href="#Repeat%20group%202_inner" transform="translate(12)"/>
<use xlink:href="#Repeat%20group%202_inner" transform="translate(12 5.60363)"/>
<use xlink:href="#Repeat%20group%202_inner" transform="translate(12 11.2073)"/>
<use xlink:href="#Repeat%20group%202_inner" transform="translate(12 16.8109)"/>
<use xlink:href="#Repeat%20group%202_inner" transform="translate(12 22.4145)"/>
<use xlink:href="#Repeat%20group%202_inner" transform="translate(12 28.0181)"/>
<use xlink:href="#Repeat%20group%202_inner" transform="translate(12 33.6217)"/>
<use xlink:href="#Repeat%20group%202_inner" transform="translate(12 39.2254)"/>
<use xlink:href="#Repeat%20group%202_inner" transform="translate(12 44.829)"/>
<use xlink:href="#Repeat%20group%202_inner" transform="translate(12 50.4326)"/>
<use xlink:href="#Repeat%20group%202_inner" transform="translate(12 56.0363)"/>
<use xlink:href="#Repeat%20group%202_inner" transform="translate(12 61.6399)"/>
<use xlink:href="#Repeat%20group%202_inner" transform="translate(12 67.2435)"/>
<use xlink:href="#Repeat%20group%202_inner" transform="translate(12 72.8471)"/>
<use xlink:href="#Repeat%20group%202_inner" transform="translate(12 78.4508)"/>
<use xlink:href="#Repeat%20group%202_inner" transform="translate(12 84.0544)"/>
<use xlink:href="#Repeat%20group%202_inner" transform="translate(12 89.658)"/>
<use xlink:href="#Repeat%20group%202_inner" transform="translate(12 95.2616)"/>
<use xlink:href="#Repeat%20group%202_inner" transform="translate(18)"/>
<use xlink:href="#Repeat%20group%202_inner" transform="translate(18 5.60363)"/>
<use xlink:href="#Repeat%20group%202_inner" transform="translate(18 11.2073)"/>
<use xlink:href="#Repeat%20group%202_inner" transform="translate(18 16.8109)"/>
<use xlink:href="#Repeat%20group%202_inner" transform="translate(18 22.4145)"/>
<use xlink:href="#Repeat%20group%202_inner" transform="translate(18 28.0181)"/>
<use xlink:href="#Repeat%20group%202_inner" transform="translate(18 33.6217)"/>
<use xlink:href="#Repeat%20group%202_inner" transform="translate(18 39.2254)"/>
<use xlink:href="#Repeat%20group%202_inner" transform="translate(18 44.829)"/>
<use xlink:href="#Repeat%20group%202_inner" transform="translate(18 50.4326)"/>
<use xlink:href="#Repeat%20group%202_inner" transform="translate(18 56.0363)"/>
<use xlink:href="#Repeat%20group%202_inner" transform="translate(18 61.6399)"/>
<use xlink:href="#Repeat%20group%202_inner" transform="translate(18 67.2435)"/>
<use xlink:href="#Repeat%20group%202_inner" transform="translate(18 72.8471)"/>
<use xlink:href="#Repeat%20group%202_inner" transform="translate(18 78.4508)"/>
<use xlink:href="#Repeat%20group%202_inner" transform="translate(18 84.0544)"/>
<use xlink:href="#Repeat%20group%202_inner" transform="translate(18 89.658)"/>
<use xlink:href="#Repeat%20group%202_inner" transform="translate(18 95.2616)"/>
<path d="M86.0995 122C86.0995 123.105 85.2041 124 84.0995 124L76.6116 124L67.8469 124C66.7423 124 65.8469 123.105 65.8469 122L65.8469 76.1123C65.8469 76.0131 65.8543 75.914 65.869 75.8159L74.5171 18.1131C74.8604 15.8229 78.1717 15.8499 78.4775 18.1455L86.0994 75.3663L86.0995 122Z" fill="#264156"/>
<path d="M112.603 121.5C112.603 122.605 111.707 123.5 110.603 123.5L90.3156 123.5C89.2111 123.5 88.3156 122.605 88.3156 121.5L88.3156 72.5275C88.3156 71.0053 89.9485 70.0411 91.2815 70.7762L111.568 81.9647C112.206 82.3166 112.603 82.9875 112.603 83.716L112.603 121.5Z" fill="#264156"/>
<g id="Repeat group 17_inner" data-figma-trr="l6u1.5-0f_l5p4.5-0f">
<path d="M109.635 116.055L109.597 112.358" stroke="#FBF3D3"/>
</g>
<use xlink:href="#Repeat%20group%2017_inner" transform="translate(0 5.54564)"/>
<use xlink:href="#Repeat%20group%2017_inner" transform="translate(0 11.0913)"/>
<use xlink:href="#Repeat%20group%2017_inner" transform="translate(0 16.6369)"/>
<use xlink:href="#Repeat%20group%2017_inner" transform="translate(0 22.1825)"/>
<use xlink:href="#Repeat%20group%2017_inner" transform="translate(0 27.7282)"/>
<use xlink:href="#Repeat%20group%2017_inner" transform="translate(4.5)"/>
<use xlink:href="#Repeat%20group%2017_inner" transform="translate(4.5 5.54564)"/>
<use xlink:href="#Repeat%20group%2017_inner" transform="translate(4.5 11.0913)"/>
<use xlink:href="#Repeat%20group%2017_inner" transform="translate(4.5 16.6369)"/>
<use xlink:href="#Repeat%20group%2017_inner" transform="translate(4.5 22.1825)"/>
<use xlink:href="#Repeat%20group%2017_inner" transform="translate(4.5 27.7282)"/>
<use xlink:href="#Repeat%20group%2017_inner" transform="translate(9)"/>
<use xlink:href="#Repeat%20group%2017_inner" transform="translate(9 5.54564)"/>
<use xlink:href="#Repeat%20group%2017_inner" transform="translate(9 11.0913)"/>
<use xlink:href="#Repeat%20group%2017_inner" transform="translate(9 16.6369)"/>
<use xlink:href="#Repeat%20group%2017_inner" transform="translate(9 22.1825)"/>
<use xlink:href="#Repeat%20group%2017_inner" transform="translate(9 27.7282)"/>
<use xlink:href="#Repeat%20group%2017_inner" transform="translate(13.5)"/>
<use xlink:href="#Repeat%20group%2017_inner" transform="translate(13.5 5.54564)"/>
<use xlink:href="#Repeat%20group%2017_inner" transform="translate(13.5 11.0913)"/>
<use xlink:href="#Repeat%20group%2017_inner" transform="translate(13.5 16.6369)"/>
<use xlink:href="#Repeat%20group%2017_inner" transform="translate(13.5 22.1825)"/>
<use xlink:href="#Repeat%20group%2017_inner" transform="translate(13.5 27.7282)"/>
<use xlink:href="#Repeat%20group%2017_inner" transform="translate(18)"/>
<use xlink:href="#Repeat%20group%2017_inner" transform="translate(18 5.54564)"/>
<use xlink:href="#Repeat%20group%2017_inner" transform="translate(18 11.0913)"/>
<use xlink:href="#Repeat%20group%2017_inner" transform="translate(18 16.6369)"/>
<use xlink:href="#Repeat%20group%2017_inner" transform="translate(18 22.1825)"/>
<use xlink:href="#Repeat%20group%2017_inner" transform="translate(18 27.7282)"/>
<path d="M115.416 43.6353C115.418 42.5316 116.313 41.6379 117.417 41.6384L138.551 41.6478C139.655 41.6483 140.55 42.5436 140.55 43.6479L140.548 120.972C140.548 122.076 139.653 122.971 138.548 122.972L117.299 122.972C116.193 122.972 115.297 122.075 115.298 120.969L115.416 43.6353Z" fill="#264156"/>
<g id="Repeat group 17_2_inner" data-figma-trr="l12u1.5-0f_l5p4.5-0f">
<path d="M118 49.0735L118.015 52.7705" stroke="#FBF3D3"/>
</g>
<use xlink:href="#Repeat%20group%2017_2_inner" transform="translate(0 5.54564)"/>
<use xlink:href="#Repeat%20group%2017_2_inner" transform="translate(0 11.0913)"/>
<use xlink:href="#Repeat%20group%2017_2_inner" transform="translate(0 16.6369)"/>
<use xlink:href="#Repeat%20group%2017_2_inner" transform="translate(0 22.1825)"/>
<use xlink:href="#Repeat%20group%2017_2_inner" transform="translate(0 27.7282)"/>
<use xlink:href="#Repeat%20group%2017_2_inner" transform="translate(0 33.2738)"/>
<use xlink:href="#Repeat%20group%2017_2_inner" transform="translate(0 38.8195)"/>
<use xlink:href="#Repeat%20group%2017_2_inner" transform="translate(0 44.3651)"/>
<use xlink:href="#Repeat%20group%2017_2_inner" transform="translate(0 49.9107)"/>
<use xlink:href="#Repeat%20group%2017_2_inner" transform="translate(0 55.4564)"/>
<use xlink:href="#Repeat%20group%2017_2_inner" transform="translate(0 61.002)"/>
<use xlink:href="#Repeat%20group%2017_2_inner" transform="translate(4.5)"/>
<use xlink:href="#Repeat%20group%2017_2_inner" transform="translate(4.5 5.54564)"/>
<use xlink:href="#Repeat%20group%2017_2_inner" transform="translate(4.5 11.0913)"/>
<use xlink:href="#Repeat%20group%2017_2_inner" transform="translate(4.5 16.6369)"/>
<use xlink:href="#Repeat%20group%2017_2_inner" transform="translate(4.5 22.1825)"/>
<use xlink:href="#Repeat%20group%2017_2_inner" transform="translate(4.5 27.7282)"/>
<use xlink:href="#Repeat%20group%2017_2_inner" transform="translate(4.5 33.2738)"/>
<use xlink:href="#Repeat%20group%2017_2_inner" transform="translate(4.5 38.8195)"/>
<use xlink:href="#Repeat%20group%2017_2_inner" transform="translate(4.5 44.3651)"/>
<use xlink:href="#Repeat%20group%2017_2_inner" transform="translate(4.5 49.9107)"/>
<use xlink:href="#Repeat%20group%2017_2_inner" transform="translate(4.5 55.4564)"/>
<use xlink:href="#Repeat%20group%2017_2_inner" transform="translate(4.5 61.002)"/>
<use xlink:href="#Repeat%20group%2017_2_inner" transform="translate(9)"/>
<use xlink:href="#Repeat%20group%2017_2_inner" transform="translate(9 5.54564)"/>
<use xlink:href="#Repeat%20group%2017_2_inner" transform="translate(9 11.0913)"/>
<use xlink:href="#Repeat%20group%2017_2_inner" transform="translate(9 16.6369)"/>
<use xlink:href="#Repeat%20group%2017_2_inner" transform="translate(9 22.1825)"/>
<use xlink:href="#Repeat%20group%2017_2_inner" transform="translate(9 27.7282)"/>
<use xlink:href="#Repeat%20group%2017_2_inner" transform="translate(9 33.2738)"/>
<use xlink:href="#Repeat%20group%2017_2_inner" transform="translate(9 38.8195)"/>
<use xlink:href="#Repeat%20group%2017_2_inner" transform="translate(9 44.3651)"/>
<use xlink:href="#Repeat%20group%2017_2_inner" transform="translate(9 49.9107)"/>
<use xlink:href="#Repeat%20group%2017_2_inner" transform="translate(9 55.4564)"/>
<use xlink:href="#Repeat%20group%2017_2_inner" transform="translate(9 61.002)"/>
<use xlink:href="#Repeat%20group%2017_2_inner" transform="translate(13.5)"/>
<use xlink:href="#Repeat%20group%2017_2_inner" transform="translate(13.5 5.54564)"/>
<use xlink:href="#Repeat%20group%2017_2_inner" transform="translate(13.5 11.0913)"/>
<use xlink:href="#Repeat%20group%2017_2_inner" transform="translate(13.5 16.6369)"/>
<use xlink:href="#Repeat%20group%2017_2_inner" transform="translate(13.5 22.1825)"/>
<use xlink:href="#Repeat%20group%2017_2_inner" transform="translate(13.5 27.7282)"/>
<use xlink:href="#Repeat%20group%2017_2_inner" transform="translate(13.5 33.2738)"/>
<use xlink:href="#Repeat%20group%2017_2_inner" transform="translate(13.5 38.8195)"/>
<use xlink:href="#Repeat%20group%2017_2_inner" transform="translate(13.5 44.3651)"/>
<use xlink:href="#Repeat%20group%2017_2_inner" transform="translate(13.5 49.9107)"/>
<use xlink:href="#Repeat%20group%2017_2_inner" transform="translate(13.5 55.4564)"/>
<use xlink:href="#Repeat%20group%2017_2_inner" transform="translate(13.5 61.002)"/>
<use xlink:href="#Repeat%20group%2017_2_inner" transform="translate(18)"/>
<use xlink:href="#Repeat%20group%2017_2_inner" transform="translate(18 5.54564)"/>
<use xlink:href="#Repeat%20group%2017_2_inner" transform="translate(18 11.0913)"/>
<use xlink:href="#Repeat%20group%2017_2_inner" transform="translate(18 16.6369)"/>
<use xlink:href="#Repeat%20group%2017_2_inner" transform="translate(18 22.1825)"/>
<use xlink:href="#Repeat%20group%2017_2_inner" transform="translate(18 27.7282)"/>
<use xlink:href="#Repeat%20group%2017_2_inner" transform="translate(18 33.2738)"/>
<use xlink:href="#Repeat%20group%2017_2_inner" transform="translate(18 38.8195)"/>
<use xlink:href="#Repeat%20group%2017_2_inner" transform="translate(18 44.3651)"/>
<use xlink:href="#Repeat%20group%2017_2_inner" transform="translate(18 49.9107)"/>
<use xlink:href="#Repeat%20group%2017_2_inner" transform="translate(18 55.4564)"/>
<use xlink:href="#Repeat%20group%2017_2_inner" transform="translate(18 61.002)"/>
<path d="M160.162 281.768C159.069 281.745 158.159 282.605 158.121 283.698L157.994 287.35C157.955 288.46 157.02 289.325 155.911 289.279L142.608 288.718C141.528 288.673 140.678 287.918 140.69 286.837C140.942 265.186 143.415 55.0883 145.07 36.3017C146.815 16.492 154.816 -12.0653 169.503 16.2421C183.437 43.0988 175.143 258.271 174.256 280.255C174.212 281.342 173.312 282.047 172.224 282.024L160.162 281.768Z" fill="#264156"/>
<path d="M63.6694 119.35C63.6685 120.462 62.7609 121.359 61.6491 121.348L52.6622 121.257L39.2137 121.18C38.113 121.174 37.2242 120.28 37.225 119.179L37.2481 89.1746C37.2486 88.5558 37.5355 87.9721 38.0251 87.5937L50.0744 78.2813C50.835 77.6934 51.9062 77.7299 52.6252 78.368L63.0205 87.5962C63.4484 87.9761 63.6931 88.5212 63.6927 89.0934L63.6694 119.35Z" fill="#264156"/>
<g id="Repeat group 13_inner" data-figma-trr="l3u1.9-0f_l2p16-0f">
<path d="M58.3653 112.235L58.4077 108.644" stroke="#FBF3D3" stroke-width="7"/>
</g>
<use xlink:href="#Repeat%20group%2013_inner" transform="translate(0 6.82284)"/>
<use xlink:href="#Repeat%20group%2013_inner" transform="translate(0 13.6457)"/>
<use xlink:href="#Repeat%20group%2013_inner" transform="translate(16)"/>
<use xlink:href="#Repeat%20group%2013_inner" transform="translate(16 6.82284)"/>
<use xlink:href="#Repeat%20group%2013_inner" transform="translate(16 13.6457)"/>
<path d="M195.785 83.1476C196.879 83.1393 197.764 82.2538 197.77 81.1599L197.793 77.5058C197.799 76.3956 198.709 75.5034 199.819 75.5182L213.133 75.6955C214.213 75.7099 215.085 76.44 215.103 77.5205C215.475 99.1701 219.05 309.252 217.937 328.078C216.764 347.93 209.588 376.706 194.092 348.833C179.39 322.388 181.487 107.067 181.741 85.0665C181.753 83.9783 182.633 83.2473 183.721 83.239L195.785 83.1476Z" fill="#264156"/>
<g id="Repeat group 17_3_inner" data-figma-trr="l5u1.5-0f_l7p4.5-0f">
<path d="M185.135 86.5571L185.159 90.2541" stroke="#FBF3D3"/>
</g>
<use xlink:href="#Repeat%20group%2017_3_inner" transform="translate(0 5.54564)"/>
<use xlink:href="#Repeat%20group%2017_3_inner" transform="translate(0 11.0913)"/>
<use xlink:href="#Repeat%20group%2017_3_inner" transform="translate(0 16.6369)"/>
<use xlink:href="#Repeat%20group%2017_3_inner" transform="translate(0 22.1825)"/>
<use xlink:href="#Repeat%20group%2017_3_inner" transform="translate(4.5)"/>
<use xlink:href="#Repeat%20group%2017_3_inner" transform="translate(4.5 5.54564)"/>
<use xlink:href="#Repeat%20group%2017_3_inner" transform="translate(4.5 11.0913)"/>
<use xlink:href="#Repeat%20group%2017_3_inner" transform="translate(4.5 16.6369)"/>
<use xlink:href="#Repeat%20group%2017_3_inner" transform="translate(4.5 22.1825)"/>
<use xlink:href="#Repeat%20group%2017_3_inner" transform="translate(9)"/>
<use xlink:href="#Repeat%20group%2017_3_inner" transform="translate(9 5.54564)"/>
<use xlink:href="#Repeat%20group%2017_3_inner" transform="translate(9 11.0913)"/>
<use xlink:href="#Repeat%20group%2017_3_inner" transform="translate(9 16.6369)"/>
<use xlink:href="#Repeat%20group%2017_3_inner" transform="translate(9 22.1825)"/>
<use xlink:href="#Repeat%20group%2017_3_inner" transform="translate(13.5)"/>
<use xlink:href="#Repeat%20group%2017_3_inner" transform="translate(13.5 5.54564)"/>
<use xlink:href="#Repeat%20group%2017_3_inner" transform="translate(13.5 11.0913)"/>
<use xlink:href="#Repeat%20group%2017_3_inner" transform="translate(13.5 16.6369)"/>
<use xlink:href="#Repeat%20group%2017_3_inner" transform="translate(13.5 22.1825)"/>
<use xlink:href="#Repeat%20group%2017_3_inner" transform="translate(18)"/>
<use xlink:href="#Repeat%20group%2017_3_inner" transform="translate(18 5.54564)"/>
<use xlink:href="#Repeat%20group%2017_3_inner" transform="translate(18 11.0913)"/>
<use xlink:href="#Repeat%20group%2017_3_inner" transform="translate(18 16.6369)"/>
<use xlink:href="#Repeat%20group%2017_3_inner" transform="translate(18 22.1825)"/>
<use xlink:href="#Repeat%20group%2017_3_inner" transform="translate(22.5)"/>
<use xlink:href="#Repeat%20group%2017_3_inner" transform="translate(22.5 5.54564)"/>
<use xlink:href="#Repeat%20group%2017_3_inner" transform="translate(22.5 11.0913)"/>
<use xlink:href="#Repeat%20group%2017_3_inner" transform="translate(22.5 16.6369)"/>
<use xlink:href="#Repeat%20group%2017_3_inner" transform="translate(22.5 22.1825)"/>
<use xlink:href="#Repeat%20group%2017_3_inner" transform="translate(27)"/>
<use xlink:href="#Repeat%20group%2017_3_inner" transform="translate(27 5.54564)"/>
<use xlink:href="#Repeat%20group%2017_3_inner" transform="translate(27 11.0913)"/>
<use xlink:href="#Repeat%20group%2017_3_inner" transform="translate(27 16.6369)"/>
<use xlink:href="#Repeat%20group%2017_3_inner" transform="translate(27 22.1825)"/>
<path d="M218.004 44.05C218.002 42.9455 218.895 42.0483 220 42.0461L241.125 42.0041C242.232 42.0019 243.13 42.8994 243.129 44.0065L242.781 324.317C242.779 325.842 241.141 326.804 239.809 326.062L219.566 314.798C218.933 314.445 218.54 313.778 218.539 313.054L218.004 44.05Z" fill="#264156"/>
<g id="Repeat group 17_4_inner" data-figma-trr="l12u1.5-0f_l5p4.5-0f">
<path d="M221.111 44.7581L221.135 48.4551" stroke="#FBF3D3"/>
</g>
<use xlink:href="#Repeat%20group%2017_4_inner" transform="translate(0 5.54564)"/>
<use xlink:href="#Repeat%20group%2017_4_inner" transform="translate(0 11.0913)"/>
<use xlink:href="#Repeat%20group%2017_4_inner" transform="translate(0 16.6369)"/>
<use xlink:href="#Repeat%20group%2017_4_inner" transform="translate(0 22.1825)"/>
<use xlink:href="#Repeat%20group%2017_4_inner" transform="translate(0 27.7282)"/>
<use xlink:href="#Repeat%20group%2017_4_inner" transform="translate(0 33.2738)"/>
<use xlink:href="#Repeat%20group%2017_4_inner" transform="translate(0 38.8195)"/>
<use xlink:href="#Repeat%20group%2017_4_inner" transform="translate(0 44.3651)"/>
<use xlink:href="#Repeat%20group%2017_4_inner" transform="translate(0 49.9107)"/>
<use xlink:href="#Repeat%20group%2017_4_inner" transform="translate(0 55.4564)"/>
<use xlink:href="#Repeat%20group%2017_4_inner" transform="translate(0 61.002)"/>
<use xlink:href="#Repeat%20group%2017_4_inner" transform="translate(4.5)"/>
<use xlink:href="#Repeat%20group%2017_4_inner" transform="translate(4.5 5.54564)"/>
<use xlink:href="#Repeat%20group%2017_4_inner" transform="translate(4.5 11.0913)"/>
<use xlink:href="#Repeat%20group%2017_4_inner" transform="translate(4.5 16.6369)"/>
<use xlink:href="#Repeat%20group%2017_4_inner" transform="translate(4.5 22.1825)"/>
<use xlink:href="#Repeat%20group%2017_4_inner" transform="translate(4.5 27.7282)"/>
<use xlink:href="#Repeat%20group%2017_4_inner" transform="translate(4.5 33.2738)"/>
<use xlink:href="#Repeat%20group%2017_4_inner" transform="translate(4.5 38.8195)"/>
<use xlink:href="#Repeat%20group%2017_4_inner" transform="translate(4.5 44.3651)"/>
<use xlink:href="#Repeat%20group%2017_4_inner" transform="translate(4.5 49.9107)"/>
<use xlink:href="#Repeat%20group%2017_4_inner" transform="translate(4.5 55.4564)"/>
<use xlink:href="#Repeat%20group%2017_4_inner" transform="translate(4.5 61.002)"/>
<use xlink:href="#Repeat%20group%2017_4_inner" transform="translate(9)"/>
<use xlink:href="#Repeat%20group%2017_4_inner" transform="translate(9 5.54564)"/>
<use xlink:href="#Repeat%20group%2017_4_inner" transform="translate(9 11.0913)"/>
<use xlink:href="#Repeat%20group%2017_4_inner" transform="translate(9 16.6369)"/>
<use xlink:href="#Repeat%20group%2017_4_inner" transform="translate(9 22.1825)"/>
<use xlink:href="#Repeat%20group%2017_4_inner" transform="translate(9 27.7282)"/>
<use xlink:href="#Repeat%20group%2017_4_inner" transform="translate(9 33.2738)"/>
<use xlink:href="#Repeat%20group%2017_4_inner" transform="translate(9 38.8195)"/>
<use xlink:href="#Repeat%20group%2017_4_inner" transform="translate(9 44.3651)"/>
<use xlink:href="#Repeat%20group%2017_4_inner" transform="translate(9 49.9107)"/>
<use xlink:href="#Repeat%20group%2017_4_inner" transform="translate(9 55.4564)"/>
<use xlink:href="#Repeat%20group%2017_4_inner" transform="translate(9 61.002)"/>
<use xlink:href="#Repeat%20group%2017_4_inner" transform="translate(13.5)"/>
<use xlink:href="#Repeat%20group%2017_4_inner" transform="translate(13.5 5.54564)"/>
<use xlink:href="#Repeat%20group%2017_4_inner" transform="translate(13.5 11.0913)"/>
<use xlink:href="#Repeat%20group%2017_4_inner" transform="translate(13.5 16.6369)"/>
<use xlink:href="#Repeat%20group%2017_4_inner" transform="translate(13.5 22.1825)"/>
<use xlink:href="#Repeat%20group%2017_4_inner" transform="translate(13.5 27.7282)"/>
<use xlink:href="#Repeat%20group%2017_4_inner" transform="translate(13.5 33.2738)"/>
<use xlink:href="#Repeat%20group%2017_4_inner" transform="translate(13.5 38.8195)"/>
<use xlink:href="#Repeat%20group%2017_4_inner" transform="translate(13.5 44.3651)"/>
<use xlink:href="#Repeat%20group%2017_4_inner" transform="translate(13.5 49.9107)"/>
<use xlink:href="#Repeat%20group%2017_4_inner" transform="translate(13.5 55.4564)"/>
<use xlink:href="#Repeat%20group%2017_4_inner" transform="translate(13.5 61.002)"/>
<use xlink:href="#Repeat%20group%2017_4_inner" transform="translate(18)"/>
<use xlink:href="#Repeat%20group%2017_4_inner" transform="translate(18 5.54564)"/>
<use xlink:href="#Repeat%20group%2017_4_inner" transform="translate(18 11.0913)"/>
<use xlink:href="#Repeat%20group%2017_4_inner" transform="translate(18 16.6369)"/>
<use xlink:href="#Repeat%20group%2017_4_inner" transform="translate(18 22.1825)"/>
<use xlink:href="#Repeat%20group%2017_4_inner" transform="translate(18 27.7282)"/>
<use xlink:href="#Repeat%20group%2017_4_inner" transform="translate(18 33.2738)"/>
<use xlink:href="#Repeat%20group%2017_4_inner" transform="translate(18 38.8195)"/>
<use xlink:href="#Repeat%20group%2017_4_inner" transform="translate(18 44.3651)"/>
<use xlink:href="#Repeat%20group%2017_4_inner" transform="translate(18 49.9107)"/>
<use xlink:href="#Repeat%20group%2017_4_inner" transform="translate(18 55.4564)"/>
<use xlink:href="#Repeat%20group%2017_4_inner" transform="translate(18 61.002)"/>
<path d="M245.714 92.4565C245.715 91.9714 245.893 91.5035 246.214 91.1398L256.197 79.8227C257.018 78.8912 258.482 78.9262 259.258 79.896L268.327 91.2265C268.612 91.5829 268.767 92.0261 268.765 92.4826L268.09 305.441C268.088 305.985 267.864 306.505 267.471 306.881L257.829 316.087C257.048 316.833 255.815 316.824 255.045 316.066L245.635 306.81C245.252 306.432 245.036 305.916 245.038 305.378L245.714 92.4565Z" fill="#264156"/>
<g id="Repeat group 15_inner" data-figma-trr="l3u1.9-0f_l3p7-0f">
<path d="M264.865 112.757L264.821 109.156" stroke="#FBF3D3" stroke-width="3"/>
</g>
<use xlink:href="#Repeat%20group%2015_inner" transform="translate(0 6.84225)"/>
<use xlink:href="#Repeat%20group%2015_inner" transform="translate(0 13.6845)"/>
<use xlink:href="#Repeat%20group%2015_inner" transform="translate(7)"/>
<use xlink:href="#Repeat%20group%2015_inner" transform="translate(7 6.84225)"/>
<use xlink:href="#Repeat%20group%2015_inner" transform="translate(7 13.6845)"/>
<use xlink:href="#Repeat%20group%2015_inner" transform="translate(14)"/>
<use xlink:href="#Repeat%20group%2015_inner" transform="translate(14 6.84225)"/>
<use xlink:href="#Repeat%20group%2015_inner" transform="translate(14 13.6845)"/>
<rect x="271" y="40" width="27.835" height="79.8863" rx="2" fill="#264156"/>
<g id="Repeat group 1_inner" data-figma-trr="l10u1.8-0f_l4p6-0f">
<path d="M293.998 102.497L293.98 99.2004" stroke="#FBF3D3" stroke-width="2"/>
</g>
<use xlink:href="#Repeat%20group%201_inner" transform="translate(0 5.93325)"/>
<use xlink:href="#Repeat%20group%201_inner" transform="translate(0 11.8665)"/>
<use xlink:href="#Repeat%20group%201_inner" transform="translate(0 17.7997)"/>
<use xlink:href="#Repeat%20group%201_inner" transform="translate(0 23.733)"/>
<use xlink:href="#Repeat%20group%201_inner" transform="translate(0 29.6663)"/>
<use xlink:href="#Repeat%20group%201_inner" transform="translate(0 35.5995)"/>
<use xlink:href="#Repeat%20group%201_inner" transform="translate(0 41.5327)"/>
<use xlink:href="#Repeat%20group%201_inner" transform="translate(0 47.466)"/>
<use xlink:href="#Repeat%20group%201_inner" transform="translate(0 53.3993)"/>
<use xlink:href="#Repeat%20group%201_inner" transform="translate(6)"/>
<use xlink:href="#Repeat%20group%201_inner" transform="translate(6 5.93325)"/>
<use xlink:href="#Repeat%20group%201_inner" transform="translate(6 11.8665)"/>
<use xlink:href="#Repeat%20group%201_inner" transform="translate(6 17.7997)"/>
<use xlink:href="#Repeat%20group%201_inner" transform="translate(6 23.733)"/>
<use xlink:href="#Repeat%20group%201_inner" transform="translate(6 29.6663)"/>
<use xlink:href="#Repeat%20group%201_inner" transform="translate(6 35.5995)"/>
<use xlink:href="#Repeat%20group%201_inner" transform="translate(6 41.5327)"/>
<use xlink:href="#Repeat%20group%201_inner" transform="translate(6 47.466)"/>
<use xlink:href="#Repeat%20group%201_inner" transform="translate(6 53.3993)"/>
<use xlink:href="#Repeat%20group%201_inner" transform="translate(12)"/>
<use xlink:href="#Repeat%20group%201_inner" transform="translate(12 5.93325)"/>
<use xlink:href="#Repeat%20group%201_inner" transform="translate(12 11.8665)"/>
<use xlink:href="#Repeat%20group%201_inner" transform="translate(12 17.7997)"/>
<use xlink:href="#Repeat%20group%201_inner" transform="translate(12 23.733)"/>
<use xlink:href="#Repeat%20group%201_inner" transform="translate(12 29.6663)"/>
<use xlink:href="#Repeat%20group%201_inner" transform="translate(12 35.5995)"/>
<use xlink:href="#Repeat%20group%201_inner" transform="translate(12 41.5327)"/>
<use xlink:href="#Repeat%20group%201_inner" transform="translate(12 47.466)"/>
<use xlink:href="#Repeat%20group%201_inner" transform="translate(12 53.3993)"/>
<use xlink:href="#Repeat%20group%201_inner" transform="translate(18)"/>
<use xlink:href="#Repeat%20group%201_inner" transform="translate(18 5.93325)"/>
<use xlink:href="#Repeat%20group%201_inner" transform="translate(18 11.8665)"/>
<use xlink:href="#Repeat%20group%201_inner" transform="translate(18 17.7997)"/>
<use xlink:href="#Repeat%20group%201_inner" transform="translate(18 23.733)"/>
<use xlink:href="#Repeat%20group%201_inner" transform="translate(18 29.6663)"/>
<use xlink:href="#Repeat%20group%201_inner" transform="translate(18 35.5995)"/>
<use xlink:href="#Repeat%20group%201_inner" transform="translate(18 41.5327)"/>
<use xlink:href="#Repeat%20group%201_inner" transform="translate(18 47.466)"/>
<use xlink:href="#Repeat%20group%201_inner" transform="translate(18 53.3993)"/>
<rect x="301.27" y="60" width="15.5165" height="294.546" rx="2" transform="rotate(0.0525612 301.27 60)" fill="#264156"/>
<g id="Repeat group 17_5_inner" data-figma-trr="l10u1.5-0f_l3p4.5-0f">
<path d="M304.194 63.6279L304.191 66.9242" stroke="#FBF3D3"/>
</g>
<use xlink:href="#Repeat%20group%2017_5_inner" transform="translate(0 4.94438)"/>
<use xlink:href="#Repeat%20group%2017_5_inner" transform="translate(0 9.88875)"/>
<use xlink:href="#Repeat%20group%2017_5_inner" transform="translate(0 14.8331)"/>
<use xlink:href="#Repeat%20group%2017_5_inner" transform="translate(0 19.7775)"/>
<use xlink:href="#Repeat%20group%2017_5_inner" transform="translate(0 24.7219)"/>
<use xlink:href="#Repeat%20group%2017_5_inner" transform="translate(0 29.6663)"/>
<use xlink:href="#Repeat%20group%2017_5_inner" transform="translate(0 34.6106)"/>
<use xlink:href="#Repeat%20group%2017_5_inner" transform="translate(0 39.555)"/>
<use xlink:href="#Repeat%20group%2017_5_inner" transform="translate(0 44.4994)"/>
<use xlink:href="#Repeat%20group%2017_5_inner" transform="translate(4.5)"/>
<use xlink:href="#Repeat%20group%2017_5_inner" transform="translate(4.5 4.94438)"/>
<use xlink:href="#Repeat%20group%2017_5_inner" transform="translate(4.5 9.88875)"/>
<use xlink:href="#Repeat%20group%2017_5_inner" transform="translate(4.5 14.8331)"/>
<use xlink:href="#Repeat%20group%2017_5_inner" transform="translate(4.5 19.7775)"/>
<use xlink:href="#Repeat%20group%2017_5_inner" transform="translate(4.5 24.7219)"/>
<use xlink:href="#Repeat%20group%2017_5_inner" transform="translate(4.5 29.6663)"/>
<use xlink:href="#Repeat%20group%2017_5_inner" transform="translate(4.5 34.6106)"/>
<use xlink:href="#Repeat%20group%2017_5_inner" transform="translate(4.5 39.555)"/>
<use xlink:href="#Repeat%20group%2017_5_inner" transform="translate(4.5 44.4994)"/>
<use xlink:href="#Repeat%20group%2017_5_inner" transform="translate(9)"/>
<use xlink:href="#Repeat%20group%2017_5_inner" transform="translate(9 4.94438)"/>
<use xlink:href="#Repeat%20group%2017_5_inner" transform="translate(9 9.88875)"/>
<use xlink:href="#Repeat%20group%2017_5_inner" transform="translate(9 14.8331)"/>
<use xlink:href="#Repeat%20group%2017_5_inner" transform="translate(9 19.7775)"/>
<use xlink:href="#Repeat%20group%2017_5_inner" transform="translate(9 24.7219)"/>
<use xlink:href="#Repeat%20group%2017_5_inner" transform="translate(9 29.6663)"/>
<use xlink:href="#Repeat%20group%2017_5_inner" transform="translate(9 34.6106)"/>
<use xlink:href="#Repeat%20group%2017_5_inner" transform="translate(9 39.555)"/>
<use xlink:href="#Repeat%20group%2017_5_inner" transform="translate(9 44.4994)"/>
<rect x="-5" y="116" width="327" height="49" fill="#264156"/>
</svg>
