<svg width="26" height="26" viewBox="0 0 26 26" fill="none" xmlns="http://www.w3.org/2000/svg">
<path d="M11.6667 4.66667V0H14V4.66667H11.6667ZM19.425 7.875L17.8208 6.27083L21.0875 2.91667L22.7208 4.57917L19.425 7.875ZM21 14V11.6667H25.6667V14H21ZM11.6667 25.6667V21H14V25.6667H11.6667ZM6.24167 7.81667L2.91667 4.57917L4.57917 2.94583L7.875 6.24167L6.24167 7.81667ZM21.0583 22.75L17.8208 19.3958L19.3958 17.8208L22.7208 21.0292L21.0583 22.75ZM0 14V11.6667H4.66667V14H0ZM4.57917 22.75L2.94583 21.0875L6.2125 17.8208L7.05833 18.6083L7.90417 19.425L4.57917 22.75ZM12.8333 19.8333C10.8889 19.8333 9.23611 19.1528 7.875 17.7917C6.51389 16.4306 5.83333 14.7778 5.83333 12.8333C5.83333 10.8889 6.51389 9.23611 7.875 7.875C9.23611 6.51389 10.8889 5.83333 12.8333 5.83333C14.7778 5.83333 16.4306 6.51389 17.7917 7.875C19.1528 9.23611 19.8333 10.8889 19.8333 12.8333C19.8333 14.7778 19.1528 16.4306 17.7917 17.7917C16.4306 19.1528 14.7778 19.8333 12.8333 19.8333ZM12.8333 17.5C14.1167 17.5 15.2153 17.0431 16.1292 16.1292C17.0431 15.2153 17.5 14.1167 17.5 12.8333C17.5 11.55 17.0431 10.4514 16.1292 9.5375C15.2153 8.62361 14.1167 8.16667 12.8333 8.16667C11.55 8.16667 10.4514 8.62361 9.5375 9.5375C8.62361 10.4514 8.16667 11.55 8.16667 12.8333C8.16667 14.1167 8.62361 15.2153 9.5375 16.1292C10.4514 17.0431 11.55 17.5 12.8333 17.5Z" fill="#80C2B3"/>
</svg>
