<svg width="55" height="56" viewBox="0 0 55 56" fill="none" xmlns="http://www.w3.org/2000/svg">
<ellipse cx="27.5912" cy="16.883" rx="6" ry="10.2686" transform="rotate(32.6435 27.5912 16.883)" fill="#E5DBB2"/>
<path d="M1.18565 54.6156C10.4409 45.3777 17.7619 33.7144 20.4517 31.5368C29.1307 19.1013 29.9975 12.9977 29.1599 9.00107" stroke="#007838" stroke-width="3"/>
<ellipse cx="41.039" cy="15.1738" rx="6" ry="11.924" transform="rotate(-50.9274 41.039 15.1738)" fill="#FBF3D3"/>
<ellipse cx="20.11" cy="15.2665" rx="6" ry="14" transform="rotate(-120.444 20.11 15.2665)" fill="#FBF3D3"/>
<ellipse cx="18.8932" cy="6.67816" rx="6" ry="12.4152" transform="rotate(-93.1744 18.8932 6.67816)" fill="#FBF3D3"/>
<ellipse cx="34.4348" cy="20.6789" rx="6" ry="13.5636" transform="rotate(-15.6418 34.4348 20.6789)" fill="#FBF3D3"/>
<ellipse cx="33.0609" cy="5.93701" rx="7.5" ry="3" transform="rotate(25.5044 33.0609 5.93701)" fill="#FDBE3D"/>
<ellipse cx="23" cy="43.5" rx="13" ry="2.5" fill="#007838"/>
</svg>
