<svg width="59" height="59" viewBox="0 0 59 59" fill="none" xmlns="http://www.w3.org/2000/svg">
<circle cx="29.5" cy="29.5" r="29.5" fill="#68B0BA"/>
<path d="M45 32.5C46.3807 32.5 47.5 31.3807 47.5 30C47.5 28.6193 46.3807 27.5 45 27.5L45 32.5ZM9.23223 28.2322C8.25592 29.2085 8.25592 30.7915 9.23223 31.7678L25.1421 47.6777C26.1184 48.654 27.7014 48.654 28.6777 47.6777C29.654 46.7014 29.654 45.1184 28.6777 44.1421L14.5355 30L28.6777 15.8579C29.654 14.8816 29.654 13.2986 28.6777 12.3223C27.7014 11.346 26.1184 11.346 25.1421 12.3223L9.23223 28.2322ZM45 30L45 27.5L11 27.5L11 30L11 32.5L45 32.5L45 30Z" fill="#FBF3D3"/>
</svg>
