<svg width="208" height="56" viewBox="0 0 208 56" fill="none" xmlns="http://www.w3.org/2000/svg">
<path d="M28.7588 12.325C28.9454 12.675 29.0504 12.99 29.0738 13.27C29.1204 13.55 29.1438 13.9583 29.1438 14.495V33.92C29.1438 35.53 28.7004 36.475 27.8138 36.755C27.3704 36.895 26.8104 36.965 26.1338 36.965C25.4571 36.965 24.9204 36.9067 24.5238 36.79C24.1271 36.6733 23.8238 36.5333 23.6138 36.37C23.4038 36.2067 23.2404 35.9733 23.1238 35.67C23.0071 35.2733 22.9488 34.6667 22.9488 33.85V22.125C22.3654 22.8483 21.5138 24.0033 20.3938 25.59C19.2738 27.1533 18.5621 28.1333 18.2588 28.53C17.9554 28.9267 17.7454 29.2067 17.6288 29.37C17.5121 29.51 17.2204 29.72 16.7538 30C16.3104 30.2567 15.8204 30.385 15.2838 30.385C14.7704 30.385 14.2921 30.2683 13.8488 30.035C13.4288 29.7783 13.1254 29.5333 12.9388 29.3L12.6588 28.915C12.1921 28.3317 11.2704 27.095 9.89375 25.205C8.51708 23.2917 7.77042 22.265 7.65375 22.125V33.92C7.65375 34.4567 7.63042 34.865 7.58375 35.145C7.56042 35.4017 7.45542 35.6933 7.26875 36.02C6.91875 36.65 6.00875 36.965 4.53875 36.965C3.11542 36.965 2.22875 36.65 1.87875 36.02C1.69208 35.6933 1.57542 35.39 1.52875 35.11C1.50542 34.83 1.49375 34.41 1.49375 33.85V14.425C1.49375 13.8883 1.50542 13.4917 1.52875 13.235C1.57542 12.955 1.69208 12.64 1.87875 12.29C2.22875 11.6833 3.13875 11.38 4.60875 11.38C5.23875 11.38 5.77542 11.4617 6.21875 11.625C6.68542 11.765 6.98875 11.9167 7.12875 12.08L7.33875 12.29L15.2838 22.72C19.2504 17.47 21.8988 14.005 23.2288 12.325C23.6254 11.695 24.5588 11.38 26.0288 11.38C27.5221 11.38 28.4321 11.695 28.7588 12.325ZM77.6455 16.525C78.2522 17.7617 78.5555 19.1383 78.5555 20.655C78.5555 22.1717 78.2522 23.5483 77.6455 24.785C77.0389 25.9983 76.2572 26.9667 75.3005 27.69C73.3639 29.1833 71.3572 29.93 69.2805 29.93H64.9055V33.885C64.9055 34.4217 64.8822 34.83 64.8355 35.11C64.8122 35.3667 64.7072 35.67 64.5205 36.02C64.1939 36.65 63.2839 36.965 61.7905 36.965C60.1572 36.965 59.2005 36.5333 58.9205 35.67C58.7805 35.2733 58.7105 34.6667 58.7105 33.85V14.425C58.7105 13.8883 58.7222 13.4917 58.7455 13.235C58.7922 12.955 58.9089 12.64 59.0955 12.29C59.4222 11.66 60.3322 11.345 61.8255 11.345H69.3155C71.3689 11.345 73.3639 12.0917 75.3005 13.585C76.2572 14.3083 77.0389 15.2883 77.6455 16.525ZM69.3155 23.735C70.0155 23.735 70.7039 23.4783 71.3805 22.965C72.0572 22.4517 72.3955 21.6817 72.3955 20.655C72.3955 19.6283 72.0572 18.8583 71.3805 18.345C70.7039 17.8083 70.0039 17.54 69.2805 17.54H64.9055V23.735H69.3155ZM134.094 12.29C134.327 11.9167 134.665 11.66 135.109 11.52C135.552 11.38 136.1 11.31 136.754 11.31C137.43 11.31 137.967 11.3683 138.364 11.485C138.76 11.6017 139.064 11.7417 139.274 11.905C139.484 12.0683 139.635 12.3133 139.729 12.64C139.869 13.0367 139.939 13.6433 139.939 14.46V25.03C139.939 28.11 138.982 30.91 137.069 33.43C136.135 34.62 134.934 35.5883 133.464 36.335C131.994 37.0583 130.36 37.42 128.564 37.42C126.79 37.42 125.169 37.0467 123.699 36.3C122.252 35.5533 121.074 34.5733 120.164 33.36C118.274 30.8867 117.329 28.0867 117.329 24.96V14.425C117.329 13.865 117.34 13.4567 117.364 13.2C117.41 12.92 117.527 12.605 117.714 12.255C117.9 11.905 118.215 11.66 118.659 11.52C119.102 11.38 119.697 11.31 120.444 11.31C121.19 11.31 121.785 11.38 122.229 11.52C122.672 11.66 122.975 11.905 123.139 12.255C123.419 12.7917 123.559 13.5267 123.559 14.46V24.96C123.559 26.3833 123.909 27.7367 124.609 29.02C124.959 29.6733 125.484 30.1983 126.184 30.595C126.884 30.9917 127.712 31.19 128.669 31.19C130.372 31.19 131.644 30.56 132.484 29.3C133.324 28.04 133.744 26.5817 133.744 24.925V14.215C133.744 13.305 133.86 12.6633 134.094 12.29ZM148.919 30.805H159.699C160.236 30.805 160.633 30.8283 160.889 30.875C161.169 30.8983 161.484 31.0033 161.834 31.19C162.464 31.5167 162.779 32.4267 162.779 33.92C162.779 35.5533 162.348 36.51 161.484 36.79C161.088 36.93 160.481 37 159.664 37H145.804C144.171 37 143.214 36.5567 142.934 35.67C142.794 35.2967 142.724 34.7017 142.724 33.885V14.425C142.724 13.235 142.946 12.43 143.389 12.01C143.833 11.5667 144.673 11.345 145.909 11.345H159.699C160.236 11.345 160.633 11.3683 160.889 11.415C161.169 11.4383 161.484 11.5433 161.834 11.73C162.464 12.0567 162.779 12.9667 162.779 14.46C162.779 16.0933 162.348 17.05 161.484 17.33C161.088 17.47 160.481 17.54 159.664 17.54H148.919V21.075H155.849C156.386 21.075 156.783 21.0983 157.039 21.145C157.319 21.1683 157.634 21.2733 157.984 21.46C158.614 21.7867 158.929 22.6967 158.929 24.19C158.929 25.8233 158.486 26.78 157.599 27.06C157.203 27.2 156.596 27.27 155.779 27.27H148.919V30.805ZM165.429 33.395C164.822 32.6483 164.519 31.9833 164.519 31.4C164.519 30.7933 165.02 30 166.024 29.02C166.607 28.46 167.225 28.18 167.879 28.18C168.532 28.18 169.442 28.7633 170.609 29.93C170.935 30.3267 171.402 30.7117 172.009 31.085C172.615 31.435 173.175 31.61 173.689 31.61C175.859 31.61 176.944 30.7233 176.944 28.95C176.944 28.4133 176.64 27.97 176.034 27.62C175.45 27.2467 174.715 26.9783 173.829 26.815C172.942 26.6517 171.985 26.395 170.959 26.045C169.932 25.6717 168.975 25.24 168.089 24.75C167.202 24.26 166.455 23.49 165.849 22.44C165.265 21.3667 164.974 20.0833 164.974 18.59C164.974 16.5367 165.732 14.7517 167.249 13.235C168.789 11.695 170.877 10.925 173.514 10.925C174.914 10.925 176.185 11.1117 177.329 11.485C178.495 11.835 179.3 12.1967 179.744 12.57L180.619 13.235C181.342 13.9117 181.704 14.4833 181.704 14.95C181.704 15.4167 181.424 16.0583 180.864 16.875C180.07 18.0417 179.254 18.625 178.414 18.625C177.924 18.625 177.317 18.3917 176.594 17.925C176.524 17.8783 176.384 17.7617 176.174 17.575C175.987 17.3883 175.812 17.2367 175.649 17.12C175.159 16.8167 174.529 16.665 173.759 16.665C173.012 16.665 172.382 16.8517 171.869 17.225C171.379 17.575 171.134 18.0767 171.134 18.73C171.134 19.36 171.425 19.8733 172.009 20.27C172.615 20.6667 173.362 20.935 174.249 21.075C175.135 21.215 176.104 21.4367 177.154 21.74C178.204 22.02 179.172 22.37 180.059 22.79C180.945 23.21 181.68 23.945 182.264 24.995C182.87 26.0217 183.174 27.2933 183.174 28.81C183.174 30.3267 182.87 31.6683 182.264 32.835C181.657 33.9783 180.864 34.865 179.884 35.495C177.994 36.7317 175.975 37.35 173.829 37.35C172.732 37.35 171.694 37.2217 170.714 36.965C169.734 36.685 168.94 36.3467 168.334 35.95C167.097 35.2033 166.234 34.48 165.744 33.78L165.429 33.395ZM185.386 11.31H204.846C205.592 11.31 206.141 11.4033 206.491 11.59C206.841 11.7533 207.074 12.0217 207.191 12.395C207.307 12.7683 207.366 13.2583 207.366 13.865C207.366 14.4717 207.307 14.9617 207.191 15.335C207.074 15.685 206.876 15.93 206.596 16.07C206.176 16.28 205.581 16.385 204.811 16.385H198.126V33.99C198.126 34.5267 198.102 34.9233 198.056 35.18C198.032 35.4367 197.927 35.74 197.741 36.09C197.577 36.4167 197.274 36.65 196.831 36.79C196.387 36.93 195.804 37 195.081 37C194.357 37 193.774 36.93 193.331 36.79C192.911 36.65 192.607 36.4167 192.421 36.09C192.257 35.74 192.152 35.4367 192.106 35.18C192.082 34.9 192.071 34.4917 192.071 33.955V16.385H185.351C184.604 16.385 184.056 16.3033 183.706 16.14C183.356 15.9533 183.122 15.6733 183.006 15.3C182.889 14.9267 182.831 14.4367 182.831 13.83C182.831 13.2233 182.889 12.745 183.006 12.395C183.122 12.0217 183.321 11.765 183.601 11.625C184.021 11.415 184.616 11.31 185.386 11.31Z" fill="#264156"/>
<path d="M46.7529 13.165L56.2029 32.695C56.5995 33.4883 56.7979 34.0833 56.7979 34.48C56.7979 35.32 56.1212 36.0783 54.7679 36.755C53.9745 37.1517 53.3445 37.35 52.8779 37.35C52.4345 37.35 52.0612 37.245 51.7579 37.035C51.4779 36.825 51.2679 36.6033 51.1279 36.37C51.0112 36.1367 50.8362 35.7867 50.6029 35.32L48.7829 31.54H39.0879L37.2679 35.32C37.0345 35.7867 36.8479 36.125 36.7079 36.335C36.5912 36.545 36.3812 36.7667 36.0779 37C35.7979 37.21 35.4245 37.315 34.9579 37.315C34.5145 37.315 33.8962 37.1167 33.1029 36.72C31.7495 36.0667 31.0729 35.32 31.0729 34.48C31.0729 34.0833 31.2712 33.4883 31.6679 32.695L41.1179 13.13C41.3745 12.5933 41.7595 12.1617 42.2729 11.835C42.8095 11.5083 43.3695 11.345 43.9529 11.345C45.2129 11.345 46.1462 11.9517 46.7529 13.165ZM43.9179 21.565L41.6079 26.36H46.2629L43.9179 21.565ZM113.232 30.035C114.306 30.7583 115.076 31.2833 115.542 31.61C116.382 32.24 116.802 32.8467 116.802 33.43C116.802 33.99 116.452 34.7833 115.752 35.81C115.052 36.8367 114.341 37.35 113.617 37.35C113.174 37.35 112.497 37.035 111.587 36.405C111.471 36.335 111.144 36.1133 110.607 35.74C110.071 35.3667 109.651 35.0867 109.347 34.9C107.177 36.58 104.739 37.42 102.032 37.42C98.4157 37.42 95.359 36.1367 92.8623 33.57C90.389 31.0033 89.1523 27.9467 89.1523 24.4C89.1523 22.4633 89.5023 20.655 90.2023 18.975C90.9023 17.2717 91.8357 15.8483 93.0023 14.705C94.169 13.5617 95.5107 12.6633 97.0273 12.01C98.544 11.3567 100.107 11.03 101.717 11.03C105.171 11.03 108.169 12.2783 110.712 14.775C113.256 17.2717 114.527 20.4333 114.527 24.26C114.527 26.1967 114.096 28.1217 113.232 30.035ZM95.3473 24.225C95.3473 26.3017 96.0123 27.9933 97.3423 29.3C98.6957 30.5833 100.201 31.225 101.857 31.225C103.514 31.225 105.007 30.595 106.337 29.335C107.667 28.075 108.332 26.3833 108.332 24.26C108.332 22.1367 107.656 20.4333 106.302 19.15C104.972 17.8667 103.479 17.225 101.822 17.225C100.166 17.225 98.6723 17.8783 97.3423 19.185C96.0123 20.4683 95.3473 22.1483 95.3473 24.225Z" fill="#68B0BA"/>
<path d="M43.5 9C49.299 9 54 13.8843 54 19.9092C53.9999 25.9341 46.125 39 43.5 39C40.875 39 33.0001 25.9341 33 19.9092C33 13.8843 37.701 9 43.5 9ZM43.5 13C39.9101 13 37 15.9101 37 19.5C37 23.0899 39.9101 26 43.5 26C47.0899 26 50 23.0899 50 19.5C50 15.9101 47.0899 13 43.5 13Z" fill="#C33231"/>
<circle cx="99" cy="23" r="13" stroke="#264156" stroke-width="6"/>
<path d="M112.241 31L124.323 42.6114C125.12 43.3768 125.145 44.6429 124.379 45.4393L122.91 46.9681C122.145 47.7645 120.879 47.7897 120.082 47.0243L108 35.4129L112.241 31Z" fill="#264156"/>
</svg>
