<svg width="28" height="28" viewBox="0 0 28 28" fill="none" xmlns="http://www.w3.org/2000/svg">
<path d="M14.4102 28C12.4127 28 10.5404 27.619 8.79307 26.8571C7.04577 26.0952 5.52391 25.0657 4.22747 23.7686C2.93102 22.4714 1.90234 20.9476 1.1414 19.1971C0.380467 17.4467 0 15.5714 0 13.5714C0 10.619 0.814675 7.94048 2.44403 5.53571C4.07338 3.13095 6.25488 1.36905 8.98853 0.25C9.32144 0.130952 9.66624 0.0890475 10.0229 0.124286C10.3796 0.159524 10.6769 0.272857 10.9146 0.464285C11.1049 0.630952 11.2537 0.863333 11.3612 1.16143C11.4687 1.45952 11.522 1.84619 11.521 2.32143C11.5686 4.20238 11.949 5.99429 12.6624 7.69714C13.3758 9.4 14.3983 10.9176 15.7299 12.25C17.0616 13.5824 18.5834 14.6062 20.2955 15.3214C22.0076 16.0367 23.803 16.4176 25.6815 16.4643C26.1809 16.4643 26.5614 16.5062 26.8229 16.59C27.0845 16.6738 27.2985 16.8105 27.465 17C27.6552 17.2381 27.7803 17.5476 27.8402 17.9286C27.9001 18.3095 27.8702 18.6548 27.7503 18.9643C26.6565 21.7024 24.8968 23.8929 22.4713 25.5357C20.0459 27.1786 17.3588 28 14.4102 28ZM14.4102 25.1429C16.5028 25.1429 18.4408 24.619 20.2242 23.5714C22.0076 22.5238 23.4106 21.0833 24.4331 19.25C22.3881 19.0595 20.4501 18.5419 18.6191 17.6971C16.7881 16.8524 15.1473 15.7033 13.6968 14.25C12.2463 12.7967 11.093 11.1538 10.2369 9.32143C9.38089 7.48905 8.86964 5.54857 8.70318 3.5C6.87219 4.52381 5.43973 5.93476 4.40581 7.73286C3.37189 9.53095 2.85445 11.4771 2.8535 13.5714C2.8535 16.7857 3.97731 19.5181 6.22492 21.7686C8.47253 24.019 11.201 25.1438 14.4102 25.1429ZM17.5847 7L15.3019 4.71429C15.0166 4.42857 14.8739 4.09524 14.8739 3.71429C14.8739 3.33333 15.0166 3 15.3019 2.71429L17.5847 0.428571C17.8701 0.142857 18.203 0 18.5834 0C18.9639 0 19.2968 0.142857 19.5822 0.428571L21.865 2.71429C22.1503 3 22.293 3.33333 22.293 3.71429C22.293 4.09524 22.1503 4.42857 21.865 4.71429L19.5822 7C19.2968 7.28571 18.9639 7.42857 18.5834 7.42857C18.203 7.42857 17.8701 7.28571 17.5847 7ZM24.7185 11.2857L23.8624 10.4286C23.5771 10.1429 23.4344 9.80952 23.4344 9.42857C23.4344 9.04762 23.5771 8.71429 23.8624 8.42857L24.7185 7.57143C25.0038 7.28571 25.3367 7.14286 25.7172 7.14286C26.0977 7.14286 26.4306 7.28571 26.7159 7.57143L27.572 8.42857C27.8573 8.71429 28 9.04762 28 9.42857C28 9.80952 27.8573 10.1429 27.572 10.4286L26.7159 11.2857C26.4306 11.5714 26.0977 11.7143 25.7172 11.7143C25.3367 11.7143 25.0038 11.5714 24.7185 11.2857Z" fill="#80C2B3"/>
</svg>
