<svg width="59" height="59" viewBox="0 0 59 59" fill="none" xmlns="http://www.w3.org/2000/svg">
<circle cx="29.5" cy="29.5" r="29.5" fill="#68B0BA"/>
<path d="M14 26.5C12.6193 26.5 11.5 27.6193 11.5 29C11.5 30.3807 12.6193 31.5 14 31.5L14 26.5ZM49.7678 30.7678C50.7441 29.7915 50.7441 28.2086 49.7678 27.2322L33.8579 11.3223C32.8816 10.346 31.2986 10.346 30.3223 11.3223C29.346 12.2986 29.346 13.8816 30.3223 14.8579L44.4645 29L30.3223 43.1421C29.346 44.1184 29.346 45.7014 30.3223 46.6777C31.2986 47.654 32.8816 47.654 33.8579 46.6777L49.7678 30.7678ZM14 29L14 31.5L48 31.5L48 29L48 26.5L14 26.5L14 29Z" fill="#FBF3D3"/>
</svg>
