<svg width="48" height="53" viewBox="0 0 48 53" fill="none" xmlns="http://www.w3.org/2000/svg">
<rect x="1.75293" width="44.4941" height="40.7863" rx="7" fill="#FBF3D3"/>
<rect x="6.3877" y="7.41568" width="35.2245" height="14.8314" rx="3" fill="#FDBE3D"/>
<circle cx="9.16858" cy="28.7358" r="2.78088" fill="#FDBE3D"/>
<circle cx="38.8314" cy="28.7358" r="2.78088" fill="#FDBE3D"/>
<path d="M0.514021 49.6225C-0.117149 50.529 0.106031 51.7755 1.01251 52.4066C1.91898 53.0378 3.16549 52.8146 3.79666 51.9082L0.514021 49.6225ZM11.2065 37.7661L9.56522 36.6233L0.514021 49.6225L2.15534 50.7653L3.79666 51.9082L12.8479 38.909L11.2065 37.7661Z" fill="#FBF3D3"/>
<path d="M43.6236 50.8908C44.3823 51.6936 45.6481 51.7292 46.4509 50.9705C47.2536 50.2118 47.2893 48.9459 46.5306 48.1432L43.6236 50.8908ZM34.1965 38.0054L32.743 39.3792L43.6236 50.8908L45.0771 49.517L46.5306 48.1432L35.65 36.6316L34.1965 38.0054Z" fill="#FBF3D3"/>
<line x1="5.46082" y1="46.202" x2="41.6123" y2="46.202" stroke="#FBF3D3" stroke-width="4"/>
</svg>
