<svg width="22" height="23" viewBox="0 0 22 23" fill="none" xmlns="http://www.w3.org/2000/svg">
<path d="M5.51465 1.31143C5.07828 1.31143 4.736 1.37856 4.46569 1.62294C4.04095 2.00691 3.90446 2.46338 3.84521 2.69122C3.75764 3.02796 3.80223 3.36154 3.87801 3.5899C3.91757 3.7091 4.03771 3.80147 4.14833 3.86174C4.35975 3.97693 4.69887 3.88895 5.07116 3.73688C5.40182 3.60182 5.61535 3.33001 5.80149 3.0597C6.25857 2.39594 5.93881 1.63489 5.77835 1.39712C5.64076 1.19325 5.39665 1.15885 5.26976 1.16724C4.88886 1.19243 4.41406 1.69999 4.10026 2.22434C3.87149 2.60662 3.90395 3.10623 3.94616 3.46199C3.96937 3.65758 4.09009 3.75214 4.22512 3.8536C4.40596 3.98948 4.76651 3.99016 5.13906 3.95634C5.63643 3.91118 6.25719 3.2644 6.55674 2.70368C6.71622 2.40517 6.4652 1.92427 6.23684 1.50927C6.14171 1.33637 6.02527 1.27888 5.91465 1.2359C5.69486 1.15051 5.44802 1.2092 5.23645 1.31066C4.77753 1.53075 4.61648 2.25943 4.58241 2.53839C4.56486 2.68202 4.61546 2.83414 4.71667 2.93713C4.81788 3.04012 4.98572 3.09047 5.10574 3.10801C5.55721 3.17401 6.12292 2.58493 6.47995 2.05091C6.61038 1.85583 6.46469 1.58403 6.30423 1.34703C6.22642 1.23209 6.09342 1.17716 5.9322 1.20132C5.54719 1.25901 5.26137 1.61505 5.09201 1.88588C4.81313 2.33183 4.81941 2.88703 4.90358 3.03961C4.99633 3.20773 5.3102 3.05792 5.52991 2.93992C6.06958 2.6501 6.17479 2.17806 6.3111 1.79586C6.35428 1.67476 6.3116 1.54944 6.21904 1.42255C6.16217 1.34458 6.00899 1.31244 5.91465 1.2865C5.39309 1.14311 4.83721 2.31029 4.79372 2.77616C4.7834 2.88676 5.00301 2.90432 5.18991 2.8377C6.11298 2.50866 6.44536 1.5352 6.51504 1.15987C6.52785 1.09086 6.46469 1.02458 6.42222 0.989998C6.37976 0.955414 6.32941 0.955414 6.25312 1.02255C6.05184 1.19967 5.95559 1.41263 5.93016 1.52249C5.9166 1.58107 5.92152 1.64913 5.95508 1.70049C5.98865 1.75186 6.05578 1.78543 6.12394 1.78594C6.2632 1.78698 6.41231 1.55046 6.53945 1.25421C6.59289 1.12969 6.58268 1.04187 6.55751 0.965077C6.50687 0.810622 6.37976 0.718411 6.2699 0.667553C6.21367 0.641519 6.14326 0.650261 6.0835 0.675436C6.02374 0.700611 5.97339 0.750961 5.97263 0.835641C5.97076 1.04379 6.17479 1.25955 6.37772 1.42891C6.55217 1.5745 6.75153 1.56572 6.82808 1.54054C7.12441 1.44308 6.12648 1.12579 5.97314 0.990252C5.93442 0.95603 6.1219 0.921847 6.22489 0.921592C6.37912 0.921212 6.56437 1.0729 6.78459 1.30125C6.95327 1.47617 6.93869 1.71728 6.91352 1.96216C6.87902 2.29776 6.71898 2.56509 6.5837 2.71742C6.51958 2.78961 6.44842 2.83617 6.38026 2.85372C6.31211 2.87126 6.24498 2.85448 6.21879 2.7787C6.1926 2.70292 6.20938 2.56865 6.2432 2.44914C6.27702 2.32962 6.32737 2.22892 6.17708 2.34488C5.18932 3.10701 5.04166 3.51361 4.90434 3.77731C4.88312 3.81807 4.98775 3.83707 5.04751 3.82054C5.17168 3.7862 5.27663 3.61787 5.38674 3.44877C5.4388 3.36881 5.4465 3.27966 5.40479 3.20286C5.22575 2.87316 4.85501 2.90534 4.57579 2.89644C4.44534 2.89228 4.34693 3.00502 4.27827 3.12378C4.20961 3.24253 4.17604 3.39358 4.16714 3.50497C4.15824 3.61635 4.17503 3.68348 4.23402 3.74324C4.3703 3.88128 4.63174 3.90522 4.88552 3.89683C5.10706 3.88951 5.27663 3.80401 5.39513 3.70255C5.45017 3.65542 5.48006 3.60109 5.48896 3.54998C5.50642 3.44971 5.37987 3.31272 5.26951 3.21075C4.92756 2.8948 6.40875 4.71388 6.65058 5.04955C6.83201 5.30137 6.41383 4.23174 6.38764 3.86327C6.32738 3.01554 6.85376 6.24422 6.88758 6.28694C7.03252 6.47002 6.90513 5.78802 6.73602 4.89239C6.69058 4.65171 6.63456 4.48501 6.61701 4.43212C6.52689 4.16045 6.9214 5.17568 7.20036 5.71707C7.26198 5.83666 7.27741 5.8877 7.2441 5.87168C7.10527 5.80492 6.92293 5.61815 6.71975 5.53321C6.63899 5.49946 6.5837 5.54898 6.54937 5.61662C6.46975 5.77351 6.48096 5.93907 6.53132 6.02375C6.71387 6.33078 7.14162 5.99043 7.20113 6.03239C7.30591 6.10628 7.05821 6.34543 6.88911 6.52318C6.4998 6.93239 5.11591 7.24258 4.72532 7.36388C3.93865 7.60817 5.6835 7.0249 5.76843 6.94048C5.80665 6.90249 5.75267 6.82248 5.64307 6.79629C5.05311 6.6553 4.46696 7.27614 4.03237 7.82796C3.95401 7.92745 3.95532 8.00648 3.95506 8.06624C3.95481 8.126 3.97159 8.17635 4.0138 8.21068C4.05602 8.245 4.12315 8.26179 4.1913 8.26204C4.25945 8.2623 4.32659 8.24551 4.35278 8.21169C4.37897 8.17787 4.36219 8.12752 4.31158 8.06802C4.19189 7.92728 4.04025 7.85543 3.95557 7.85517C3.72016 7.85447 3.83631 8.363 3.83631 8.40623C3.83631 9.11931 3.29517 6.85707 3.08334 6.61066C3.02489 6.54266 2.989 6.68313 2.99714 6.71848C3.05012 6.9486 2.85372 6.04231 2.72657 5.77988C2.5869 5.4916 2.39599 5.26214 2.26909 5.16881C2.21653 5.13015 2.15898 5.1594 2.13305 5.36945C2.05787 5.97822 2.14067 6.56514 2.2251 6.853C2.26179 6.97809 2.34309 7.04016 2.41124 7.07474C2.47939 7.10933 2.54653 7.10933 2.61468 7.05898C2.77777 6.93848 2.86948 6.65313 2.94577 6.34034C3.0241 6.01917 3.25245 5.43887 3.08334 5.04955C2.95007 4.74273 2.34564 4.73677 2.11728 4.6264C2.01465 4.5768 1.90571 4.63352 1.80348 4.75151C1.36058 5.26273 1.47951 6.05248 1.5558 6.49826C1.5756 6.61395 1.76686 6.71873 2.00361 6.82045C2.22344 6.9149 2.41175 6.83825 2.52161 6.76247C2.68938 6.64674 2.7342 6.43189 2.75123 6.27982C2.78948 5.93847 2.46515 5.60289 2.09999 5.28782C1.93091 5.14194 1.75161 5.10905 1.63336 5.09201C1.56616 5.08233 1.48154 5.10854 1.41314 5.15076C1.27576 5.23553 1.20894 5.51389 1.17487 5.83557C1.15133 6.05777 1.30964 6.21014 1.4701 6.34543C1.66161 6.50689 1.85231 6.56666 1.97055 6.59209C2.11921 6.62406 2.32631 6.55039 2.51271 6.44893C2.58807 6.40791 2.5984 6.34746 2.59866 6.28796C2.5992 6.16025 2.53127 6.0418 2.44684 5.93195C2.34137 5.79471 2.05828 5.63544 1.71117 5.49126C1.57074 5.43292 1.48154 5.46455 1.41314 5.52355C1.34473 5.58255 1.29438 5.68325 1.26845 5.79387C1.24251 5.90448 0.691169 5.91741 0.75791 6.03239C1.4701 7.25932 1.68244 6.53259 1.84315 6.59184C1.98395 6.64375 2.24087 6.6516 2.55416 6.68517C2.92302 6.72469 3.05512 7.20901 3.79104 7.98791C4.19479 8.41524 4.3276 8.78665 4.38711 9.13325C4.51211 9.86137 4.27776 10.3104 4.23479 10.6346C4.17455 11.0891 4.15875 11.6683 4.14985 12.5566C4.14509 13.032 4.10789 10.9415 4.03186 10.8731C3.91129 10.7647 3.88717 11.53 3.92073 12.434C3.98906 14.2741 4.27674 14.6018 4.35278 14.7287C4.39046 14.7916 4.4456 14.8388 4.48832 14.7977C4.93681 14.3652 4.51476 13.4677 4.48069 13.2388C4.45359 13.0568 4.61394 13.8308 4.98648 15.2203C5.12614 15.7412 5.22475 15.8713 5.27637 15.8985C5.54747 16.0414 5.29494 15.0291 4.914 13.9445C4.87641 13.8374 5.30816 14.935 5.79946 15.9771C6.18972 16.8049 6.76832 17.1112 6.93742 17.1537C7.0205 17.1745 7.10653 17.1458 7.15815 17.0868C7.49806 16.6983 6.72 15.8423 6.42375 15.5369C6.31566 15.4255 6.21141 15.5 6.16818 15.5763C5.84649 16.144 6.59794 17.2109 6.96285 17.5936C7.0656 17.7014 7.20926 17.7047 7.33616 17.7218C7.39538 17.7297 7.44626 17.7053 7.48059 17.6463C7.78192 17.1284 7.29521 16.2481 7.21053 16.0366C7.06386 15.6701 8.05657 17.7032 8.19262 17.9499C8.23034 18.0183 8.32714 18.0765 8.37876 18.0524C8.71692 17.8941 8.33019 16.9978 8.16032 16.4114C7.95935 15.7176 8.58245 17.5852 8.91227 17.8482C8.99306 17.9126 9.09002 17.8914 9.16682 17.8327C9.34755 17.6944 9.37992 17.4347 9.36314 17.1982C9.32375 16.6431 9.14292 16.3839 8.92321 16.0025C8.87177 15.9132 8.78792 15.8916 8.74495 15.9415C8.29293 16.4657 8.85404 17.5171 8.99771 17.7464C9.09918 17.9084 9.31126 17.959 9.47197 17.9593C9.63068 17.9595 9.76899 17.6895 9.90453 17.4271C10.0766 17.0938 9.82239 16.3199 9.39009 15.6216C9.31035 15.4928 9.17852 15.4848 9.0679 15.5262C8.95728 15.5677 8.8398 15.6851 8.79606 15.9135C8.68994 16.4675 8.88761 16.9576 9.03967 17.1946C9.11166 17.3068 9.22531 17.3645 9.34432 17.3991C9.46333 17.4337 9.59759 17.4337 9.70033 17.3917C9.89606 17.3118 9.97293 16.978 10.007 16.5889C10.0382 16.2332 9.87223 15.9262 9.72856 15.664C9.58765 15.4069 9.29702 15.1633 8.92499 14.9767C8.75105 14.8894 8.55295 14.9579 8.39071 15.101C8.02043 15.4278 7.93909 15.8896 7.95562 16.1769C7.97524 16.518 8.20966 16.7044 8.3279 16.772C8.47217 16.8545 8.66688 16.8742 8.88659 16.8407C9.15602 16.7995 9.34534 16.5533 9.44705 16.3333C9.49245 16.2352 9.48164 16.1469 9.46485 16.0785C9.38095 15.7366 8.88964 15.4848 8.4492 15.3151C8.28366 15.2514 7.99198 15.2467 7.61944 15.2971C7.45854 15.3188 7.38117 15.4481 7.32954 15.6343C7.20667 16.0774 7.27741 16.4328 7.35345 16.5597C7.42747 16.6832 7.66597 16.8391 7.99579 17.0339C8.28174 17.2028 8.68265 17.1458 9.0384 17.0866C9.22845 17.0549 9.41247 16.9261 9.60751 16.7483C9.68005 16.6822 9.6515 16.6209 9.60929 16.5698C9.5143 16.4548 9.33008 16.3829 9.16911 16.3572C9.07373 16.342 9.10833 16.6687 9.17598 17.0075C9.21815 17.2187 9.42925 17.3986 9.71686 17.5766C9.93892 17.714 10.1759 17.6035 10.3282 17.5191C10.4027 17.4778 10.4469 17.4011 10.4729 17.3162C10.4988 17.2312 10.4988 17.1305 10.4736 17.0535C10.4276 16.9127 10.2623 16.7903 10.1016 16.6548C10.0309 16.5951 9.95768 16.5864 9.92309 16.6365C9.82588 16.7773 9.90529 16.9754 9.98107 17.1356C10.118 17.4252 10.3452 17.6534 10.523 17.7635C10.6426 17.8376 10.8197 17.8405 11.0481 17.8321C11.261 17.8243 11.4305 17.7225 11.5407 17.5956C11.5889 17.5401 11.6004 17.4855 11.5839 17.4344C11.4882 17.1384 11.0593 17.0441 10.6613 16.9675C10.5848 16.9528 10.567 17.0258 10.5667 17.0853C10.5653 17.4109 11.0064 17.6534 11.252 17.7302C11.4692 17.7981 11.7016 17.7053 11.8539 17.6292C11.9888 17.5619 12.0414 17.4006 12.0584 17.2483C12.0717 17.1291 11.9407 17.0105 11.7632 16.892C11.3225 16.5978 10.72 16.8061 10.5761 16.9073C10.5021 16.9593 10.4825 17.0756 10.5072 17.1611C10.5319 17.2465 10.6158 17.3136 10.7513 17.3482C11.376 17.5076 12.1049 17.0461 12.8279 16.461C12.9522 16.3604 12.9065 16.2487 12.8559 16.1886C12.7502 16.0634 12.5845 16.0605 12.4411 16.0689C12.2128 16.0822 12.0251 16.1449 11.932 16.2377C11.8171 16.3523 11.8547 16.6352 11.9559 16.9146C12.0004 17.0374 12.1243 17.0766 12.2349 17.1026C12.836 17.2435 13.5483 16.3682 13.8619 15.9112C13.9942 15.7184 13.9908 15.5549 13.9239 15.4184C13.7767 15.1178 13.5 15.0265 13.323 15.0011C13.1974 14.983 12.995 14.9924 12.8493 15.0428C12.5895 15.1326 12.4828 15.4319 12.4065 15.6689C12.3539 15.8324 12.4309 16.0925 12.5492 16.3974C12.5991 16.5262 12.701 16.568 12.8281 16.6024C13.1172 16.6804 13.531 16.5029 13.9458 16.1647C14.2947 15.8802 14.3809 15.5026 14.3979 15.2485C14.4207 14.908 13.9577 14.7046 13.8143 14.6453C13.6005 14.557 13.2304 14.7366 12.8747 15.0242C12.2897 15.4971 12.4991 16.4328 12.5749 16.5848C12.6841 16.804 12.8887 16.891 13.0153 16.908C13.4225 16.9628 13.8535 16.4358 14.0836 16.0874C14.2809 15.7888 14.2964 15.3841 14.2207 15.0626C14.1829 14.9025 14.061 14.7748 13.9503 14.6972C13.8397 14.6196 13.7222 14.6029 13.5862 14.653C13.2742 14.7678 13.0931 15.0423 13 15.2536C12.7047 15.9242 12.821 16.8223 12.9055 16.9917C12.9436 17.0682 13.0234 17.0939 13.0916 17.1028C13.226 17.1204 13.4303 16.9266 13.6421 16.6726C13.7574 16.5343 13.7538 16.3331 13.737 16.1045C13.73 16.0089 13.6866 15.9598 13.6274 15.9171C13.5681 15.8743 13.4842 15.8408 13.4158 15.8654C12.9963 16.0167 13.1435 16.8554 13.1854 17.1687C13.2034 17.3028 13.3113 17.3645 13.3881 17.3739C13.4649 17.3833 13.532 17.333 13.5918 17.2483C13.7245 17.0602 13.7538 16.8579 13.7118 16.7143C13.6546 16.5185 13.4323 16.4506 13.3055 16.4251C13.1972 16.4034 12.9924 16.4836 12.7384 16.6021C12.5795 16.6762 12.466 16.8559 12.3559 17.16C12.2963 17.3248 12.2962 17.5313 12.363 17.6686C12.4299 17.806 12.581 17.8731 12.7259 17.8909C12.8709 17.9087 13.0051 17.8751 13.133 17.7991C13.261 17.7231 13.3784 17.6056 13.397 17.5199C13.4156 17.4342 13.3316 17.3838 13.2213 17.3663C12.9797 17.3279 12.788 17.4164 12.6949 17.5176C12.6407 17.5765 12.6186 17.6859 12.6013 17.7714C12.584 17.8568 12.584 17.9239 12.6512 18.0005C12.821 18.1941 13.0748 18.2474 13.2607 18.2306C13.4849 18.2104 13.6516 18.0953 13.7362 17.9687C13.7827 17.8992 13.7873 17.7917 13.7792 17.7147C13.7711 17.6376 13.7375 17.5873 13.695 17.5445C13.6526 17.5018 13.6022 17.4682 13.5763 17.4845C13.319 17.646 13.6348 18.1955 13.6688 18.3992C13.6777 18.4523 13.7192 18.5007 13.7617 18.5266C13.8041 18.5526 13.8545 18.5526 13.8972 18.519C13.9965 18.4409 14.0081 18.1813 14.0081 17.9522C14.0081 17.7738 14.1434 18.6349 14.1523 18.9922C14.172 19.784 14.1942 21.1621 14.2535 21.3066C14.3425 21.5236 14.2797 20.7741 14.2036 20.6724C14.1708 20.6285 14.1108 20.6378 14.0597 20.6713C13.9402 20.7498 13.8728 21.009 13.8219 21.2885C13.7928 21.4488 13.8214 21.5527 13.8972 21.6794C13.9467 21.7621 14.0569 21.8563 14.1423 21.9082C14.2801 21.9919 14.4816 21.9265 14.6847 21.8253C14.7825 21.7766 14.8208 21.657 14.8383 21.5548C14.8559 21.4525 14.8391 21.3518 14.7801 21.2664C14.6546 21.0846 14.4495 20.9943 14.2723 20.918C14.0312 20.8142 13.8051 20.9256 13.7289 21.0101C13.6906 21.0524 13.7029 21.128 13.7617 21.2214C13.908 21.4539 14.1932 21.5868 14.4386 21.6377C14.6303 21.6774 14.8376 21.5878 15.0324 21.4609C15.1142 21.4076 15.1432 21.3508 15.1437 21.2577C15.145 21.028 14.9922 20.8249 14.8315 20.7148C14.7589 20.6651 14.6875 20.6551 14.611 20.6716C14.5345 20.6881 14.4505 20.7385 14.3989 20.8315C14.2838 21.0392 14.3132 21.2476 14.3384 21.3574C14.3713 21.5011 14.5833 21.6036 14.8032 21.6463C14.9041 21.6659 14.9896 21.5715 15.0497 21.5034C15.1584 21.3799 15.1778 21.1982 15.161 21.0205C15.1482 20.8841 15.0258 20.7741 14.8655 20.6388C14.7668 20.5554 14.5879 20.5035 14.4846 20.5193C14.3814 20.535 14.3478 20.6357 14.3389 20.738C14.3213 20.9403 14.3976 21.1118 14.4821 21.2554C14.583 21.4272 14.7699 21.5695 14.9813 21.6712C15.0857 21.7215 15.2094 21.7058 15.2951 21.6806C15.3808 21.6555 15.4311 21.6051 15.4654 21.5456C15.4998 21.4861 15.5165 21.419 15.5084 21.3508C15.4916 21.2102 15.3482 21.096 15.1791 21.0113C15.097 20.9702 15.01 20.9602 14.9332 20.9684C14.8564 20.9765 14.7893 21.0101 14.7631 21.0945C14.7369 21.1789 14.7537 21.3132 14.8043 21.4243C14.9025 21.6399 15.1931 21.7562 15.439 21.7989C15.5163 21.8123 15.5003 21.7241 15.4497 21.656C15.0722 21.1476 14.534 20.5879 14.4577 20.2998C14.3771 19.9954 14.2288 19.5046 14.2031 19.1723C14.1724 18.7742 14.1271 18.164 14.1182 17.6053C14.1135 17.3097 14.3458 16.978 14.6512 16.6886C14.8836 16.4684 15.4291 16.3158 15.7535 16.2972C15.9738 16.2846 15.8385 16.7211 15.8644 16.7974C15.8759 16.8311 15.7393 16.8234 15.6706 16.8569C15.602 16.8905 15.5684 16.9576 15.5847 17.0174C15.601 17.0771 15.6681 17.1275 15.7279 17.1534C15.969 17.2581 16.2957 17.0949 16.5248 16.9681C16.5777 16.9388 16.5846 16.8752 16.6184 16.8325C16.6889 16.7434 16.9726 16.7216 17.4039 16.7468C18.1816 16.7922 18.4155 17.2806 18.4915 17.3653C18.528 17.4059 18.5843 17.4164 18.6438 17.3998C18.7818 17.3615 18.9571 17.1636 19.1435 16.9269C19.2287 16.8186 19.2292 16.6901 19.1875 16.5876C19.1458 16.4851 19.0451 16.4012 18.9513 16.3748C18.8575 16.3483 18.7735 16.3819 18.7135 16.4244C18.3098 16.7101 18.3311 17.602 18.3562 17.8052C18.3672 17.8938 18.4318 17.9412 18.4913 17.9756C18.8066 18.1575 19.2964 17.8243 19.6183 17.5367C19.7657 17.405 19.7719 17.1636 19.7554 16.9185C19.7361 16.6322 19.4174 16.3839 19.1552 16.1637C19.0372 16.0646 18.9098 16.0442 18.8158 16.0605C18.7217 16.0768 18.6545 16.1439 18.6116 16.2036C18.3447 16.5747 18.5172 17.3477 18.6184 17.5761C18.671 17.6948 18.7868 17.7876 18.9058 17.8395C19.0248 17.8914 19.159 17.8914 19.2786 17.8578C19.5117 17.7924 19.6697 17.604 19.8133 17.3846C20.0095 17.085 20.0603 16.7567 20.0435 16.478C20.0215 16.1126 19.8411 15.7569 19.6295 15.5448C19.5503 15.4654 19.4683 15.5173 19.4169 15.5598C19.137 15.7912 19.1957 16.4485 19.2628 16.7786C19.2947 16.9356 19.4642 17.0248 19.5753 17.0515C19.6865 17.0782 19.7704 17.0278 19.8388 16.9683C19.9698 16.8544 20.0094 16.5711 19.9674 16.2072C19.9007 15.6284 19.4337 15.4675 19.3655 15.4334C19.156 15.3286 19.9728 16.1571 20.086 16.8216C20.1037 16.9261 20.0104 16.9749 19.9509 16.9673C19.8914 16.9597 19.8243 16.8925 19.7897 16.7656C19.7073 16.4632 19.7887 16.2136 19.8647 16.1457C19.899 16.1151 19.9575 16.1449 20.0003 16.2207C20.2375 16.6415 20.162 17.2943 20.0018 17.8474C19.9707 17.9545 19.8751 17.9921 19.8322 17.9845C19.7892 17.9768 19.7724 17.9097 19.7638 17.8499C19.7071 17.4586 20.1783 16.9932 20.2884 16.9759C20.3897 16.96 20.3654 17.246 20.3486 17.4492C20.3367 17.5937 20.1294 17.7042 19.926 17.7724C19.8604 17.7944 19.8568 17.7063 19.8736 17.6465C19.9456 17.3903 20.2118 17.1804 20.4242 17.0438C20.6706 16.8854 19.928 17.8711 19.5613 18.1536C19.3668 18.3034 19.1453 18.315 19.069 18.3069C18.8585 18.2844 19.1275 17.9428 19.1448 17.8749C19.2055 17.6367 18.6876 18.0608 18.6533 18.0274C18.3487 17.7319 18.8905 17.3838 18.8653 17.2145C18.8254 16.946 18.3494 16.9759 18.1284 16.9169C17.8874 16.8526 17.6882 16.6036 17.425 16.4679C17.201 16.3523 17.0098 16.2303 16.7639 16.1541C16.6445 16.117 16.5012 15.9933 16.2982 15.8329C15.7797 15.4228 15.8898 14.4701 15.8731 14.0121C15.8693 13.9102 15.5196 14.5123 15.1295 15.3009C15.016 15.5304 15.601 14.0119 15.8125 13.3009C16.039 12.5398 16.0933 11.9084 16.0597 11.7553C16.0515 11.7177 15.959 11.8372 15.7482 12.3841C15.5374 12.9311 15.1849 13.9214 14.9782 14.4902C14.7715 15.0591 14.7211 15.1766 14.6952 15.2119C14.6774 15.2361 14.7364 14.9436 14.922 14.2273C15.2651 12.9034 15.398 11.9587 15.2892 12.3435C15.1571 12.8103 14.895 13.8359 14.7315 14.4305C14.568 15.025 14.5177 15.1593 14.4833 15.2536C14.4309 15.3978 14.5324 15.0809 14.7692 14.2026C15.0739 13.0719 15.0766 12.4658 14.9835 12.6095C14.9359 12.683 14.9073 12.7699 14.7557 13.3166C14.6041 13.8634 14.3356 14.8704 14.2476 15.3388C14.1596 15.8072 14.2603 15.7065 14.3709 15.4952C14.4816 15.2839 14.5991 14.965 14.7267 14.465C15.0236 13.3021 15.127 12.3839 15.0934 12.1288C15.0735 11.9779 14.7221 13.1875 14.417 14.433C14.3055 14.8879 14.3132 14.9904 14.3468 15.0171C14.4277 15.0815 14.6341 14.757 14.9296 14.066C15.1407 13.5726 15.3426 12.7374 15.472 12.2466C15.6015 11.7558 15.6183 11.6215 15.6269 11.5775C15.629 11.567 15.4845 12.5588 15.2305 14.0498C15.0513 15.1013 14.9744 15.3983 14.9996 15.5341C15.0074 15.5766 15.0751 15.5356 15.1178 15.4848C15.4125 15.134 15.4321 14.4849 15.5165 14.0955C15.5386 13.994 15.5338 13.9091 15.4835 14.0421C15.0929 15.0739 14.924 15.5849 14.8729 15.6282C14.4059 16.0231 15.2622 14.4686 15.3891 14.1294C15.4332 14.0115 15.482 13.843 15.4324 14.0587C15.083 15.578 14.9576 15.7716 14.9574 15.8314C14.9562 16.1112 15.1773 15.3495 15.4298 14.727C15.6402 14.2084 15.9844 13.2653 16.1828 12.7559C16.4441 12.085 16.6344 11.7568 16.9228 11.5346C17.0793 11.4139 17.2625 11.3988 17.364 11.3227C17.474 11.2403 17.5341 11.1109 17.5344 10.9924C17.5345 10.9384 17.4675 10.9075 17.3744 10.8902C17.2813 10.8729 17.1471 10.8729 17.0779 10.9064C17.0087 10.94 17.0087 11.0071 17.0507 11.0585C17.0927 11.1099 17.1766 11.1434 17.245 11.144C17.3134 11.1445 17.3637 11.1109 17.3813 11.0684C17.3988 11.026 17.382 10.9756 17.3398 10.9329C17.2461 10.8381 17.0942 10.8052 16.9673 10.7798C16.9081 10.7679 16.8572 10.7712 16.9068 10.7963C17.2867 10.9892 17.7177 10.8566 18.1348 10.704C18.3482 10.6259 18.4999 10.4665 18.6016 10.4154C18.6325 10.3999 18.6362 10.465 18.6698 10.4909C18.898 10.6673 19.3635 10.23 19.6781 9.83155C19.7192 9.77944 19.6544 9.78755 19.5949 9.84655C19.4502 9.99005 19.3488 10.2778 19.2809 10.5573C19.2542 10.6671 19.2801 10.7193 19.3139 10.762C19.3844 10.8511 19.6178 10.8561 19.9224 10.7971C20.1791 10.7474 20.3476 10.5179 20.4832 10.2982C20.5513 10.1878 20.5516 10.0449 20.5266 9.91699C20.5017 9.78908 20.4346 9.67159 20.3497 9.60268C20.2647 9.53377 20.164 9.51698 20.087 9.5503C19.6729 9.72932 19.7551 10.582 19.8647 11.1254C19.8867 11.2346 19.9575 11.2787 20.0422 11.3215C20.1269 11.3642 20.2444 11.3977 20.3385 11.3899C20.4326 11.382 20.4997 11.3316 20.5511 11.2805C20.6449 11.1872 20.6874 11.0097 20.7128 10.7897C20.7342 10.6044 20.6375 10.3323 20.4265 9.99378C20.3208 9.82443 20.1315 9.72245 19.9947 9.72067C19.2407 9.71086 19.3991 11.2614 19.4833 11.6258C19.5073 11.7297 19.6178 11.8036 19.7366 11.8468C19.8553 11.8901 20.0064 11.8901 20.1429 11.8313C20.4269 11.7091 20.5516 11.4837 20.6108 11.3822C20.8143 11.0337 20.8231 10.1141 20.6629 9.50147C20.6329 9.3864 20.5363 9.34813 20.4514 9.33059C20.3664 9.31304 20.2657 9.32982 20.1719 9.44756C19.935 9.74477 19.8741 10.5286 19.882 11.3756C19.8851 11.705 20.0409 11.8199 20.1854 11.8804C20.3298 11.9409 20.4977 11.9409 20.6512 11.8738C20.9732 11.7331 21.111 11.3998 21.1619 11.1124C21.3166 10.2384 20.6884 9.33135 20.5025 9.28761C20.38 9.25879 20.283 9.62989 20.3316 9.93606C20.3802 10.2422 20.5984 10.5779 20.7443 10.7256C20.8903 10.8734 20.9574 10.823 21.0088 10.7467C21.3263 10.2752 20.8577 9.50071 20.6637 9.32296C20.5542 9.22268 20.3522 9.19556 20.2151 9.19479C20.0781 9.19403 19.9942 9.24438 19.9341 9.32067C19.8741 9.39696 19.8406 9.49766 19.8568 9.60828C19.8731 9.71889 19.9402 9.83638 20.0504 9.93047C20.2837 10.1298 20.5678 10.1441 20.7456 10.1019C20.8245 10.0831 20.873 10.0429 20.9073 10.0004C20.9739 9.91799 20.9589 9.755 20.9167 9.57725C20.8843 9.44065 20.7728 9.34762 20.6713 9.27134C20.6255 9.23689 20.5699 9.2454 20.5272 9.27057C20.4844 9.29575 20.4509 9.3461 20.4336 9.4056C20.4163 9.46511 20.4163 9.53224 20.4582 9.60878C20.5563 9.78762 20.7713 9.88927 20.9574 9.93174C21.0412 9.95085 21.11 9.92385 21.1614 9.86486C21.2127 9.80586 21.2463 9.70516 21.2468 9.59454C21.2491 9.09254 20.7728 8.85582 20.6881 8.83014C20.6538 8.83802 20.637 8.88837 20.6535 8.93109C20.6701 8.97381 20.7204 9.00738 20.7723 9.04196" stroke="#FBF3D3" stroke-linecap="round"/>
</svg>
