<svg width="26" height="26" viewBox="0 0 26 26" fill="none" xmlns="http://www.w3.org/2000/svg">
<path d="M12.826 6.92957C12.3512 6.92957 11.1804 7.03491 10.5536 7.23482C10.183 7.35299 9.61146 7.69889 9.07677 8.03247C8.64446 8.30218 8.01536 8.89437 7.56007 9.4151C7.19739 9.82991 7.0545 10.3053 6.84142 10.7056C6.51389 11.3207 6.52141 13.0634 6.66705 14.1891C6.75795 14.8916 6.9731 15.3602 7.29113 16.011C7.81165 17.0762 8.408 17.5421 9.17812 18.1661C9.64673 18.5459 10.4271 18.7926 11.2902 19.0185C11.962 19.1943 13.1891 19.2196 14.6911 19.2064C15.9739 19.1952 16.8131 18.6099 17.7436 17.8661C18.5548 17.2177 18.7827 16.5892 19.1693 15.9895C19.452 15.551 19.5552 14.7537 19.6226 14.2337C19.7137 13.5314 19.6366 12.733 19.5963 12.1321C19.5648 11.6623 19.477 11.188 19.291 10.8149C19.0463 10.3239 18.9184 9.83128 18.7324 9.48453C18.5162 9.08142 17.8841 8.47619 17.3765 8.11427C16.9911 7.83946 16.5529 7.70208 15.9939 7.50217C15.4054 7.29173 14.9568 7.22325 14.5167 7.15581C14.1835 7.06284 13.8914 6.98303 13.4681 6.94313C13.1764 6.92957 12.7287 6.92957 12.2674 7.00937" stroke="#FBF3D3" stroke-linecap="round"/>
<path d="M8.11749 8.04693C8.2763 7.99426 8.59472 7.78197 8.88801 7.55573C9.16145 7.34478 9.15496 6.50988 9.06238 5.97319C9.03108 5.7917 8.86287 5.65357 8.74356 5.50752C8.38278 5.0659 7.78967 5.21238 7.39024 5.0811C6.98187 4.94687 6.57514 4.59915 6.48217 4.40004C6.18257 3.75841 6.3075 2.6489 6.62633 2.27581C7.03051 1.80283 7.39764 1.63697 7.7835 1.43706C8.1134 1.26613 8.77827 1.23794 9.64416 1.21001C9.93506 1.20063 10.1118 1.44863 10.271 1.68724C10.4553 1.96338 10.5116 2.4837 10.4853 3.05511C10.4598 3.60858 10.0871 3.89546 9.88717 4.22824C9.64276 4.6351 9.84607 5.17234 9.95261 5.49196C10.0621 5.82034 10.3504 6.07733 10.6701 6.27725C10.974 6.46732 11.3879 6.42369 11.7738 6.43765C12.1195 6.45017 12.4254 6.23854 12.8112 6.11883C12.9984 6.06075 13.1708 5.86665 13.3435 5.6412C13.6564 5.23297 13.5442 4.51315 13.3591 4.05786C13.1804 3.61855 12.668 3.49962 12.3747 3.18C12.0437 2.8193 12.3727 2.06313 12.5327 1.73034C12.6361 1.5153 12.8252 1.34408 13.0898 1.1717C13.5213 0.890492 14.1795 0.864452 14.7637 0.903956C15.6191 0.961805 15.9368 1.52843 16.2301 1.82092C16.5 2.09008 16.5497 2.53877 16.5637 3.25582C16.5684 3.49961 16.4444 3.65684 16.3251 3.78972C16.0943 4.04669 15.7006 4.10934 15.381 4.28211C15.2291 4.36419 15.0613 4.45489 14.9285 4.62727C14.5265 5.14875 14.9265 6.13 15.1396 6.44962C15.3611 6.7819 15.6974 6.98233 16.017 7.1551C16.3174 7.31747 16.6551 7.38135 17.1072 7.42165C17.849 7.48778 18.9694 7.38295 19.2627 7.09046C19.5253 6.82857 19.4498 5.89857 19.3042 5.33475C19.2102 4.97101 18.9981 4.6169 18.9048 4.24461C18.8723 4.11505 18.8912 3.92738 18.9439 3.77974C19.0441 3.49881 19.2894 3.36555 19.4881 3.25941C20.193 2.8829 21.1768 3.15167 21.5367 3.36395C22.0316 3.65585 22.1888 4.42536 22.3093 5.19708C22.4072 5.82408 22.2702 6.34308 22.1245 6.63477C21.9408 7.00263 21.6852 7.22174 21.526 7.31471C21.0609 7.58628 20.2495 7.30314 19.9299 7.20897C19.59 7.10885 19.3716 7.72611 19.2108 8.04573C19.0594 8.34669 18.9981 8.73645 18.9842 9.48063C18.9763 9.89895 19.2631 10.2001 19.4622 10.5065C19.6697 10.8259 20.0867 10.9455 20.4725 11.2778C20.7485 11.5156 21.2822 11.4786 21.6832 11.386C21.8626 11.3446 21.9765 11.1601 22.0694 11.0009C22.2502 10.6914 22.2159 10.2304 22.415 9.89681C22.6102 9.5698 23.0921 9.51056 23.717 9.41718C23.9676 9.37974 24.1575 9.45629 24.3036 9.5756C24.6496 9.85828 24.7952 10.5975 24.9428 11.1569C25.1945 12.1105 24.559 12.8863 24.1336 13.273C23.9072 13.4788 23.4688 13.3939 23.1101 13.3807C22.8798 13.3723 22.7227 13.2614 22.5898 13.1289C22.3026 12.8426 22.3228 12.4378 22.2833 12.1721C22.254 11.9748 22.0044 11.9311 21.832 11.8911C21.4538 11.8036 21.1273 12.0899 20.7415 12.342C20.4346 12.595 20.275 12.8344 20.1689 12.9937C20.1154 13.0739 20.0627 13.1529 19.8489 13.3141" stroke="#FBF3D3" stroke-linecap="round"/>
<path d="M20.4873 12.915C20.4083 13.0475 20.1426 13.3124 19.9163 13.7115C19.6828 14.1232 19.5041 14.4297 19.3704 14.7493C19.2308 15.0833 19.1578 15.4672 19.157 16.5817C19.1566 17.0847 19.5823 17.2237 19.7016 17.3566C19.8127 17.4803 20.2974 17.4639 20.8824 17.4112C21.3719 17.3672 21.338 16.6946 21.4446 16.3478C21.4939 16.1874 21.6038 16.0282 21.763 15.8953C21.8999 15.7811 22.1353 15.7617 22.4006 15.7613C23.008 15.7604 23.3587 16.4775 23.8507 17.1555C24.1288 17.5386 24.0786 18.1263 23.9596 18.5397C23.7749 19.1819 23.1496 19.4574 22.7103 19.7507C22.2856 20.0342 21.5822 19.9379 21.1533 19.7659C20.6873 19.5791 20.9933 18.6618 20.874 18.5289C20.6508 18.2804 20.2495 18.2891 19.9167 18.1957C19.5428 18.0908 19.1067 18.1024 18.7328 18.1949C18.3671 18.2855 18.0948 18.6067 17.7883 18.833C17.4819 19.0592 17.402 19.4574 17.3087 19.7902C17.2038 20.164 17.5601 20.4949 17.7863 20.7882C17.9903 21.0526 18.4108 21.0807 18.7835 21.4394C18.9407 21.5907 19.0237 21.7726 19.1035 22.0503C19.2459 22.5457 19.078 22.9697 18.9718 23.1289C18.7618 23.4439 18.414 23.5818 17.9359 23.6752C17.1502 23.8286 16.8179 23.4764 16.4452 23.1979C16.0729 22.9197 16.1778 22.0974 16.3366 21.615C16.4524 21.2634 16.6822 20.9769 16.829 20.6573C16.9059 20.49 16.9759 20.3114 16.9364 20.1254C16.8633 19.7816 16.339 19.8054 15.6364 19.712C14.3543 19.5417 14.0247 19.8309 13.6656 19.9638C13.1181 20.1664 12.7223 20.5476 12.3615 20.9606C12.1058 21.2534 12.0551 21.6649 12.0675 22.0647C12.0794 22.4503 12.6648 22.5443 12.9713 22.7434C13.2906 22.9509 13.3575 23.4733 13.3583 24.3108C13.3588 24.8122 12.7478 25.0183 12.0044 25.3235C11.4262 25.561 10.8596 25.3918 10.2216 25.1663C9.87383 25.0434 9.74074 24.7007 9.62143 24.4489C9.22835 23.6193 9.44705 22.6002 9.5931 22.2139C9.82943 21.5889 10.4031 21.2962 10.7499 20.9897C11.1942 20.597 11.6553 20.0983 11.682 19.9259C11.6963 19.8336 11.6561 19.7272 11.603 19.6466C11.3949 19.3305 10.9921 19.1941 10.6725 19.0472C10.3421 18.8955 9.98175 18.7153 9.59549 18.5684C9.0836 18.3738 8.75754 18.2364 8.43792 18.0896C8.10759 17.9378 7.79987 17.8103 7.18896 17.849C6.83674 17.8713 6.73447 18.2612 6.6814 18.4335C6.55773 18.8353 6.65387 19.218 6.76041 19.5377C6.88286 19.905 6.92042 20.388 6.88092 20.7204C6.82725 21.1719 5.93881 21.3201 5.48552 21.4538C5.04474 21.5838 4.55499 21.4286 4.20824 21.2818C3.78635 21.1031 3.33078 20.6849 3.02433 20.1394C2.7995 19.7392 2.71787 19.301 2.71708 18.5708C2.71648 18.0222 3.38026 17.7576 3.83275 17.5709C4.10318 17.4592 4.36585 17.5701 4.5119 17.6495C4.85164 17.8342 5.0833 18.2077 5.52183 18.3944C6.10233 18.6416 6.67781 17.8917 6.99943 17.5449C7.35908 17.1571 7.05449 16.3482 6.90765 16.0286C6.75589 15.6983 6.57566 15.3906 6.44199 15.0578C6.29264 14.686 6.17663 14.3531 5.95039 14.0467C5.73313 13.7524 5.27324 13.7402 4.59529 13.7262C4.4467 13.7232 4.36825 13.7657 4.31438 13.8188C4.08529 14.0445 4.07456 14.4297 3.86228 14.8024C3.74937 15.0006 3.46326 15.0426 3.1983 15.1224C2.84279 15.2295 2.53193 15.1232 2.37272 15.0306C1.86065 14.7329 1.38991 13.903 1.08227 13.2239C0.850733 12.7127 0.855219 11.9613 0.894723 11.3101C0.936324 10.6243 1.91503 10.2304 2.52874 10.0556C3.32323 9.82933 3.72661 10.2272 4.11247 10.4666C4.77844 10.8798 4.31398 12.275 4.39259 12.5814C4.43688 12.7541 4.81675 12.7554 5.17548 12.7291C5.41523 12.7115 5.64194 12.5168 5.90769 12.3576C6.26938 12.1409 6.25484 11.6397 6.34822 11.2144C6.46284 10.6922 6.44159 9.83612 6.26961 9.25833C6.16096 8.89332 5.82629 8.97949 5.34706 8.71334C5.00767 8.52485 4.3317 8.71257 3.98495 8.48632C3.53477 8.1926 3.26454 7.48072 3.1983 7.09446C3.15131 6.82041 3.38185 6.21217 3.51433 6.03979C3.81912 5.6432 3.94129 5.54862 4.31438 5.41494C4.84939 5.22325 5.45435 5.54983 5.8011 5.76211C6.20557 6.00973 6.62674 6.42046 6.69417 7.17981C6.73125 7.59728 6.81348 7.96549 6.95952 8.35135C7.00016 8.45872 7.13111 8.52413 7.26438 8.56483C7.39765 8.60553 7.55567 8.60553 7.68974 8.55286C7.82382 8.50018 7.92916 8.39484 8.1175 8.1267" stroke="#FBF3D3" stroke-linecap="round"/>
<path d="M10.1126 11.0795C10.3241 11.0268 10.8022 10.6565 11.0563 10.1502C11.221 9.82221 11.2826 9.485 11.5479 9.17854C11.8096 8.87633 12.2394 8.92476 12.4916 8.97744C12.9806 9.07956 12.9585 9.64142 13.0914 9.96104C13.1283 10.0498 13.2234 10.1202 13.3827 10.1609C14.0798 10.3392 14.4205 9.93669 14.7401 9.72361C15.0782 9.49823 15.537 9.4036 15.9751 9.4826C16.3986 9.55896 16.5497 9.98777 16.6427 10.1869C16.8433 10.6166 16.6311 11.2375 16.4312 11.5571C16.3397 11.7035 16.3111 11.8768 16.2844 12.036C16.2214 12.4112 16.8147 12.7011 17.1211 12.9936C17.4046 13.2642 17.5601 13.6317 17.588 14.1632C17.6012 14.4149 17.3494 14.6165 17.1503 14.7893C16.8751 15.028 16.3933 15.0426 15.5158 15.1093C15.3492 15.1219 15.3271 15.2278 15.2872 15.3212C14.9951 16.0046 15.0877 16.9843 14.9552 17.1303C14.8071 17.2936 14.5562 17.3307 14.3176 17.3442C13.7496 17.3765 13.4661 16.8798 13.2258 16.5741C12.9607 16.2368 12.9593 15.9484 12.8799 15.8024C12.6952 15.4628 12.004 15.6811 11.4977 15.8008C11.1083 15.8928 10.8325 16.1599 10.4335 16.2533C10.3285 16.2778 10.2212 16.2668 10.1142 16.1878C9.85831 15.9988 9.76708 15.6827 9.72717 15.4177C9.62777 14.7576 9.97856 14.4329 10.1653 14.1001C10.2129 14.0153 10.1924 13.9014 10.1529 13.8076C9.9699 13.3732 9.26351 13.2358 9.00933 12.9162C8.73845 12.5756 8.96823 11.959 9.08793 11.6393C9.21777 11.2927 9.63221 11.1338 9.96499 10.8944C10.0584 10.8146 10.1637 10.7092 10.2575 10.6286C10.3513 10.548 10.4303 10.4953 10.5915 10.4411" stroke="#FBF3D3" stroke-linecap="round"/>
<path d="M8.00611 9.4825C7.93898 9.65034 7.88761 9.85428 7.76987 10.4603C7.67474 10.9499 7.4843 11.8047 7.42276 12.1617C7.36122 12.5188 7.42836 12.3509 7.5049 12.0883C7.68274 11.4779 7.85252 10.6065 7.9967 9.93591C8.00342 9.90467 7.97255 10.2612 7.86295 10.8839C7.61887 12.2708 7.54838 13.2455 7.53999 13.389C7.52663 13.6173 7.49752 13.8218 7.5227 13.8983C7.54954 13.9799 7.68367 13.688 7.78488 13.1492C7.99816 12.0136 8.05697 11.1619 8.06536 10.9757C8.06923 10.89 8.09054 10.8231 8.07401 11.5102C8.05748 12.1973 8.00713 13.6407 7.98958 14.4514C7.97204 15.2621 7.98882 15.3964 8.02264 15.4823C8.05646 15.5683 8.10681 15.6018 8.14953 15.594C8.40084 15.5476 8.37891 14.4906 8.40434 13.5151C8.42341 12.7834 8.73492 15.8221 8.79392 15.8821C9.40304 16.5017 8.97243 13.9911 8.98082 14.1435C8.99881 14.4701 9.09093 14.8725 9.12475 14.9999C9.13534 15.0398 9.17587 14.6894 9.20104 14.3334C9.20976 14.2101 9.27657 14.2124 9.3025 14.2375C9.32844 14.2627 9.32844 14.3131 9.34522 14.3138C9.36201 14.3146 9.39558 14.2642 9.40448 14.1964C9.44276 13.9043 9.21045 13.7048 9.07466 13.5011C8.8943 13.2306 8.63371 12.9419 8.53199 12.5864C8.42874 12.2255 8.46384 11.8749 8.52284 11.5687C8.5742 11.3022 8.68355 11.111 9.00498 10.7807C9.34912 10.427 10.1218 10.0613 10.548 9.60279C10.6262 9.51866 10.5999 9.41639 10.5747 9.38994C10.4052 9.21188 10.1595 9.75307 10.1086 9.87997C10.0855 9.93771 10.0913 9.99008 10.1249 9.99084C10.5909 10.0014 10.8023 8.79082 10.8039 8.48287C10.8042 8.42194 10.6528 8.43176 10.517 8.49025C9.93201 8.74222 9.67021 9.27602 9.2786 9.92116C9.21063 10.0331 9.22672 10.0918 9.26029 10.1177C9.53284 10.3283 10.0893 9.38384 10.2436 9.03444C10.2819 8.94789 10.2775 8.8071 10.2442 8.70436C10.2108 8.60163 10.1269 8.5345 10.0417 8.49152C9.95655 8.44855 9.87263 8.43176 9.77066 8.46507C9.14273 8.67021 8.7873 9.63203 8.60828 10.2434C8.57445 10.3589 8.63269 10.4305 8.67516 10.4651C8.71763 10.4997 8.76798 10.4997 8.86105 10.4158C9.43091 9.90196 9.59901 9.12954 9.60842 8.7715C9.61033 8.69887 9.53289 8.63621 9.48178 8.60163C9.393 8.54156 9.22774 8.58383 9.04999 8.63443C8.61779 8.75748 8.414 9.64932 8.33644 10.3786C8.32291 10.5059 8.49537 10.4997 8.60625 10.4409C9.08382 10.1879 9.17485 9.56998 9.21833 9.24627C9.24545 9.04435 9.15908 8.87271 9.10009 8.79642C9.06978 8.75723 8.99074 8.77048 8.9142 8.79566C8.74573 8.85107 8.58336 9.09089 8.45621 9.37036C8.40664 9.47933 8.41298 9.53235 8.43816 9.58346C8.49405 9.69693 8.64948 9.75358 8.8018 9.77901C9.13817 9.83517 10.1524 9.06445 10.8021 8.30639C10.8969 8.19574 10.8878 8.09406 10.8712 8.04244C10.8547 7.99082 10.8044 7.97403 10.7281 7.99895C10.5384 8.0609 10.3802 8.31123 10.2869 8.56527C10.2502 8.66502 10.2775 8.71861 10.3281 8.74454C10.6003 8.88406 11.1726 8.28224 11.54 7.83086C11.5957 7.76244 11.5998 7.70346 11.5581 7.66913C11.4413 7.57298 11.2448 7.60073 11.1095 7.61751C10.9663 7.63528 10.8379 7.80315 10.7362 8.01447C10.6859 8.1189 10.7016 8.24257 10.7772 8.31987C10.8527 8.39718 11.0037 8.43074 11.1822 8.39769C11.9141 8.26215 12.0911 7.85553 12.1928 7.75407C12.2365 7.71048 12.2274 7.65261 12.1854 7.61828C12.0803 7.53225 11.906 7.54987 11.7959 7.57505C11.7473 7.58615 11.7361 7.65057 11.7442 7.73525C11.7524 7.81993 11.7859 7.93741 11.8452 8.01472C11.9553 8.15844 12.2259 8.17696 12.5554 8.16882C13.2221 8.15236 13.3458 7.85553 13.3969 7.77085C13.4337 7.70988 13.1947 7.68566 13.0086 7.66863C12.8558 7.65464 12.7365 7.73601 12.635 7.81205C12.5818 7.8519 12.5336 7.90486 12.5076 7.98954C12.4817 8.07422 12.4817 8.19171 12.5572 8.2858C12.7313 8.50266 13.0569 8.51619 13.3692 8.46584C13.8503 8.38826 14.1427 8.16068 14.1936 8.05922C14.2178 8.01098 14.2109 7.95776 14.1857 7.90664C14.1298 7.79317 13.8905 7.68617 13.5942 7.59285C13.4692 7.55347 13.3819 7.58344 13.3051 7.62565C13.1467 7.71272 13.0752 7.88808 13.0498 8.05719C13.0246 8.22463 13.1083 8.43024 13.2352 8.61663C13.3891 8.84273 13.8864 8.73691 14.176 8.64384C14.3542 8.58661 14.4647 8.39819 14.5494 8.25452C14.5919 8.18225 14.6005 8.09406 14.5755 8.00048C14.5506 7.9069 14.4835 7.8062 14.3986 7.73754C14.3136 7.66888 14.2129 7.63531 14.1275 7.6432C13.9649 7.6582 13.8386 7.85401 13.7285 8.04015C13.543 8.35366 13.7354 8.8366 13.8877 9.09928C13.9463 9.20045 14.0064 9.21092 14.1415 9.19439C14.4983 9.15071 14.8705 8.94137 15.1246 8.64562C15.2494 8.50034 15.2779 8.29953 15.2703 8.18764C15.2626 8.07575 15.1955 8.04218 15.1022 8.0165C14.8949 7.95944 14.5857 8.04066 14.264 8.21815C14.0064 8.36031 13.8895 8.68402 13.8045 8.98027C13.7688 9.1049 13.8203 9.19261 13.9047 9.25262C14.0986 9.39044 14.4631 9.28009 14.7935 9.11073C14.9771 9.01657 15.0918 8.89 15.2103 8.72089C15.2673 8.63943 15.2952 8.55179 15.2789 8.4666C15.2626 8.38141 15.1955 8.29749 15.119 8.23748C14.9728 8.12287 14.7546 8.10932 14.5094 8.14288C13.8774 8.22942 13.6011 8.8544 13.5416 9.0319C13.5117 9.12105 13.566 9.22618 13.6169 9.27805C13.7071 9.37009 13.9718 9.29636 14.3101 9.16998C14.7006 9.02402 14.838 8.68656 14.855 8.53424C14.8626 8.46626 14.8385 8.41549 14.8047 8.37277C14.7342 8.2837 14.5679 8.24511 14.3902 8.22807C13.976 8.18838 13.5843 8.87118 13.4653 9.32815C13.439 9.42921 13.448 9.48149 13.5067 9.51582C13.6652 9.6084 13.8544 9.58422 14.023 9.52548C14.8874 9.22428 15.3125 8.41549 15.3466 8.22934C15.3619 8.1453 15.3135 8.07677 15.2626 8.04218C15.2118 8.0076 15.1447 8.0076 15.0765 8.04956C15.0084 8.09152 14.9412 8.17543 14.915 8.30258C14.8888 8.42973 14.9056 8.59756 14.9394 8.69241C14.9733 8.78726 15.0236 8.80405 15.0831 8.81269C15.4506 8.86609 15.8211 8.5167 15.8635 8.41523C15.8836 8.36737 15.8557 8.31377 15.8218 8.27105C15.788 8.22833 15.7377 8.19476 15.6949 8.23621C15.6522 8.27766 15.6187 8.39514 15.6181 8.48084C15.6173 8.62084 15.7529 8.71911 15.8798 8.80379C15.9371 8.84205 15.9899 8.85491 16.0578 8.84677C16.2141 8.82803 16.3464 8.70335 16.4227 8.55967C16.4606 8.48829 16.4487 8.39921 16.4235 8.3392C16.3983 8.27919 16.348 8.24562 16.2969 8.22833C16.2457 8.21103 16.1954 8.21103 16.1443 8.26138C16.0147 8.38908 15.9909 8.6001 16.0245 8.7776C16.043 8.87529 16.1252 8.97188 16.1934 9.03215C16.2615 9.09242 16.3286 9.1092 16.4052 9.10946C16.4817 9.10971 16.5656 9.09293 16.6424 9.05071C16.7192 9.0085 16.7864 8.94137 16.8126 8.86482C16.8646 8.71275 16.7711 8.56755 16.7203 8.51644C16.6832 8.47921 16.6526 8.65147 16.5763 8.75268C16.4738 8.8887 16.5672 9.12548 16.6094 9.30323C16.6281 9.38217 16.6684 9.43063 16.7192 9.45657C16.7701 9.4825 16.8372 9.4825 16.8886 9.44894C16.9989 9.37687 17.0249 9.19515 17.0252 9.04283C17.0253 8.97246 16.9583 8.92408 16.9239 8.92331C16.7411 8.91925 16.7538 9.3284 16.7874 9.58244C16.8016 9.68983 16.8881 9.73578 16.973 9.76172C17.058 9.78766 17.1587 9.78766 17.2357 9.76248C17.3128 9.73731 17.3631 9.68696 17.3891 9.61906C17.415 9.55116 17.415 9.46725 17.3814 9.40723C17.3479 9.34722 17.2807 9.31365 17.221 9.29636C17.1612 9.27907 17.1109 9.27907 17.0514 9.32103C16.723 9.55254 16.7538 10.0236 16.72 10.5144C16.6979 10.835 16.8042 11.0754 16.9308 11.1771C16.9961 11.2296 17.1078 11.2117 17.21 11.1446C17.449 10.9876 17.5503 10.7041 17.6011 10.4509C17.6709 10.1034 17.5681 9.82224 17.4666 9.72892C17.4243 9.69003 17.3651 9.71951 17.314 9.81207C17.1789 10.0567 17.1103 10.9503 17.0676 12.0267C17.0529 12.398 17.1424 12.415 17.2357 12.3398C17.7466 11.9277 17.7537 11.2992 17.7542 10.1399C17.7544 9.67001 17.6525 9.43215 17.6187 9.38104C17.5856 9.33098 17.534 9.88531 17.4915 10.7306C17.4457 11.6419 17.5503 12.2111 17.6431 12.3886C17.7549 12.6024 17.9231 12.7034 18.0329 12.7036C18.0947 12.7038 18.1596 12.6368 18.2109 12.5689C18.3159 12.4301 18.2969 11.8942 18.1957 10.9897C18.0879 10.0261 17.9236 9.48301 17.9823 9.51582C18.2871 9.68602 18.4306 10.6965 18.6595 11.7386C18.8207 12.4725 18.8558 12.8387 18.8813 12.9401C18.8939 12.9904 18.8899 13.0416 18.6298 12.4382C18.3696 11.8347 17.8493 10.576 17.5226 9.82682C17.1031 8.86508 16.974 8.61841 17.0246 8.54213C17.1775 8.31174 17.9368 9.20685 18.3714 9.90336C18.9858 10.8881 18.9235 11.346 18.9575 11.5158C19.0006 11.7307 18.7038 11.0266 18.3488 9.95295C18.2145 9.54678 18.2287 9.26381 18.2877 8.98333C18.3555 8.66101 18.5339 8.31377 18.4919 8.1528C18.4734 8.08174 18.3661 8.07575 18.2976 8.08389C18.1727 8.09876 18.0599 8.19374 17.9917 8.22782C17.7616 8.3429 18.482 7.88961 18.5926 7.7795C18.6239 7.74838 18.5186 7.71974 18.4083 7.73627C18.1575 7.77383 17.9749 7.90537 17.9826 7.92292C18.1953 8.41223 19.0374 7.19793 19.7019 6.58533C19.9776 6.33116 20.1095 5.99156 20.17 5.82932C20.2115 5.71821 19.992 6.07395 19.975 6.28527C19.9661 6.39553 19.9915 6.51337 20.0337 6.58228C20.0759 6.65119 20.1431 6.66798 20.2616 6.62627C20.5632 6.52011 20.7544 6.32977 20.8388 6.17795C20.9743 5.93437 21.026 5.61876 21.0176 5.36472C21.001 4.86196 20.3826 4.32949 20.2387 4.25295C19.8862 4.06548 20.1776 5.54603 20.364 5.86238C20.3979 5.91977 20.4655 5.93866 20.5334 5.95596C20.6013 5.97325 20.6852 5.97325 20.7704 5.9229C21.1559 5.69503 21.1104 5.26224 21.1025 4.76357C21.0961 4.36005 20.908 4.05841 20.7643 3.91448C20.6956 3.84565 20.6038 3.8209 20.4851 3.84557C20.2003 3.90472 20.0093 4.10775 19.8827 4.32695C19.6698 4.69545 19.6019 5.17426 19.6607 5.58036C19.7154 5.95847 20.0586 6.1421 20.2699 6.25221C20.4791 6.36117 20.7366 6.32926 20.9733 6.29569C21.2281 6.25958 21.3815 6.00834 21.4578 5.78838C21.626 5.30342 20.9771 4.56853 20.553 4.21124C20.339 4.03103 20.0942 4.0574 19.9673 4.11639C19.6918 4.24448 19.7209 4.96828 19.8468 5.6152C19.9103 5.94173 20.2621 6.05767 20.4902 6.10014C20.764 6.15113 20.9914 6.0414 21.1183 5.95697C21.3886 5.7771 21.3311 5.28055 21.2047 4.61125C21.1697 4.42595 21.0616 4.26439 20.9932 4.16954C20.9248 4.07469 20.8744 4.0579 20.8149 4.05765C20.7554 4.0574 20.6883 4.07418 20.6285 4.14996C20.1651 4.7376 20.3139 5.98647 20.5415 6.44674C20.5929 6.5506 20.7523 6.54897 20.8464 6.54109C20.9405 6.5332 21.0077 6.48285 21.0674 6.39817C21.3596 5.98407 21.2803 5.21443 21.2213 4.57666C21.2092 4.44656 21.1623 4.3478 21.1785 4.3211C21.3006 4.12084 21.4664 4.76789 21.5765 5.22562C21.6013 5.32858 21.619 5.39549 21.6025 5.4049C21.3324 5.5586 21.2976 4.50139 21.3977 3.85625C21.4235 3.6901 21.7502 3.68562 21.8964 3.67646C22.0426 3.66731 22.093 3.70088 22.1105 3.91118C22.1601 4.50543 22.0772 4.97235 22.0266 5.06567C22.0062 5.10328 21.9424 5.07508 21.9165 5.02448C21.854 4.90256 21.8738 4.75314 21.84 4.70203C21.6155 4.36279 21.6546 6.18889 21.4336 6.65882C21.4001 6.73016 21.3321 6.7524 21.3062 6.74452C21.2803 6.73664 21.2803 6.68629 21.3054 6.64357C21.3306 6.60084 21.381 6.56728 21.3649 6.60873C21.3489 6.65018 21.265 6.76766 21.2218 6.80301C21.0133 6.9735 21.4155 5.52162 21.2136 4.45943C21.1372 4.05722 20.7732 3.82141 20.4604 3.64341C20.3103 3.55799 20.1309 3.58288 20.036 3.60806C19.9411 3.63323 19.9244 3.68358 19.9157 3.79344C19.8939 4.07041 19.9574 4.2944 20.0589 4.37069C20.1047 4.40513 20.1603 4.39662 20.2199 4.36306C20.2794 4.32949 20.3465 4.26236 20.3811 4.2026C20.4157 4.14284 20.4157 4.09249 20.3821 4.02459C20.3485 3.9567 20.2814 3.87278 20.2216 3.82955C20.1619 3.78632 20.1115 3.78632 20.0436 3.81149C19.8846 3.87044 19.7214 4.10673 19.6111 4.39459C19.5671 4.50935 19.6182 4.58175 19.6858 4.61633C19.7535 4.65092 19.8542 4.65092 19.9228 4.60896C19.9915 4.567 20.0251 4.48308 20.034 4.40629C20.0429 4.32949 20.0261 4.26236 19.9755 4.2026C19.9249 4.14284 19.841 4.09249 19.7558 4.09173C19.6706 4.09096 19.5867 4.14131 19.577 4.18403C19.5673 4.22676 19.6345 4.26032 19.8054 4.29491" stroke="#FBF3D3" stroke-linecap="round"/>
<path d="M14.1092 1.54849C14.0756 1.54849 13.8905 1.44779 13.6026 1.312C13.4895 1.25865 13.4154 1.31047 13.3053 1.42847C12.6858 2.09233 12.736 2.78538 12.7779 2.93745C12.8376 3.15365 13.0406 3.2604 13.2344 3.31965C13.5985 3.43099 13.9891 3.32906 14.2513 3.20242C14.5238 3.07082 14.6513 2.83776 14.7022 2.61831C14.7746 2.30596 14.6691 2.02402 14.5257 1.84653C14.3377 1.61392 13.9922 1.53171 13.654 1.57341C13.2676 1.62105 13.0925 1.95485 12.9994 2.0731C12.6635 2.4999 12.8036 3.24311 12.871 3.39518C12.9639 3.60477 13.3605 3.7517 13.8765 3.84502C14.3348 3.92791 14.7012 3.77 14.9382 3.64311C15.1166 3.54756 15.2275 3.43078 15.3206 3.26218C15.4716 2.98875 15.4315 2.70197 15.3811 2.50794C15.2018 1.81683 14.6366 1.54951 14.2897 1.40533C14.0148 1.29105 13.687 1.53018 13.416 1.76719C13.0272 2.10709 13.1764 3.00356 13.328 3.48621C13.4588 3.90299 13.922 3.888 14.0992 3.87121C14.364 3.84614 14.6335 3.70236 14.8619 3.52487C15.0887 3.34859 15.2443 3.059 15.346 2.704C15.4535 2.329 15.2967 1.95689 15.1276 1.70285C15.0011 1.51282 14.8217 1.48085 14.6951 1.46381C14.5189 1.44011 14.3136 1.58155 14.1443 1.74226C13.923 1.95218 13.8894 2.51074 14.0489 3.19937C14.09 3.3771 14.3116 3.42976 14.5732 3.50605C14.9381 3.61242 15.3786 3.43129 15.7257 3.23675C15.979 3.09478 16.0754 2.92219 16.1262 2.80394C16.1866 2.66358 16.0764 2.44818 15.9327 2.22822C15.6265 1.75944 15.076 1.68429 14.9326 1.69242C14.8364 1.69788 14.7052 1.78448 14.6109 1.89459C14.4166 2.12131 14.4143 2.37851 14.4479 2.54736C14.4979 2.79901 14.7184 2.98881 14.8962 3.09053C15.0108 3.1561 15.2265 3.1419 15.4973 3.14215C15.6183 3.14227 15.701 3.07527 15.7527 3.00738C15.9703 2.72115 15.7031 2.31239 15.6438 2.20177C15.5379 2.00407 15.5332 2.74978 15.508 3.05544C15.5014 3.13643 15.3303 2.88811 15.2288 2.84565C15.181 2.82561 15.1274 2.85353 15.0762 2.88735C14.9663 2.9601 14.6544 3.5269 14.2055 4.39048C13.9194 4.9411 13.8381 5.24338 13.8378 5.33696C13.8372 5.58344 14.1254 4.73836 14.1684 4.44821C14.2066 4.19016 14.2953 3.88901 14.3042 3.69346C14.3064 3.64545 14.0603 4.62545 13.7468 5.93888C13.6138 6.49609 13.6006 6.63386 13.6174 6.68498C13.721 7.00059 14.0573 5.72197 14.1514 5.3301C14.1675 5.26305 14.16 5.21134 14.1516 5.32806C14.1227 5.72985 14.1595 6.2926 14.261 6.71625C14.299 6.87509 14.3624 6.90494 14.4135 6.89706C14.4647 6.88917 14.515 6.83882 14.5493 6.78771C14.7508 6.4878 14.5506 5.7891 14.4654 5.48217C14.4311 5.66704 14.482 5.92184 14.541 6.17435C14.5832 6.37652 14.6503 6.72897 14.7703 7.0921" stroke="#FBF3D3" stroke-linecap="round"/>
<path d="M8.51465 2.31143C8.07828 2.31143 7.736 2.37856 7.46569 2.62294C7.04095 3.00691 6.90446 3.46338 6.84521 3.69122C6.75764 4.02796 6.80223 4.36154 6.87801 4.5899C6.91757 4.7091 7.03771 4.80147 7.14833 4.86174C7.35975 4.97693 7.69887 4.88895 8.07116 4.73688C8.40182 4.60182 8.61535 4.33001 8.80149 4.0597C9.25857 3.39594 8.93881 2.63489 8.77835 2.39712C8.64076 2.19325 8.39665 2.15885 8.26976 2.16724C7.88886 2.19243 7.41406 2.69999 7.10026 3.22434C6.87149 3.60662 6.90395 4.10623 6.94616 4.46199C6.96937 4.65758 7.09009 4.75214 7.22512 4.8536C7.40596 4.98948 7.76651 4.99016 8.13906 4.95634C8.63643 4.91118 9.25719 4.2644 9.55674 3.70368C9.71622 3.40517 9.4652 2.92427 9.23684 2.50927C9.14171 2.33637 9.02527 2.27888 8.91465 2.2359C8.69486 2.15051 8.44802 2.2092 8.23645 2.31066C7.77753 2.53075 7.61648 3.25943 7.58241 3.53839C7.56486 3.68202 7.61546 3.83414 7.71667 3.93713C7.81788 4.04012 7.98572 4.09047 8.10574 4.10801C8.55721 4.17401 9.12292 3.58493 9.47995 3.05091C9.61038 2.85583 9.46469 2.58403 9.30423 2.34703C9.22642 2.23209 9.09342 2.17716 8.9322 2.20132C8.54719 2.25901 8.26137 2.61505 8.09201 2.88588C7.81313 3.33183 7.81941 3.88703 7.90358 4.03961C7.99633 4.20773 8.3102 4.05792 8.52991 3.93992C9.06958 3.6501 9.17479 3.17806 9.3111 2.79586C9.35428 2.67476 9.3116 2.54944 9.21904 2.42255C9.16217 2.34458 9.00899 2.31244 8.91465 2.2865C8.39309 2.14311 7.83721 3.31029 7.79372 3.77616C7.7834 3.88676 8.00301 3.90432 8.18991 3.8377C9.11298 3.50866 9.44536 2.5352 9.51504 2.15987C9.52785 2.09086 9.46469 2.02458 9.42222 1.99C9.37976 1.95541 9.32941 1.95541 9.25312 2.02255C9.05184 2.19967 8.95559 2.41263 8.93016 2.52249C8.9166 2.58107 8.92152 2.64913 8.95508 2.70049C8.98865 2.75186 9.05578 2.78543 9.12394 2.78594C9.2632 2.78698 9.41231 2.55046 9.53945 2.25421C9.59289 2.12969 9.58268 2.04187 9.55751 1.96508C9.50687 1.81062 9.37976 1.71841 9.2699 1.66755C9.21367 1.64152 9.14326 1.65026 9.0835 1.67544C9.02374 1.70061 8.97339 1.75096 8.97263 1.83564C8.97076 2.04379 9.17479 2.25955 9.37772 2.42891C9.55217 2.5745 9.75153 2.56572 9.82808 2.54054C10.1244 2.44308 9.12648 2.12579 8.97314 1.99025C8.93442 1.95603 9.1219 1.92185 9.22489 1.92159C9.37912 1.92121 9.56437 2.0729 9.78459 2.30125C9.95327 2.47617 9.93869 2.71728 9.91352 2.96216C9.87902 3.29776 9.71898 3.56509 9.5837 3.71742C9.51958 3.78961 9.44842 3.83617 9.38026 3.85372C9.31211 3.87126 9.24498 3.85448 9.21879 3.7787C9.1926 3.70292 9.20938 3.56865 9.2432 3.44914C9.27702 3.32962 9.32737 3.22892 9.17708 3.34488C8.18932 4.10701 8.04166 4.51361 7.90434 4.77731C7.88312 4.81807 7.98775 4.83707 8.04751 4.82054C8.17168 4.7862 8.27663 4.61787 8.38674 4.44877C8.4388 4.36881 8.4465 4.27966 8.40479 4.20286C8.22575 3.87316 7.85501 3.90534 7.57579 3.89644C7.44534 3.89228 7.34693 4.00502 7.27827 4.12378C7.20961 4.24253 7.17604 4.39358 7.16714 4.50497C7.15824 4.61635 7.17503 4.68348 7.23402 4.74324C7.3703 4.88128 7.63174 4.90522 7.88552 4.89683C8.10706 4.88951 8.27663 4.80401 8.39513 4.70255C8.45017 4.65542 8.48006 4.60109 8.48896 4.54998C8.50642 4.44971 8.37987 4.31272 8.26951 4.21075C7.92756 3.8948 9.40875 5.71388 9.65058 6.04955C9.83201 6.30137 9.41383 5.23174 9.38764 4.86327C9.32738 4.01554 9.85376 7.24422 9.88758 7.28694C10.0325 7.47002 9.90513 6.78802 9.73602 5.89239C9.69058 5.65171 9.63456 5.48501 9.61701 5.43212C9.52689 5.16045 9.9214 6.17568 10.2004 6.71707C10.262 6.83666 10.2774 6.8877 10.2441 6.87168C10.1053 6.80492 9.92293 6.61815 9.71975 6.53321C9.63899 6.49946 9.5837 6.54898 9.54937 6.61662C9.46975 6.77351 9.48096 6.93907 9.53132 7.02375C9.71387 7.33078 10.1416 6.99043 10.2011 7.03239C10.3059 7.10628 10.0582 7.34543 9.88911 7.52318C9.4998 7.93239 8.11591 8.24258 7.72532 8.36388C6.93865 8.60817 8.6835 8.0249 8.76843 7.94048C8.80665 7.90249 8.75267 7.82248 8.64307 7.79629C8.05311 7.6553 7.46696 8.27614 7.03237 8.82796C6.95401 8.92745 6.95532 9.00648 6.95506 9.06624C6.95481 9.126 6.97159 9.17635 7.0138 9.21068C7.05602 9.245 7.12315 9.26179 7.1913 9.26204C7.25945 9.2623 7.32659 9.24551 7.35278 9.21169C7.37897 9.17787 7.36219 9.12752 7.31158 9.06802C7.19189 8.92728 7.04025 8.85543 6.95557 8.85517C6.72016 8.85447 6.83631 9.363 6.83631 9.40623C6.83631 10.1193 6.29517 7.85707 6.08334 7.61066C6.02489 7.54266 5.989 7.68313 5.99714 7.71848C6.05012 7.9486 5.85372 7.04231 5.72657 6.77988C5.5869 6.4916 5.39599 6.26214 5.26909 6.16881C5.21653 6.13015 5.15898 6.1594 5.13305 6.36945C5.05787 6.97822 5.14067 7.56514 5.2251 7.853C5.26179 7.97809 5.34309 8.04016 5.41124 8.07474C5.47939 8.10933 5.54653 8.10933 5.61468 8.05898C5.77777 7.93848 5.86948 7.65313 5.94577 7.34034C6.0241 7.01917 6.25245 6.43887 6.08334 6.04955C5.95007 5.74273 5.34564 5.73677 5.11728 5.6264C5.01465 5.5768 4.90571 5.63352 4.80348 5.75151C4.36058 6.26273 4.47951 7.05248 4.5558 7.49826C4.5756 7.61395 4.76686 7.71873 5.00361 7.82045C5.22344 7.9149 5.41175 7.83825 5.52161 7.76247C5.68938 7.64674 5.7342 7.43189 5.75123 7.27982C5.78948 6.93847 5.46515 6.60289 5.09999 6.28782C4.93091 6.14194 4.75161 6.10905 4.63336 6.09201C4.56616 6.08233 4.48154 6.10854 4.41314 6.15076C4.27576 6.23553 4.20894 6.51389 4.17487 6.83557C4.15133 7.05777 4.30964 7.21014 4.4701 7.34543C4.66161 7.50689 4.85231 7.56666 4.97055 7.59209C5.11921 7.62406 5.32631 7.55039 5.51271 7.44893C5.58807 7.40791 5.5984 7.34746 5.59866 7.28796C5.5992 7.16025 5.53127 7.0418 5.44684 6.93195C5.34137 6.79471 5.05828 6.63544 4.71117 6.49126C4.57074 6.43292 4.48154 6.46455 4.41314 6.52355C4.34473 6.58255 4.29438 6.68325 4.26845 6.79387C4.24251 6.90448 3.69117 6.91741 3.75791 7.03239C4.4701 8.25932 4.68244 7.53259 4.84315 7.59184C4.98395 7.64375 5.24087 7.6516 5.55416 7.68517C5.92302 7.72469 6.05512 8.20901 6.79104 8.98791C7.19479 9.41524 7.3276 9.78665 7.38711 10.1333C7.51211 10.8614 7.27776 11.3104 7.23479 11.6346C7.17455 12.0891 7.15875 12.6683 7.14985 13.5566C7.14509 14.032 7.10789 11.9415 7.03186 11.8731C6.91129 11.7647 6.88717 12.53 6.92073 13.434C6.98906 15.2741 7.27674 15.6018 7.35278 15.7287C7.39046 15.7916 7.4456 15.8388 7.48832 15.7977C7.93681 15.3652 7.51476 14.4677 7.48069 14.2388C7.45359 14.0568 7.61394 14.8308 7.98648 16.2203C8.12614 16.7412 8.22475 16.8713 8.27637 16.8985C8.54747 17.0414 8.29494 16.0291 7.914 14.9445C7.87641 14.8374 8.30816 15.935 8.79946 16.9771C9.18972 17.8049 9.76832 18.1112 9.93742 18.1537C10.0205 18.1745 10.1065 18.1458 10.1581 18.0868C10.4981 17.6983 9.72 16.8423 9.42375 16.5369C9.31566 16.4255 9.21141 16.5 9.16818 16.5763C8.84649 17.144 9.59794 18.2109 9.96285 18.5936C10.0656 18.7014 10.2093 18.7047 10.3362 18.7218C10.3954 18.7297 10.4463 18.7053 10.4806 18.6463C10.7819 18.1284 10.2952 17.2481 10.2105 17.0366C10.0639 16.6701 11.0566 18.7032 11.1926 18.9499C11.2303 19.0183 11.3271 19.0765 11.3788 19.0524C11.7169 18.8941 11.3302 17.9978 11.1603 17.4114C10.9594 16.7176 11.5825 18.5852 11.9123 18.8482C11.9931 18.9126 12.09 18.8914 12.1668 18.8327C12.3475 18.6944 12.3799 18.4347 12.3631 18.1982C12.3237 17.6431 12.1429 17.3839 11.9232 17.0025C11.8718 16.9132 11.7879 16.8916 11.7449 16.9415C11.2929 17.4657 11.854 18.5171 11.9977 18.7464C12.0992 18.9084 12.3113 18.959 12.472 18.9593C12.6307 18.9595 12.769 18.6895 12.9045 18.4271C13.0766 18.0938 12.8224 17.3199 12.3901 16.6216C12.3103 16.4928 12.1785 16.4848 12.0679 16.5262C11.9573 16.5677 11.8398 16.6851 11.7961 16.9135C11.6899 17.4675 11.8876 17.9576 12.0397 18.1946C12.1117 18.3068 12.2253 18.3645 12.3443 18.3991C12.4633 18.4337 12.5976 18.4337 12.7003 18.3917C12.8961 18.3118 12.9729 17.978 13.007 17.5889C13.0382 17.2332 12.8722 16.9262 12.7286 16.664C12.5877 16.4069 12.297 16.1633 11.925 15.9767C11.7511 15.8894 11.553 15.9579 11.3907 16.101C11.0204 16.4278 10.9391 16.8896 10.9556 17.1769C10.9752 17.518 11.2097 17.7044 11.3279 17.772C11.4722 17.8545 11.6669 17.8742 11.8866 17.8407C12.156 17.7995 12.3453 17.5533 12.4471 17.3333C12.4924 17.2352 12.4816 17.1469 12.4649 17.0785C12.3809 16.7366 11.8896 16.4848 11.4492 16.3151C11.2837 16.2514 10.992 16.2467 10.6194 16.2971C10.4585 16.3188 10.3812 16.4481 10.3295 16.6343C10.2067 17.0774 10.2774 17.4328 10.3534 17.5597C10.4275 17.6832 10.666 17.8391 10.9958 18.0339C11.2817 18.2028 11.6826 18.1458 12.0384 18.0866C12.2284 18.0549 12.4125 17.9261 12.6075 17.7483C12.68 17.6822 12.6515 17.6209 12.6093 17.5698C12.5143 17.4548 12.3301 17.3829 12.1691 17.3572C12.0737 17.342 12.1083 17.6687 12.176 18.0075C12.2181 18.2187 12.4293 18.3986 12.7169 18.5766C12.9389 18.714 13.1759 18.6035 13.3282 18.5191C13.4027 18.4778 13.4469 18.4011 13.4729 18.3162C13.4988 18.2312 13.4988 18.1305 13.4736 18.0535C13.4276 17.9127 13.2623 17.7903 13.1016 17.6548C13.0309 17.5951 12.9577 17.5864 12.9231 17.6365C12.8259 17.7773 12.9053 17.9754 12.9811 18.1356C13.118 18.4252 13.3452 18.6534 13.523 18.7635C13.6426 18.8376 13.8197 18.8405 14.0481 18.8321C14.261 18.8243 14.4305 18.7225 14.5407 18.5956C14.5889 18.5401 14.6004 18.4855 14.5839 18.4344C14.4882 18.1384 14.0593 18.0441 13.6613 17.9675C13.5848 17.9528 13.567 18.0258 13.5667 18.0853C13.5653 18.4109 14.0064 18.6534 14.252 18.7302C14.4692 18.7981 14.7016 18.7053 14.8539 18.6292C14.9888 18.5619 15.0414 18.4006 15.0584 18.2483C15.0717 18.1291 14.9407 18.0105 14.7632 17.892C14.3225 17.5978 13.72 17.8061 13.5761 17.9073C13.5021 17.9593 13.4825 18.0756 13.5072 18.1611C13.5319 18.2465 13.6158 18.3136 13.7513 18.3482C14.376 18.5076 15.1049 18.0461 15.8279 17.461C15.9522 17.3604 15.9065 17.2487 15.8559 17.1886C15.7502 17.0634 15.5845 17.0605 15.4411 17.0689C15.2128 17.0822 15.0251 17.1449 14.932 17.2377C14.8171 17.3523 14.8547 17.6352 14.9559 17.9146C15.0004 18.0374 15.1243 18.0766 15.2349 18.1026C15.836 18.2435 16.5483 17.3682 16.8619 16.9112C16.9942 16.7184 16.9908 16.5549 16.9239 16.4184C16.7767 16.1178 16.5 16.0265 16.323 16.0011C16.1974 15.983 15.995 15.9924 15.8493 16.0428C15.5895 16.1326 15.4828 16.4319 15.4065 16.6689C15.3539 16.8324 15.4309 17.0925 15.5492 17.3974C15.5991 17.5262 15.701 17.568 15.8281 17.6024C16.1172 17.6804 16.531 17.5029 16.9458 17.1647C17.2947 16.8802 17.3809 16.5026 17.3979 16.2485C17.4207 15.908 16.9577 15.7046 16.8143 15.6453C16.6005 15.557 16.2304 15.7366 15.8747 16.0242C15.2897 16.4971 15.4991 17.4328 15.5749 17.5848C15.6841 17.804 15.8887 17.891 16.0153 17.908C16.4225 17.9628 16.8535 17.4358 17.0836 17.0874C17.2809 16.7888 17.2964 16.3841 17.2207 16.0626C17.1829 15.9025 17.061 15.7748 16.9503 15.6972C16.8397 15.6196 16.7222 15.6029 16.5862 15.653C16.2742 15.7678 16.0931 16.0423 16 16.2536C15.7047 16.9242 15.821 17.8223 15.9055 17.9917C15.9436 18.0682 16.0234 18.0939 16.0916 18.1028C16.226 18.1204 16.4303 17.9266 16.6421 17.6726C16.7574 17.5343 16.7538 17.3331 16.737 17.1045C16.73 17.0089 16.6866 16.9598 16.6274 16.9171C16.5681 16.8743 16.4842 16.8408 16.4158 16.8654C15.9963 17.0167 16.1435 17.8554 16.1854 18.1687C16.2034 18.3028 16.3113 18.3645 16.3881 18.3739C16.4649 18.3833 16.532 18.333 16.5918 18.2483C16.7245 18.0602 16.7538 17.8579 16.7118 17.7143C16.6546 17.5185 16.4323 17.4506 16.3055 17.4251C16.1972 17.4034 15.9924 17.4836 15.7384 17.6021C15.5795 17.6762 15.466 17.8559 15.3559 18.16C15.2963 18.3248 15.2962 18.5313 15.363 18.6686C15.4299 18.806 15.581 18.8731 15.7259 18.8909C15.8709 18.9087 16.0051 18.8751 16.133 18.7991C16.261 18.7231 16.3784 18.6056 16.397 18.5199C16.4156 18.4342 16.3316 18.3838 16.2213 18.3663C15.9797 18.3279 15.788 18.4164 15.6949 18.5176C15.6407 18.5765 15.6186 18.6859 15.6013 18.7714C15.584 18.8568 15.584 18.9239 15.6512 19.0005C15.821 19.1941 16.0748 19.2474 16.2607 19.2306C16.4849 19.2104 16.6516 19.0953 16.7362 18.9687C16.7827 18.8992 16.7873 18.7917 16.7792 18.7147C16.7711 18.6376 16.7375 18.5873 16.695 18.5445C16.6526 18.5018 16.6022 18.4682 16.5763 18.4845C16.319 18.646 16.6348 19.1955 16.6688 19.3992C16.6777 19.4523 16.7192 19.5007 16.7617 19.5266C16.8041 19.5526 16.8545 19.5526 16.8972 19.519C16.9965 19.4409 17.0081 19.1813 17.0081 18.9522C17.0081 18.7738 17.1434 19.6349 17.1523 19.9922C17.172 20.784 17.1942 22.1621 17.2535 22.3066C17.3425 22.5236 17.2797 21.7741 17.2036 21.6724C17.1708 21.6285 17.1108 21.6378 17.0597 21.6713C16.9402 21.7498 16.8728 22.009 16.8219 22.2885C16.7928 22.4488 16.8214 22.5527 16.8972 22.6794C16.9467 22.7621 17.0569 22.8563 17.1423 22.9082C17.2801 22.9919 17.4816 22.9265 17.6847 22.8253C17.7825 22.7766 17.8208 22.657 17.8383 22.5548C17.8559 22.4525 17.8391 22.3518 17.7801 22.2664C17.6546 22.0846 17.4495 21.9943 17.2723 21.918C17.0312 21.8142 16.8051 21.9256 16.7289 22.0101C16.6906 22.0524 16.7029 22.128 16.7617 22.2214C16.908 22.4539 17.1932 22.5868 17.4386 22.6377C17.6303 22.6774 17.8376 22.5878 18.0324 22.4609C18.1142 22.4076 18.1432 22.3508 18.1437 22.2577C18.145 22.028 17.9922 21.8249 17.8315 21.7148C17.7589 21.6651 17.6875 21.6551 17.611 21.6716C17.5345 21.6881 17.4505 21.7385 17.3989 21.8315C17.2838 22.0392 17.3132 22.2476 17.3384 22.3574C17.3713 22.5011 17.5833 22.6036 17.8032 22.6463C17.9041 22.6659 17.9896 22.5715 18.0497 22.5034C18.1584 22.3799 18.1778 22.1982 18.161 22.0205C18.1482 21.8841 18.0258 21.7741 17.8655 21.6388C17.7668 21.5554 17.5879 21.5035 17.4846 21.5193C17.3814 21.535 17.3478 21.6357 17.3389 21.738C17.3213 21.9403 17.3976 22.1118 17.4821 22.2554C17.583 22.4272 17.7699 22.5695 17.9813 22.6712C18.0857 22.7215 18.2094 22.7058 18.2951 22.6806C18.3808 22.6555 18.4311 22.6051 18.4654 22.5456C18.4998 22.4861 18.5165 22.419 18.5084 22.3508C18.4916 22.2102 18.3482 22.096 18.1791 22.0113C18.097 21.9702 18.01 21.9602 17.9332 21.9684C17.8564 21.9765 17.7893 22.0101 17.7631 22.0945C17.7369 22.1789 17.7537 22.3132 17.8043 22.4243C17.9025 22.6399 18.1931 22.7562 18.439 22.7989C18.5163 22.8123 18.5003 22.7241 18.4497 22.656C18.0722 22.1476 17.534 21.5879 17.4577 21.2998C17.3771 20.9954 17.2288 20.5046 17.2031 20.1723C17.1724 19.7742 17.1271 19.164 17.1182 18.6053C17.1135 18.3097 17.3458 17.978 17.6512 17.6886C17.8836 17.4684 18.4291 17.3158 18.7535 17.2972C18.9738 17.2846 18.8385 17.7211 18.8644 17.7974C18.8759 17.8311 18.7393 17.8234 18.6706 17.8569C18.602 17.8905 18.5684 17.9576 18.5847 18.0174C18.601 18.0771 18.6681 18.1275 18.7279 18.1534C18.969 18.2581 19.2957 18.0949 19.5248 17.9681C19.5777 17.9388 19.5846 17.8752 19.6184 17.8325C19.6889 17.7434 19.9726 17.7216 20.4039 17.7468C21.1816 17.7922 21.4155 18.2806 21.4915 18.3653C21.528 18.4059 21.5843 18.4164 21.6438 18.3998C21.7818 18.3615 21.9571 18.1636 22.1435 17.9269C22.2287 17.8186 22.2292 17.6901 22.1875 17.5876C22.1458 17.4851 22.0451 17.4012 21.9513 17.3748C21.8575 17.3483 21.7735 17.3819 21.7135 17.4244C21.3098 17.7101 21.3311 18.602 21.3562 18.8052C21.3672 18.8938 21.4318 18.9412 21.4913 18.9756C21.8066 19.1575 22.2964 18.8243 22.6183 18.5367C22.7657 18.405 22.7719 18.1636 22.7554 17.9185C22.7361 17.6322 22.4174 17.3839 22.1552 17.1637C22.0372 17.0646 21.9098 17.0442 21.8158 17.0605C21.7217 17.0768 21.6545 17.1439 21.6116 17.2036C21.3447 17.5747 21.5172 18.3477 21.6184 18.5761C21.671 18.6948 21.7868 18.7876 21.9058 18.8395C22.0248 18.8914 22.159 18.8914 22.2786 18.8578C22.5117 18.7924 22.6697 18.604 22.8133 18.3846C23.0095 18.085 23.0603 17.7567 23.0435 17.478C23.0215 17.1126 22.8411 16.7569 22.6295 16.5448C22.5503 16.4654 22.4683 16.5173 22.4169 16.5598C22.137 16.7912 22.1957 17.4485 22.2628 17.7786C22.2947 17.9356 22.4642 18.0248 22.5753 18.0515C22.6865 18.0782 22.7704 18.0278 22.8388 17.9683C22.9698 17.8544 23.0094 17.5711 22.9674 17.2072C22.9007 16.6284 22.4337 16.4675 22.3655 16.4334C22.156 16.3286 22.9728 17.1571 23.086 17.8216C23.1037 17.9261 23.0104 17.9749 22.9509 17.9673C22.8914 17.9597 22.8243 17.8925 22.7897 17.7656C22.7073 17.4632 22.7887 17.2136 22.8647 17.1457C22.899 17.1151 22.9575 17.1449 23.0003 17.2207C23.2375 17.6415 23.162 18.2943 23.0018 18.8474C22.9707 18.9545 22.8751 18.9921 22.8322 18.9845C22.7892 18.9768 22.7724 18.9097 22.7638 18.8499C22.7071 18.4586 23.1783 17.9932 23.2884 17.9759C23.3897 17.96 23.3654 18.246 23.3486 18.4492C23.3367 18.5937 23.1294 18.7042 22.926 18.7724C22.8604 18.7944 22.8568 18.7063 22.8736 18.6465C22.9456 18.3903 23.2118 18.1804 23.4242 18.0438C23.6706 17.8854 22.928 18.8711 22.5613 19.1536C22.3668 19.3034 22.1453 19.315 22.069 19.3069C21.8585 19.2844 22.1275 18.9428 22.1448 18.8749C22.2055 18.6367 21.6876 19.0608 21.6533 19.0274C21.3487 18.7319 21.8905 18.3838 21.8653 18.2145C21.8254 17.946 21.3494 17.9759 21.1284 17.9169C20.8874 17.8526 20.6882 17.6036 20.425 17.4679C20.201 17.3523 20.0098 17.2303 19.7639 17.1541C19.6445 17.117 19.5012 16.9933 19.2982 16.8329C18.7797 16.4228 18.8898 15.4701 18.8731 15.0121C18.8693 14.9102 18.5196 15.5123 18.1295 16.3009C18.016 16.5304 18.601 15.0119 18.8125 14.3009C19.039 13.5398 19.0933 12.9084 19.0597 12.7553C19.0515 12.7177 18.959 12.8372 18.7482 13.3841C18.5374 13.9311 18.1849 14.9214 17.9782 15.4902C17.7715 16.0591 17.7211 16.1766 17.6952 16.2119C17.6774 16.2361 17.7364 15.9436 17.922 15.2273C18.2651 13.9034 18.398 12.9587 18.2892 13.3435C18.1571 13.8103 17.895 14.8359 17.7315 15.4305C17.568 16.025 17.5177 16.1593 17.4833 16.2536C17.4309 16.3978 17.5324 16.0809 17.7692 15.2026C18.0739 14.0719 18.0766 13.4658 17.9835 13.6095C17.9359 13.683 17.9073 13.7699 17.7557 14.3166C17.6041 14.8634 17.3356 15.8704 17.2476 16.3388C17.1596 16.8072 17.2603 16.7065 17.3709 16.4952C17.4816 16.2839 17.5991 15.965 17.7267 15.465C18.0236 14.3021 18.127 13.3839 18.0934 13.1288C18.0735 12.9779 17.7221 14.1875 17.417 15.433C17.3055 15.8879 17.3132 15.9904 17.3468 16.0171C17.4277 16.0815 17.6341 15.757 17.9296 15.066C18.1407 14.5726 18.3426 13.7374 18.472 13.2466C18.6015 12.7558 18.6183 12.6215 18.6269 12.5775C18.629 12.567 18.4845 13.5588 18.2305 15.0498C18.0513 16.1013 17.9744 16.3983 17.9996 16.5341C18.0074 16.5766 18.0751 16.5356 18.1178 16.4848C18.4125 16.134 18.4321 15.4849 18.5165 15.0955C18.5386 14.994 18.5338 14.9091 18.4835 15.0421C18.0929 16.0739 17.924 16.5849 17.8729 16.6282C17.4059 17.0231 18.2622 15.4686 18.3891 15.1294C18.4332 15.0115 18.482 14.843 18.4324 15.0587C18.083 16.578 17.9576 16.7716 17.9574 16.8314C17.9562 17.1112 18.1773 16.3495 18.4298 15.727C18.6402 15.2084 18.9844 14.2653 19.1828 13.7559C19.4441 13.085 19.6344 12.7568 19.9228 12.5346C20.0793 12.4139 20.2625 12.3988 20.364 12.3227C20.474 12.2403 20.5341 12.1109 20.5344 11.9924C20.5345 11.9384 20.4675 11.9075 20.3744 11.8902C20.2813 11.8729 20.1471 11.8729 20.0779 11.9064C20.0087 11.94 20.0087 12.0071 20.0507 12.0585C20.0927 12.1099 20.1766 12.1434 20.245 12.144C20.3134 12.1445 20.3637 12.1109 20.3813 12.0684C20.3988 12.026 20.382 11.9756 20.3398 11.9329C20.2461 11.8381 20.0942 11.8052 19.9673 11.7798C19.9081 11.7679 19.8572 11.7712 19.9068 11.7963C20.2867 11.9892 20.7177 11.8566 21.1348 11.704C21.3482 11.6259 21.4999 11.4665 21.6016 11.4154C21.6325 11.3999 21.6362 11.465 21.6698 11.4909C21.898 11.6673 22.3635 11.23 22.6781 10.8315C22.7192 10.7794 22.6544 10.7876 22.5949 10.8465C22.4502 10.99 22.3488 11.2778 22.2809 11.5573C22.2542 11.6671 22.2801 11.7193 22.3139 11.762C22.3844 11.8511 22.6178 11.8561 22.9224 11.7971C23.1791 11.7474 23.3476 11.5179 23.4832 11.2982C23.5513 11.1878 23.5516 11.0449 23.5266 10.917C23.5017 10.7891 23.4346 10.6716 23.3497 10.6027C23.2647 10.5338 23.164 10.517 23.087 10.5503C22.6729 10.7293 22.7551 11.582 22.8647 12.1254C22.8867 12.2346 22.9575 12.2787 23.0422 12.3215C23.1269 12.3642 23.2444 12.3977 23.3385 12.3899C23.4326 12.382 23.4997 12.3316 23.5511 12.2805C23.6449 12.1872 23.6874 12.0097 23.7128 11.7897C23.7342 11.6044 23.6375 11.3323 23.4265 10.9938C23.3208 10.8244 23.1315 10.7225 22.9947 10.7207C22.2407 10.7109 22.3991 12.2614 22.4833 12.6258C22.5073 12.7297 22.6178 12.8036 22.7366 12.8468C22.8553 12.8901 23.0064 12.8901 23.1429 12.8313C23.4269 12.7091 23.5516 12.4837 23.6108 12.3822C23.8143 12.0337 23.8231 11.1141 23.6629 10.5015C23.6329 10.3864 23.5363 10.3481 23.4514 10.3306C23.3664 10.313 23.2657 10.3298 23.1719 10.4476C22.935 10.7448 22.8741 11.5286 22.882 12.3756C22.8851 12.705 23.0409 12.8199 23.1854 12.8804C23.3298 12.9409 23.4977 12.9409 23.6512 12.8738C23.9732 12.7331 24.111 12.3998 24.1619 12.1124C24.3166 11.2384 23.6884 10.3313 23.5025 10.2876C23.38 10.2588 23.283 10.6299 23.3316 10.9361C23.3802 11.2422 23.5984 11.5779 23.7443 11.7256C23.8903 11.8734 23.9574 11.823 24.0088 11.7467C24.3263 11.2752 23.8577 10.5007 23.6637 10.323C23.5542 10.2227 23.3522 10.1956 23.2151 10.1948C23.0781 10.194 22.9942 10.2444 22.9341 10.3207C22.8741 10.397 22.8406 10.4977 22.8568 10.6083C22.8731 10.7189 22.9402 10.8364 23.0504 10.9305C23.2837 11.1298 23.5678 11.1441 23.7456 11.1019C23.8245 11.0831 23.873 11.0429 23.9073 11.0004C23.9739 10.918 23.9589 10.755 23.9167 10.5773C23.8843 10.4407 23.7728 10.3476 23.6713 10.2713C23.6255 10.2369 23.5699 10.2454 23.5272 10.2706C23.4844 10.2957 23.4509 10.3461 23.4336 10.4056C23.4163 10.4651 23.4163 10.5322 23.4582 10.6088C23.5563 10.7876 23.7713 10.8893 23.9574 10.9317C24.0412 10.9508 24.11 10.9239 24.1614 10.8649C24.2127 10.8059 24.2463 10.7052 24.2468 10.5945C24.2491 10.0925 23.7728 9.85582 23.6881 9.83014C23.6538 9.83802 23.637 9.88837 23.6535 9.93109C23.6701 9.97381 23.7204 10.0074 23.7723 10.042" stroke="#FBF3D3" stroke-linecap="round"/>
<path d="M2.15734 11.11C2.15734 11.0764 1.97273 11.0591 1.62587 11.2102C1.12937 11.4264 1.17424 12.3606 1.17399 13.0713C1.17387 13.3965 1.24087 13.6478 1.31716 13.8279C1.39344 14.0079 1.49414 14.1086 1.64672 14.1689C1.7993 14.2291 2.0007 14.2459 2.1548 14.1958C2.44483 14.1016 2.54692 13.8065 2.60617 13.5868C2.76136 13.0113 2.5988 12.1485 2.42079 11.6031C2.3724 11.4548 2.20922 11.3648 2.02308 11.3053C1.94122 11.2791 1.8705 11.3297 1.81913 11.3722C1.72217 11.4523 1.63248 11.7854 1.54755 12.444C1.43324 13.3304 1.68181 14.0074 1.83414 14.2447C1.91906 14.3769 2.05512 14.3985 2.26567 14.4578C2.6804 14.5745 3.12213 14.4 3.38457 14.1717C3.5934 13.99 3.64903 13.7892 3.67446 13.5868C3.76118 12.8965 3.27929 11.9807 2.9215 11.5092C2.85039 11.4155 2.66898 11.3826 2.54082 11.3648C2.41265 11.347 2.31195 11.3805 2.18455 11.5153C1.86659 11.8517 1.70012 12.446 1.64062 13.0802C1.5829 13.6955 1.78353 14.1935 1.9862 14.5236C2.17731 14.8349 2.62982 14.9071 3.01075 14.9328C3.27995 14.9509 3.52901 14.6716 3.79144 14.3588C4.03235 14.0717 4.03912 13.7221 4.03073 13.4851C4.01058 12.9162 3.37999 11.9949 2.90497 11.4759C2.81806 11.3809 2.7351 11.3816 2.65856 11.4149C2.58201 11.4482 2.4981 11.5321 2.44648 11.6425C2.18216 12.2076 2.46148 13.0899 2.68119 13.6575C2.76994 13.8868 2.93447 13.9398 3.06238 13.9576C3.19029 13.9754 3.30777 13.9418 3.41864 13.8322C3.90754 13.3489 3.78482 12.6897 3.58241 11.7071C3.50537 11.3331 3.27725 11.1278 3.07433 11.051C2.97849 11.0147 2.8714 11.1588 2.79435 11.3198C2.32303 12.3044 2.59778 13.4149 2.69899 13.5586C2.75782 13.6421 2.86733 13.719 2.95277 13.7623C3.03822 13.8055 3.10535 13.8055 3.20707 13.7468C3.46212 13.5995 3.61496 13.3488 3.67421 13.1039C3.84364 12.4036 3.48069 11.8235 3.27776 11.5863C3.19085 11.4846 3.07484 11.4833 2.98939 11.5418C2.56348 11.8333 2.5988 12.8666 2.61456 13.4652C2.61681 13.5504 2.76561 13.5675 2.85106 13.5596C2.9365 13.5517 3.00363 13.5014 3.07178 13.3831C3.23742 13.0957 3.27624 12.7054 3.25945 12.3502C3.24409 12.0249 3.0906 11.7554 2.92989 11.5606C2.86054 11.4765 2.78596 11.4497 2.69263 11.4492C2.59931 11.4487 2.48182 11.4823 2.36256 11.6086C1.74352 12.2646 1.85219 13.0579 1.92772 13.3625C1.96532 13.5142 2.15429 13.6 2.31602 13.6351C2.6381 13.705 2.93599 13.5014 3.16435 13.2649C3.42141 12.9986 3.49646 12.7044 3.51349 12.5521C3.52682 12.4329 3.41254 12.2975 3.26886 12.1536C3.13763 12.0221 2.95481 12.0254 2.81113 12.0338C2.64899 12.0433 2.49708 12.1434 2.3534 12.3291C2.15251 12.5886 2.0897 12.8387 2.06427 12.9401C2.03952 13.0389 2.08919 13.211 2.21558 13.4057C2.28132 13.5071 2.45944 13.5166 2.57083 13.5087C2.99531 13.4787 3.29149 12.589 3.46238 11.5967C3.52158 11.2529 3.42932 10.9757 3.32786 10.7471C3.28433 10.649 3.2264 10.6024 3.16689 10.6268C3.00219 10.6944 2.9543 11.0739 2.996 11.4464C3.01437 11.6104 3.18876 11.6847 3.30828 11.7027C3.4278 11.7208 3.5285 11.6704 3.60555 11.6025C3.6826 11.5346 3.73295 11.4507 3.75889 11.3823C3.80198 11.2687 3.75126 11.1278 3.66683 10.9671C3.58028 10.8023 3.41254 10.7204 3.2353 10.6695C3.12816 10.6388 2.97414 10.6522 2.87954 10.6774C2.78494 10.7026 2.75137 10.7529 2.7173 10.8628C2.68322 10.9727 2.64966 11.1405 2.65754 11.2689C2.66542 11.3973 2.71577 11.4812 2.80045 11.5497C2.98284 11.697 3.20758 11.7035 3.35151 11.6529C3.4165 11.63 3.44509 11.5687 3.4456 11.5176C3.44611 11.4665 3.41254 11.4161 3.37007 11.3734C3.12215 11.124 2.64966 11.11 2.49759 11.1687C2.25882 11.261 2.19142 11.5163 2.1576 11.6346C2.05506 11.9931 2.47775 12.4811 2.78342 12.7113C3.26003 13.0701 4.0025 13.2623 4.73156 13.2801C5.1248 13.2897 5.25922 13.0767 5.29355 13.068C5.39856 13.0416 4.87219 13.1443 4.56652 13.1443C4.27974 13.1443 5.35941 13.246 5.74085 13.2883C5.91698 13.3078 6.21994 13.2969 6.32522 13.2633C6.4305 13.2298 6.3298 13.1626 6.24436 13.1281C6.15891 13.0935 6.09178 13.0935 6.11594 13.1103C6.23939 13.196 6.49611 13.2288 6.53145 13.2796C6.57936 13.3485 6.164 13.2969 6.04219 13.3053C5.92039 13.3137 5.97074 13.3305 6.03024 13.3391C6.15688 13.3478 6.30996 13.3645 6.47068 13.4068C6.54748 13.4322 6.61461 13.4658 6.68378 13.5003" stroke="#FBF3D3" stroke-linecap="round"/>
<path d="M4.49683 19.2983C4.49683 19.2311 4.36257 18.9784 4.10878 18.6394C4.00694 18.5034 3.88856 18.5018 3.77794 18.5351C3.53237 18.6091 3.37845 18.8731 3.30216 19.1353C3.23322 19.3722 3.34336 19.6527 3.47025 19.9068C3.5546 20.0757 3.69937 20.1456 3.93535 20.23C4.3619 20.3826 4.80046 20.3668 5.07128 20.2234C5.34103 20.0805 5.36143 19.7738 5.34465 19.5795C5.30192 19.0849 4.83759 18.808 4.59092 18.6798C4.46695 18.6154 4.22728 18.5695 3.89746 18.6196C3.7242 18.6459 3.58443 18.8375 3.515 19.058C3.36227 19.543 3.59714 20.0759 3.84228 20.4568C4.04332 20.7692 4.46072 20.8912 4.85005 20.9845C5.13087 21.0518 5.41077 20.8591 5.66481 20.614C5.88321 20.4032 5.87002 20.0962 5.86163 19.8931C5.84451 19.4786 5.31261 18.8263 4.67713 18.2574C4.51977 18.1166 4.32849 18.1117 4.10013 18.1534C3.97682 18.176 3.88856 18.3462 3.90382 18.6251C3.94283 19.3385 4.25881 19.8567 4.41088 20.0596C4.57581 20.2797 4.90167 20.4166 5.24039 20.4929C5.69099 20.5944 6.17416 20.1974 6.31885 19.9775C6.52675 19.6614 6.31148 19.3003 6.08312 18.9267C5.91831 18.6571 5.56639 18.5527 5.31235 18.5354C5.20833 18.5283 5.15901 18.6188 5.12468 18.7792C5.03779 19.1854 5.08985 19.518 5.19106 19.67C5.3299 19.8787 5.56385 19.9762 5.7416 20.0016C5.81836 20.0126 5.869 20.0103 5.9369 19.9599C6.10892 19.8324 6.20874 19.5373 6.2596 19.241C6.29564 19.0311 6.22654 18.8416 6.11669 18.6722C6.06724 18.596 5.99005 18.57 5.93868 18.6366C5.46903 19.2457 5.83595 20.1624 5.94529 20.2219C6.02699 20.2663 6.20569 20.1974 6.29215 20.1298C6.37861 20.0622 6.37861 19.9615 6.36183 19.8844C6.34504 19.8074 6.31148 19.757 6.25222 19.7059C6.19297 19.6548 6.10906 19.6044 6.03226 19.6708C5.95546 19.7372 5.88833 19.9218 5.91249 20.0756C5.93665 20.2295 6.05413 20.347 6.15661 20.4075C6.25909 20.468 6.34301 20.468 6.40302 20.4344C6.46303 20.4009 6.4966 20.3337 6.48033 20.2824C6.46405 20.231 6.39692 20.1974 6.32038 20.1969C6.24383 20.1964 6.15992 20.23 6.08312 20.3312C5.89868 20.5743 5.85324 20.8571 5.8362 21.0094C5.8286 21.0774 5.85273 21.1282 5.89494 21.1373C5.93715 21.1465 6.00429 21.1129 6.06405 21.0704C6.12381 21.028 6.17416 20.9776 6.22603 20.9257" stroke="#FBF3D3" stroke-linecap="round"/>
<path d="M9.78617 18.6371C9.86958 18.8396 10.2429 19.1447 10.3538 19.3484C10.4685 19.5593 10.6162 19.755 10.7014 19.9587C10.7904 20.1715 10.8033 20.4498 10.7021 20.7974C10.6276 21.0535 10.3975 21.1964 10.1094 21.4166C9.85859 21.6083 9.58375 21.9074 9.39684 22.2301C9.19069 22.586 9.4627 23.5155 9.81007 24.2123C9.97862 24.5504 10.3777 24.7392 10.7161 24.875C10.8626 24.9337 10.9875 24.8765 11.0899 24.7585C11.3324 24.4793 11.346 23.8288 11.2954 23.1262C11.2601 22.6358 11.0922 22.3676 10.9653 22.2153C10.9072 22.1455 10.8552 22.0966 10.7705 22.079C10.6859 22.0615 10.5684 22.0783 10.4827 22.1372C10.0585 22.4292 10.2266 23.3131 10.3703 23.6963C10.4597 23.9349 10.7006 24.0953 10.9707 24.2054C11.3491 24.3597 11.6674 24.2657 11.7689 24.2235C11.8773 24.1784 12.0229 24.0124 12.1839 23.7421C12.361 23.4447 12.2615 23.1473 12.2109 22.9868C12.0784 22.5669 11.5866 22.1159 11.2112 21.8502C11.0955 21.7682 10.8389 21.8911 10.5595 22.094C9.95957 22.5296 10.2602 23.7719 10.4127 24.0864C10.4997 24.2656 10.7006 24.4005 10.9623 24.5274C11.3175 24.6996 11.7676 24.6222 12.1483 24.4534C12.5194 24.2888 12.6678 23.9616 12.7019 23.708C12.7743 23.1693 12.2294 22.8096 11.7628 22.5286C11.674 22.4751 11.6181 22.4688 11.5418 22.4686C11.4655 22.4683 11.3648 22.4851 11.271 22.5777C11.0465 22.7991 11.0068 23.0949 11.0487 23.3647C11.1237 23.8467 11.3114 24.197 11.4632 24.3323C11.6771 24.5229 11.9889 24.5368 12.192 24.5284C12.3303 24.5227 12.5142 24.3852 12.7428 24.1907C12.9174 24.0421 12.9562 23.8258 12.9648 23.6228C12.984 23.1721 12.3311 22.9103 11.9238 22.774C11.7306 22.7094 11.5667 22.7903 11.4737 22.8747C11.3696 22.9691 11.3628 23.129 11.3796 23.2055C11.4349 23.4578 11.4309 22.4536 11.363 22.1645C11.2762 21.7948 11.2611 21.4537 11.3791 21.0712C11.5075 20.655 11.7859 20.4691 11.8711 20.2232C11.8915 20.1645 11.9049 20.1131 11.88 20.1375C11.5962 20.4155 11.4157 21.1923 11.3791 21.5023C11.3496 21.7518 12.0713 20.5428 12.6221 19.4331C12.8292 19.0157 12.854 18.8772 12.8713 18.7829C12.8886 18.6885 12.8886 18.6382 12.8214 18.7633C12.5981 19.1795 12.381 19.8038 12.2536 20.2448C12.2143 20.3806 12.2772 20.3501 12.3703 20.2153C12.8491 19.522 13.0406 19.1976 13.0833 19.0618C13.1058 18.9905 12.8387 19.1956 12.6442 19.4153C12.4391 19.647 12.1114 20.3608 11.6794 21.2754C11.5102 21.6337 11.4655 21.7873 11.4648 21.8484C11.4608 22.1631 12.0402 21.0631 12.0583 20.8498C12.0744 20.6596 11.7025 21.145 11.5337 21.4824C10.9339 22.6812 10.8542 23.6371 10.871 23.8403C10.8782 23.9273 10.9213 23.9763 10.9974 24.019C11.0734 24.0617 11.1909 24.0953 11.3018 24.0623C11.7456 23.9299 11.7188 23.4703 11.7775 23.3253C11.8705 23.0958 12.1252 23.7729 12.1679 23.9338C12.0931 24.0109 11.94 24.0114 11.8381 24.0027C11.82 24.0109 11.8704 24.0445 12.024 23.9773" stroke="#FBF3D3" stroke-linecap="round"/>
</svg>
