<svg width="234" height="75" viewBox="0 0 234 75" fill="none" xmlns="http://www.w3.org/2000/svg">
<path d="M12.4772 0.731999H17.0852L14.7812 6.24L12.2252 21H5.24117L0.813172 0.731999H5.42117L8.69717 19.2L12.4772 0.731999ZM24.0692 0.731999H28.6772L24.3932 21H17.4092L14.7812 6.24L12.4052 0.731999H17.0852L20.9012 19.2L24.0692 0.731999ZM37.2758 21.36C35.5238 21.36 34.0958 21 32.9918 20.28C31.9118 19.56 31.1198 18.624 30.6158 17.472C30.1118 16.32 29.8358 15.12 29.7878 13.872C29.7638 12.312 30.0518 10.944 30.6518 9.768C31.2518 8.592 32.1038 7.68 33.2078 7.032C34.3358 6.384 35.6438 6.06 37.1318 6.06C38.4998 6.06 39.7238 6.348 40.8038 6.924C41.8838 7.5 42.7358 8.328 43.3598 9.408C43.9838 10.464 44.3078 11.724 44.3318 13.188C44.3318 13.212 44.3318 13.344 44.3318 13.584C44.3318 13.824 44.3318 14.004 44.3318 14.124H33.9278C33.9278 15.348 34.2158 16.26 34.7918 16.86C35.3918 17.46 36.1838 17.76 37.1678 17.76C37.9838 17.76 38.6438 17.568 39.1478 17.184C39.6758 16.8 39.9878 16.296 40.0838 15.672H44.2958C44.1998 16.704 43.8758 17.664 43.3238 18.552C42.7718 19.416 41.9918 20.1 40.9838 20.604C39.9758 21.108 38.7398 21.36 37.2758 21.36ZM33.9998 12.288H39.9758C39.9758 12.192 39.9518 12 39.9038 11.712C39.8558 11.424 39.7358 11.124 39.5438 10.812C39.3518 10.476 39.0518 10.188 38.6438 9.948C38.2598 9.708 37.7198 9.588 37.0238 9.588C36.3518 9.588 35.8118 9.696 35.4038 9.912C34.9958 10.128 34.6958 10.404 34.5038 10.74C34.3118 11.052 34.1798 11.364 34.1078 11.676C34.0358 11.964 33.9998 12.168 33.9998 12.288ZM47.4557 21V0.731999H51.6677V21H47.4557ZM61.9974 21.36C60.6054 21.36 59.3214 21.084 58.1454 20.532C56.9934 19.956 56.0694 19.116 55.3734 18.012C54.6774 16.884 54.3294 15.492 54.3294 13.836C54.3774 12.228 54.7374 10.848 55.4094 9.696C56.1054 8.544 57.0294 7.656 58.1814 7.032C59.3334 6.408 60.6174 6.096 62.0334 6.096C63.6174 6.096 64.9494 6.408 66.0294 7.032C67.1094 7.632 67.9254 8.4 68.4774 9.336C69.0534 10.248 69.3654 11.196 69.4134 12.18H65.4534C65.3094 11.412 64.9614 10.824 64.4094 10.416C63.8574 10.008 63.1134 9.804 62.1774 9.804C61.3854 9.804 60.7254 9.96 60.1974 10.272C59.6694 10.584 59.2614 11.016 58.9734 11.568C58.7094 12.12 58.5774 12.768 58.5774 13.512C58.5774 14.76 58.8774 15.756 59.4774 16.5C60.0774 17.244 61.0014 17.616 62.2494 17.616C63.0174 17.616 63.7014 17.412 64.3014 17.004C64.9254 16.596 65.3094 15.948 65.4534 15.06H69.4134C69.3654 16.092 69.0534 17.1 68.4774 18.084C67.9254 19.044 67.0974 19.836 65.9934 20.46C64.9134 21.06 63.5814 21.36 61.9974 21.36ZM78.9737 21.36C77.2697 21.36 75.8417 21.036 74.6897 20.388C73.5617 19.716 72.7097 18.816 72.1337 17.688C71.5817 16.536 71.3057 15.228 71.3057 13.764C71.3057 12.276 71.5817 10.968 72.1337 9.84C72.7097 8.688 73.5617 7.788 74.6897 7.14C75.8417 6.468 77.2697 6.132 78.9737 6.132C81.4697 6.132 83.3657 6.828 84.6617 8.22C85.9577 9.612 86.6057 11.46 86.6057 13.764C86.6057 15.204 86.3297 16.5 85.7777 17.652C85.2257 18.78 84.3857 19.68 83.2577 20.352C82.1297 21.024 80.7017 21.36 78.9737 21.36ZM78.9737 17.724C79.9577 17.724 80.6897 17.52 81.1697 17.112C81.6737 16.704 82.0097 16.188 82.1777 15.564C82.3457 14.916 82.4297 14.268 82.4297 13.62C82.4297 12.948 82.3457 12.3 82.1777 11.676C82.0097 11.028 81.6737 10.5 81.1697 10.092C80.6897 9.66 79.9577 9.444 78.9737 9.444C77.9897 9.444 77.2457 9.66 76.7417 10.092C76.2377 10.5 75.9017 11.028 75.7337 11.676C75.5657 12.3 75.4817 12.948 75.4817 13.62C75.4817 14.268 75.5657 14.916 75.7337 15.564C75.9017 16.188 76.2377 16.704 76.7417 17.112C77.2457 17.52 77.9897 17.724 78.9737 17.724ZM89.0362 21V6.168H93.2482V9.12H93.3202C93.3442 9.072 93.4282 8.904 93.5722 8.616C93.7402 8.304 93.9802 7.956 94.2922 7.572C94.6282 7.188 95.0602 6.864 95.5882 6.6C96.1402 6.312 96.8122 6.168 97.6042 6.168C98.3722 6.168 99.0082 6.312 99.5122 6.6C100.016 6.864 100.424 7.224 100.736 7.68C101.048 8.112 101.288 8.592 101.456 9.12H101.528C101.528 9.048 101.612 8.868 101.78 8.58C101.972 8.268 102.236 7.932 102.572 7.572C102.932 7.188 103.4 6.864 103.976 6.6C104.552 6.312 105.248 6.168 106.064 6.168C107 6.168 107.768 6.36 108.368 6.744C108.992 7.128 109.484 7.644 109.844 8.292C110.228 8.916 110.504 9.576 110.672 10.272C110.864 10.968 110.984 11.64 111.032 12.288C111.104 12.912 111.14 13.428 111.14 13.836V21H106.928V13.8C106.928 13.44 106.904 13.044 106.856 12.612C106.832 12.18 106.748 11.76 106.604 11.352C106.484 10.944 106.268 10.62 105.956 10.38C105.644 10.116 105.2 9.984 104.624 9.984C103.928 9.984 103.4 10.188 103.04 10.596C102.68 10.98 102.452 11.472 102.356 12.072C102.26 12.672 102.212 13.284 102.212 13.908V21H97.9642V13.8C97.9642 13.44 97.9522 13.044 97.9282 12.612C97.9042 12.18 97.8202 11.76 97.6762 11.352C97.5322 10.944 97.3042 10.62 96.9922 10.38C96.6802 10.116 96.2362 9.984 95.6602 9.984C94.9642 9.984 94.4362 10.188 94.0762 10.596C93.7402 10.98 93.5122 11.472 93.3922 12.072C93.2962 12.672 93.2482 13.284 93.2482 13.908V21H89.0362ZM120.807 21.36C119.055 21.36 117.627 21 116.523 20.28C115.443 19.56 114.651 18.624 114.147 17.472C113.643 16.32 113.367 15.12 113.319 13.872C113.295 12.312 113.583 10.944 114.183 9.768C114.783 8.592 115.635 7.68 116.739 7.032C117.867 6.384 119.175 6.06 120.663 6.06C122.031 6.06 123.255 6.348 124.335 6.924C125.415 7.5 126.267 8.328 126.891 9.408C127.515 10.464 127.839 11.724 127.863 13.188C127.863 13.212 127.863 13.344 127.863 13.584C127.863 13.824 127.863 14.004 127.863 14.124H117.459C117.459 15.348 117.747 16.26 118.323 16.86C118.923 17.46 119.715 17.76 120.699 17.76C121.515 17.76 122.175 17.568 122.679 17.184C123.207 16.8 123.519 16.296 123.615 15.672H127.827C127.731 16.704 127.407 17.664 126.855 18.552C126.303 19.416 125.523 20.1 124.515 20.604C123.507 21.108 122.271 21.36 120.807 21.36ZM117.531 12.288H123.507C123.507 12.192 123.483 12 123.435 11.712C123.387 11.424 123.267 11.124 123.075 10.812C122.883 10.476 122.583 10.188 122.175 9.948C121.791 9.708 121.251 9.588 120.555 9.588C119.883 9.588 119.343 9.696 118.935 9.912C118.527 10.128 118.227 10.404 118.035 10.74C117.843 11.052 117.711 11.364 117.639 11.676C117.567 11.964 117.531 12.168 117.531 12.288ZM143.55 21C142.254 21 141.246 20.688 140.526 20.064C139.806 19.44 139.446 18.36 139.446 16.824V8.724H143.514V17.652H146.97V21H143.55ZM137.322 9.156V6.168C137.778 6.168 138.174 6.132 138.51 6.06C138.87 5.964 139.158 5.796 139.374 5.556C139.614 5.316 139.782 4.944 139.878 4.44C139.998 3.912 140.058 3.228 140.058 2.388H143.514V6.168H146.862V9.156H137.322ZM156.669 21.36C154.965 21.36 153.537 21.036 152.385 20.388C151.257 19.716 150.405 18.816 149.829 17.688C149.277 16.536 149.001 15.228 149.001 13.764C149.001 12.276 149.277 10.968 149.829 9.84C150.405 8.688 151.257 7.788 152.385 7.14C153.537 6.468 154.965 6.132 156.669 6.132C159.165 6.132 161.061 6.828 162.357 8.22C163.653 9.612 164.301 11.46 164.301 13.764C164.301 15.204 164.025 16.5 163.473 17.652C162.921 18.78 162.081 19.68 160.953 20.352C159.825 21.024 158.397 21.36 156.669 21.36ZM156.669 17.724C157.653 17.724 158.385 17.52 158.865 17.112C159.369 16.704 159.705 16.188 159.873 15.564C160.041 14.916 160.125 14.268 160.125 13.62C160.125 12.948 160.041 12.3 159.873 11.676C159.705 11.028 159.369 10.5 158.865 10.092C158.385 9.66 157.653 9.444 156.669 9.444C155.685 9.444 154.941 9.66 154.437 10.092C153.933 10.5 153.597 11.028 153.429 11.676C153.261 12.3 153.177 12.948 153.177 13.62C153.177 14.268 153.261 14.916 153.429 15.564C153.597 16.188 153.933 16.704 154.437 17.112C154.941 17.52 155.685 17.724 156.669 17.724ZM175.083 21V0.731999H182.643L186.531 19.164H186.603L190.419 0.731999H197.943V21H193.443L193.767 2.604H193.695L189.699 21H183.363L179.403 2.604H179.331L179.583 21H175.083ZM206.295 21.36C204.951 21.36 203.871 21.048 203.055 20.424C202.239 19.8 201.651 18.924 201.291 17.796C200.931 16.668 200.751 15.336 200.751 13.8C200.751 12.264 200.931 10.92 201.291 9.768C201.675 8.616 202.263 7.728 203.055 7.104C203.871 6.456 204.951 6.132 206.295 6.132C207.207 6.132 207.963 6.264 208.563 6.528C209.163 6.768 209.631 7.068 209.967 7.428C210.327 7.788 210.591 8.124 210.759 8.436C210.927 8.724 211.035 8.904 211.083 8.976H211.155V6.168H215.619V21H211.839L211.155 18.768H211.083C211.059 18.864 210.951 19.056 210.759 19.344C210.591 19.608 210.327 19.896 209.967 20.208C209.607 20.52 209.127 20.784 208.527 21C207.927 21.24 207.183 21.36 206.295 21.36ZM208.095 17.724C208.959 17.724 209.607 17.556 210.039 17.22C210.471 16.86 210.759 16.38 210.903 15.78C211.047 15.18 211.119 14.532 211.119 13.836C211.119 13.116 211.047 12.456 210.903 11.856C210.759 11.256 210.471 10.788 210.039 10.452C209.607 10.116 208.959 9.948 208.095 9.948C207.231 9.948 206.571 10.128 206.115 10.488C205.683 10.848 205.395 11.328 205.251 11.928C205.107 12.504 205.035 13.14 205.035 13.836C205.035 14.532 205.107 15.18 205.251 15.78C205.395 16.356 205.683 16.824 206.115 17.184C206.571 17.544 207.231 17.724 208.095 17.724ZM227.744 21.36C226.856 21.36 226.112 21.228 225.512 20.964C224.936 20.7 224.468 20.4 224.108 20.064C223.748 19.728 223.484 19.428 223.316 19.164C223.172 18.876 223.1 18.708 223.1 18.66H223.028V27.876H218.528V6.168H222.308L223.028 9.12H223.1C223.1 9.096 223.172 8.94 223.316 8.652C223.46 8.34 223.7 7.992 224.036 7.608C224.372 7.224 224.84 6.888 225.44 6.6C226.04 6.312 226.808 6.168 227.744 6.168C229.232 6.168 230.42 6.48 231.308 7.104C232.196 7.728 232.832 8.628 233.216 9.804C233.6 10.956 233.792 12.312 233.792 13.872C233.792 15.432 233.588 16.776 233.18 17.904C232.796 19.008 232.16 19.86 231.272 20.46C230.384 21.06 229.208 21.36 227.744 21.36ZM226.34 17.76C227.276 17.76 227.972 17.568 228.428 17.184C228.908 16.8 229.22 16.32 229.364 15.744C229.532 15.144 229.616 14.508 229.616 13.836C229.616 13.164 229.532 12.54 229.364 11.964C229.196 11.364 228.872 10.884 228.392 10.524C227.936 10.164 227.24 9.984 226.304 9.984C225.44 9.984 224.768 10.152 224.288 10.488C223.808 10.824 223.472 11.292 223.28 11.892C223.112 12.492 223.028 13.14 223.028 13.836C223.028 14.556 223.112 15.216 223.28 15.816C223.472 16.392 223.808 16.86 224.288 17.22C224.792 17.58 225.476 17.76 226.34 17.76ZM79.3233 70.504C75.9873 70.504 73.4433 69.556 71.6913 67.66C69.9393 65.74 69.0633 63.16 69.0633 59.92C69.0633 57.808 69.4473 55.96 70.2153 54.376C70.9833 52.792 72.1233 51.568 73.6353 50.704C75.1713 49.816 77.0673 49.372 79.3233 49.372C81.5553 49.372 83.4273 49.816 84.9393 50.704C86.4753 51.568 87.6273 52.792 88.3953 54.376C89.1633 55.936 89.5473 57.784 89.5473 59.92C89.5473 62.008 89.1633 63.856 88.3953 65.464C87.6273 67.048 86.4753 68.284 84.9393 69.172C83.4273 70.06 81.5553 70.504 79.3233 70.504ZM82.0953 74.824C81.5913 74.824 81.0753 74.8 80.5473 74.752C80.0193 74.704 79.5273 74.524 79.0713 74.212C78.6393 73.9 78.2793 73.384 77.9913 72.664C77.7033 71.944 77.5593 70.936 77.5593 69.64V67.876H81.6993V69.316C81.6993 69.94 81.7113 70.408 81.7353 70.72C81.7593 71.056 81.8913 71.272 82.1313 71.368C82.3713 71.488 82.8033 71.548 83.4273 71.548C83.4273 71.548 83.6193 71.512 84.0033 71.44C84.4113 71.392 84.8073 71.368 85.1913 71.368V74.644C85.1193 74.644 84.9153 74.644 84.5793 74.644C84.2673 74.668 83.9193 74.692 83.5353 74.716C83.1513 74.764 82.8153 74.788 82.5273 74.788C82.2393 74.812 82.0953 74.824 82.0953 74.824ZM79.2873 66.22C81.2313 66.22 82.6833 65.632 83.6433 64.456C84.6273 63.28 85.1193 61.72 85.1193 59.776C85.1193 57.832 84.6393 56.272 83.6793 55.096C82.7193 53.896 81.2553 53.296 79.2873 53.296C77.3913 53.296 75.9513 53.86 74.9673 54.988C73.9833 56.116 73.4913 57.712 73.4913 59.776C73.4913 61.72 73.9713 63.28 74.9313 64.456C75.8913 65.632 77.3433 66.22 79.2873 66.22ZM96.923 70.36C95.867 70.36 95.003 70.18 94.331 69.82C93.683 69.46 93.179 68.992 92.819 68.416C92.459 67.84 92.207 67.204 92.063 66.508C91.919 65.812 91.823 65.128 91.775 64.456C91.751 63.784 91.739 63.184 91.739 62.656V55.168H95.987V62.692C95.987 63.316 96.047 63.928 96.167 64.528C96.287 65.104 96.539 65.584 96.923 65.968C97.331 66.352 97.979 66.544 98.867 66.544C99.731 66.544 100.367 66.352 100.775 65.968C101.183 65.584 101.447 65.104 101.567 64.528C101.687 63.928 101.759 63.34 101.783 62.764V55.168H106.247V70H102.503L101.783 67.408H101.711C101.687 67.48 101.591 67.672 101.423 67.984C101.279 68.296 101.027 68.632 100.667 68.992C100.307 69.352 99.815 69.676 99.191 69.964C98.591 70.228 97.835 70.36 96.923 70.36ZM115.815 70.36C114.063 70.36 112.635 70 111.531 69.28C110.451 68.56 109.659 67.624 109.155 66.472C108.651 65.32 108.375 64.12 108.327 62.872C108.303 61.312 108.591 59.944 109.191 58.768C109.791 57.592 110.643 56.68 111.747 56.032C112.875 55.384 114.183 55.06 115.671 55.06C117.039 55.06 118.263 55.348 119.343 55.924C120.423 56.5 121.275 57.328 121.899 58.408C122.523 59.464 122.847 60.724 122.871 62.188C122.871 62.212 122.871 62.344 122.871 62.584C122.871 62.824 122.871 63.004 122.871 63.124H112.467C112.467 64.348 112.755 65.26 113.331 65.86C113.931 66.46 114.723 66.76 115.707 66.76C116.523 66.76 117.183 66.568 117.687 66.184C118.215 65.8 118.527 65.296 118.623 64.672H122.835C122.739 65.704 122.415 66.664 121.863 67.552C121.311 68.416 120.531 69.1 119.523 69.604C118.515 70.108 117.279 70.36 115.815 70.36ZM112.539 61.288H118.515C118.515 61.192 118.491 61 118.443 60.712C118.395 60.424 118.275 60.124 118.083 59.812C117.891 59.476 117.591 59.188 117.183 58.948C116.799 58.708 116.259 58.588 115.563 58.588C114.891 58.588 114.351 58.696 113.943 58.912C113.535 59.128 113.235 59.404 113.043 59.74C112.851 60.052 112.719 60.364 112.647 60.676C112.575 60.964 112.539 61.168 112.539 61.288ZM132.115 70.36C131.779 70.36 131.323 70.312 130.747 70.216C130.171 70.144 129.559 70 128.911 69.784C128.287 69.544 127.687 69.22 127.111 68.812C126.535 68.38 126.067 67.84 125.707 67.192C125.371 66.544 125.203 65.752 125.203 64.816H129.199C129.199 64.84 129.211 64.984 129.235 65.248C129.259 65.488 129.343 65.764 129.487 66.076C129.655 66.364 129.931 66.628 130.315 66.868C130.699 67.108 131.263 67.228 132.007 67.228C132.583 67.228 133.039 67.156 133.375 67.012C133.711 66.844 133.951 66.652 134.095 66.436C134.239 66.22 134.299 66.016 134.275 65.824C134.275 65.368 134.059 65.02 133.627 64.78C133.219 64.516 132.679 64.288 132.007 64.096C131.335 63.904 130.615 63.7 129.847 63.484C129.103 63.268 128.395 62.992 127.723 62.656C127.051 62.296 126.499 61.828 126.067 61.252C125.659 60.652 125.467 59.872 125.491 58.912C125.491 57.472 126.043 56.404 127.147 55.708C128.275 55.012 129.703 54.664 131.431 54.664C132.415 54.664 133.327 54.784 134.167 55.024C135.007 55.24 135.751 55.576 136.399 56.032C137.047 56.488 137.551 57.076 137.911 57.796C138.271 58.516 138.463 59.356 138.487 60.316H134.527C134.551 59.836 134.467 59.44 134.275 59.128C134.107 58.816 133.879 58.576 133.591 58.408C133.303 58.24 132.979 58.12 132.619 58.048C132.283 57.952 131.935 57.904 131.575 57.904C130.807 57.904 130.255 58.048 129.919 58.336C129.607 58.6 129.451 58.9 129.451 59.236C129.451 59.74 129.667 60.136 130.099 60.424C130.531 60.688 131.083 60.916 131.755 61.108C132.427 61.3 133.147 61.504 133.915 61.72C134.707 61.936 135.439 62.212 136.111 62.548C136.783 62.884 137.335 63.34 137.767 63.916C138.199 64.468 138.415 65.2 138.415 66.112C138.415 67.048 138.151 67.828 137.623 68.452C137.119 69.076 136.399 69.556 135.463 69.892C134.527 70.204 133.411 70.36 132.115 70.36ZM146.187 70C144.891 70 143.883 69.688 143.163 69.064C142.443 68.44 142.083 67.36 142.083 65.824V57.724H146.151V66.652H149.607V70H146.187ZM139.959 58.156V55.168C140.415 55.168 140.811 55.132 141.147 55.06C141.507 54.964 141.795 54.796 142.011 54.556C142.251 54.316 142.419 53.944 142.515 53.44C142.635 52.912 142.695 52.228 142.695 51.388H146.151V55.168H149.499V58.156H139.959ZM163.047 70.324C162.039 70.324 161.367 70.084 161.031 69.604C160.719 69.1 160.563 68.512 160.563 67.84C160.563 67.168 160.731 66.592 161.067 66.112C161.403 65.632 162.063 65.392 163.047 65.392C164.007 65.392 164.655 65.632 164.991 66.112C165.351 66.568 165.531 67.144 165.531 67.84C165.531 68.536 165.351 69.124 164.991 69.604C164.655 70.084 164.007 70.324 163.047 70.324ZM161.571 63.52C161.379 61.96 161.175 60.496 160.959 59.128C160.743 57.736 160.575 56.464 160.455 55.312C160.335 54.16 160.311 53.176 160.383 52.36C160.479 51.52 160.731 50.872 161.139 50.416C161.547 49.96 162.171 49.732 163.011 49.732C163.851 49.732 164.475 49.96 164.883 50.416C165.291 50.872 165.531 51.532 165.603 52.396C165.699 53.236 165.687 54.232 165.567 55.384C165.471 56.536 165.303 57.796 165.063 59.164C164.847 60.532 164.643 61.984 164.451 63.52C164.451 63.52 164.319 63.496 164.055 63.448C163.815 63.376 163.467 63.34 163.011 63.34C162.675 63.34 162.351 63.376 162.039 63.448C161.727 63.496 161.571 63.52 161.571 63.52Z" fill="#FBF3D3"/>
</svg>
