<svg width="320" height="568" viewBox="0 0 320 568" fill="none" xmlns="http://www.w3.org/2000/svg">
<rect width="320" height="568" fill="#68B0BA"/>
<path d="M130.428 212.25C129.112 212.25 127.92 211.983 126.853 211.45C125.787 210.9 124.937 210.092 124.303 209.025C123.687 207.958 123.378 206.625 123.378 205.025C123.395 203.458 123.712 202.125 124.328 201.025C124.945 199.925 125.787 199.092 126.853 198.525C127.937 197.958 129.153 197.675 130.503 197.675C131.803 197.675 132.912 197.908 133.828 198.375C134.745 198.842 135.478 199.475 136.028 200.275C136.595 201.075 136.962 201.975 137.128 202.975H134.503C134.387 202.242 134.112 201.667 133.678 201.25C133.262 200.817 132.77 200.517 132.203 200.35C131.637 200.167 131.07 200.075 130.503 200.075C129.02 200.075 127.878 200.492 127.078 201.325C126.295 202.158 125.903 203.333 125.903 204.85C125.903 206.467 126.287 207.708 127.053 208.575C127.837 209.442 128.97 209.875 130.453 209.875C131.07 209.875 131.67 209.783 132.253 209.6C132.837 209.4 133.337 209.083 133.753 208.65C134.17 208.2 134.437 207.6 134.553 206.85H137.203C137.02 207.867 136.653 208.792 136.103 209.625C135.553 210.442 134.803 211.083 133.853 211.55C132.92 212.017 131.778 212.25 130.428 212.25ZM145.392 212.35C143.126 212.35 141.392 211.692 140.192 210.375C138.992 209.042 138.392 207.25 138.392 205C138.392 203.517 138.651 202.233 139.167 201.15C139.684 200.05 140.459 199.2 141.492 198.6C142.542 197.983 143.842 197.675 145.392 197.675C147.676 197.675 149.409 198.342 150.592 199.675C151.792 200.992 152.392 202.767 152.392 205C152.392 206.45 152.126 207.733 151.592 208.85C151.059 209.95 150.276 210.808 149.242 211.425C148.209 212.042 146.926 212.35 145.392 212.35ZM145.367 209.9C146.384 209.9 147.226 209.692 147.892 209.275C148.559 208.842 149.059 208.258 149.392 207.525C149.726 206.775 149.892 205.933 149.892 205C149.892 204.05 149.726 203.208 149.392 202.475C149.059 201.725 148.559 201.142 147.892 200.725C147.226 200.292 146.384 200.075 145.367 200.075C143.901 200.075 142.784 200.525 142.017 201.425C141.251 202.325 140.867 203.517 140.867 205C140.867 205.917 141.026 206.75 141.342 207.5C141.676 208.233 142.176 208.817 142.842 209.25C143.509 209.683 144.351 209.9 145.367 209.9ZM154.7 212V197.925H159.15L162.45 210.9H162.5L165.775 197.925H170.2V212H167.55L167.725 199.075H167.7L164.325 212H160.575L157.25 199.075H157.2L157.35 212H154.7ZM175.009 211.55V198.375H177.534V211.55H175.009ZM173.109 212V209.825H179.384V212H173.109ZM173.109 200.125V197.925H179.384V200.125H173.109ZM188.583 212.25C187.266 212.25 186.074 211.983 185.008 211.45C183.941 210.9 183.091 210.092 182.458 209.025C181.841 207.958 181.533 206.625 181.533 205.025C181.549 203.458 181.866 202.125 182.483 201.025C183.099 199.925 183.941 199.092 185.008 198.525C186.091 197.958 187.308 197.675 188.658 197.675C189.958 197.675 191.066 197.908 191.983 198.375C192.899 198.842 193.633 199.475 194.183 200.275C194.749 201.075 195.116 201.975 195.283 202.975H192.658C192.541 202.242 192.266 201.667 191.833 201.25C191.416 200.817 190.924 200.517 190.358 200.35C189.791 200.167 189.224 200.075 188.658 200.075C187.174 200.075 186.033 200.492 185.233 201.325C184.449 202.158 184.058 203.333 184.058 204.85C184.058 206.467 184.441 207.708 185.208 208.575C185.991 209.442 187.124 209.875 188.608 209.875C189.224 209.875 189.824 209.783 190.408 209.6C190.991 209.4 191.491 209.083 191.908 208.65C192.324 208.2 192.591 207.6 192.708 206.85H195.358C195.174 207.867 194.808 208.792 194.258 209.625C193.708 210.442 192.958 211.083 192.008 211.55C191.074 212.017 189.933 212.25 188.583 212.25Z" fill="white"/>
</svg>
